<svg version="1.1" id="svg2" sodipodi:docname="RG Program Logo_Full Colour.eps"
  xmlns:inkscape="http://www.inkscape.org/namespaces/inkscape"
  xmlns:sodipodi="http://sodipodi.sourceforge.net/DTD/sodipodi-0.dtd" xmlns="http://www.w3.org/2000/svg"
  xmlns:svg="http://www.w3.org/2000/svg" viewBox="136.33 349.8 1183.67 726.27">
  <defs id="defs6" />
  <sodipodi:namedview id="namedview4" pagecolor="#ffffff" bordercolor="#000000" borderopacity="0.25"
    inkscape:showpageshadow="2" inkscape:pageopacity="0.0" inkscape:pagecheckerboard="0" inkscape:deskcolor="#d1d1d1" />
  <g id="g8" inkscape:groupmode="layer" inkscape:label="ink_ext_XXXXXX"
    transform="matrix(1.3333333,0,0,-1.3333333,0,1440)">
    <g id="g10" transform="scale(0.1)">
      <path
        d="m 5703.81,4672.66 c 0,56.03 -36.51,93.39 -106.12,93.39 h -87.46 v -186.78 h 87.46 c 69.61,0 106.12,37.36 106.12,93.39 z m -295.45,190.17 h 202.06 c 118.02,0 196.96,-81.5 196.96,-190.17 0,-108.68 -78.94,-190.18 -196.96,-190.18 h -100.19 v -213.94 h -101.87 v 594.29"
        style="fill:#e74b1e;fill-opacity:1;fill-rule:nonzero;stroke:none" id="path12" />
      <path
        d="m 6152.93,4668.42 -35.65,-91.69 c 0,0 -18.69,9.33 -48.39,9.33 -61.99,0 -90,-54.33 -90,-54.33 v -263.19 h -101.88 v 402.43 h 96.78 v -58.59 c 0,0 34.81,68.77 109.53,68.77 36.5,0 69.61,-12.73 69.61,-12.73"
        style="fill:#e74b1e;fill-opacity:1;fill-rule:nonzero;stroke:none" id="path14" />
      <path
        d="m 6490.84,4469.75 c 0,62.83 -42.44,116.31 -111.21,116.31 -68.77,0 -111.23,-53.48 -111.23,-116.31 0,-62.83 42.46,-116.31 111.23,-116.31 68.77,0 111.21,53.48 111.21,116.31 z m 103.57,0 c 0,-118.01 -95.07,-211.4 -214.78,-211.4 -119.71,0 -214.81,93.39 -214.81,211.4 0,118.86 95.1,211.4 214.81,211.4 119.71,0 214.78,-92.54 214.78,-211.4"
        style="fill:#e74b1e;fill-opacity:1;fill-rule:nonzero;stroke:none" id="path16" />
      <path
        d="m 6951.86,4530.03 c 0,0 -28.87,56.03 -95.94,56.03 -68.77,0 -110.37,-50.08 -110.37,-116.31 0,-66.22 41.6,-116.31 110.37,-116.31 66.22,0 95.94,56.03 95.94,56.03 z m -113.77,-271.68 c -104.43,0 -196.12,87.45 -196.12,211.4 0,123.95 91.69,211.4 196.12,211.4 84.05,0 121.4,-62.83 121.4,-62.83 v 52.65 h 94.24 v -405.83 c 0,-140.08 -103.57,-202.06 -216.48,-202.06 -115.47,0 -191.04,76.41 -191.04,76.41 l 57.74,78.11 c 0,0 56.03,-59.44 133.3,-59.44 78.94,0 114.61,43.3 114.61,103.59 v 48.39 c -13.59,-16.99 -50.1,-51.79 -113.77,-51.79"
        style="fill:#e74b1e;fill-opacity:1;fill-rule:nonzero;stroke:none" id="path18" />
      <path
        d="m 7431.54,4668.42 -35.66,-91.69 c 0,0 -18.67,9.33 -48.39,9.33 -61.98,0 -89.99,-54.33 -89.99,-54.33 v -263.19 h -101.87 v 402.43 h 96.77 v -58.59 c 0,0 34.81,68.77 109.52,68.77 36.52,0 69.62,-12.73 69.62,-12.73"
        style="fill:#e74b1e;fill-opacity:1;fill-rule:nonzero;stroke:none" id="path20" />
      <path
        d="m 7725.29,4389.94 v 41.6 c 0,0 -36.5,20.38 -91.68,20.38 -31.41,0 -74.71,-13.58 -74.71,-56.88 0,-42.45 41.6,-51.79 73.01,-51.79 61.13,0 93.38,46.69 93.38,46.69 z m 101.9,140.94 v -262.34 h -94.25 v 50.93 c 0,0 -41.59,-61.12 -132.44,-61.12 -75.56,0 -145.19,49.24 -145.19,134.99 0,77.26 70.47,133.29 157.92,133.29 73.86,0 112.06,-28.87 112.06,-28.87 v 22.93 c 0,52.64 -50.93,69.62 -86.59,69.62 -58.58,0 -120.56,-29.71 -120.56,-29.71 l -33.1,84.05 c 0,0 74.71,36.5 158.75,36.5 115.47,0 183.4,-58.58 183.4,-150.27"
        style="fill:#e74b1e;fill-opacity:1;fill-rule:nonzero;stroke:none" id="path22" />
      <path
        d="m 8536.95,4527.48 v -258.94 h -101.88 v 232.62 c 0,55.19 -21.22,84.9 -72.16,84.9 -53.5,0 -78.96,-51.78 -78.96,-51.78 v -265.74 h -101.88 v 232.62 c 0,55.19 -21.23,84.9 -72.17,84.9 -53.48,0 -78.96,-51.78 -78.96,-51.78 v -265.74 h -101.88 v 402.43 h 95.1 v -58.59 c 0,0 36.5,68.77 118.85,68.77 96.79,0 124.8,-70.47 124.8,-70.47 0,0 33.97,70.47 128.21,70.47 81.5,0 140.93,-56.88 140.93,-153.67"
        style="fill:#e74b1e;fill-opacity:1;fill-rule:nonzero;stroke:none" id="path24" />
      <path
        d="m 1262.49,7414.37 14.21,3.9 h 17.77 l 15.99,-3.9 h 16 l 19.55,1.95 h 31.98 l 19.54,1.95 16,5.84 17.76,7.79 14.22,11.68 7.11,17.53 8.88,15.58 7.11,15.59 3.55,23.36 3.56,15.59 v 58.42 l 1.78,44.8 v 17.53 l 1.77,19.47 -5.33,17.53 -1.78,19.48 -5.33,23.37 -3.55,13.63 -10.66,17.53 -10.66,13.63 -14.22,13.63 -14.21,9.75 -16,5.84 h -17.76 l -37.32,1.94 h -12.44 l -33.76,3.9 -21.32,-3.9 -14.22,1.95 -19.54,1.95 -15.99,-23.37 1.77,-17.53 1.78,-21.42 -3.55,-38.95 3.55,-17.53 v -23.37 l -3.55,-19.48 v -19.48 l 3.55,-37 v -21.43 l -3.55,-21.42 1.77,-15.58 1.78,-23.37 -1.78,-15.58 -1.77,-23.37 v -15.58 l 1.77,-23.37 17.77,-17.53 z m -167.03,-753.72 -19.55,1.95 -33.76,7.79 -12.44,15.58 -7.1,37 v 21.43 l 3.55,15.58 v 40.9 l -3.55,19.47 1.77,19.48 -1.77,17.53 1.77,19.48 1.78,21.42 -3.55,21.42 v 19.48 l 1.77,19.47 -1.77,17.53 1.77,19.48 -1.77,21.42 3.55,17.53 -1.78,21.42 -1.77,19.48 v 19.48 l 3.55,17.52 -3.55,17.53 1.77,23.37 v 19.48 l 1.78,17.53 -1.78,17.53 -1.77,21.42 1.77,19.47 1.78,21.43 -3.55,15.58 v 38.95 l 1.77,23.37 1.78,19.48 v 35.06 l -1.78,23.36 v 17.53 l 1.78,21.43 v 54.53 l -3.55,19.47 3.55,19.48 -3.55,19.48 1.77,23.37 v 19.48 l -1.77,15.58 3.55,23.37 -1.78,15.58 1.78,23.37 -3.55,17.53 3.55,17.52 v 21.43 l -3.55,17.52 1.77,23.38 v 35.06 l -1.77,19.47 v 38.96 l 3.55,19.47 -3.55,42.84 1.77,19.48 3.56,35.06 15.99,15.58 31.98,5.84 h 17.77 l 19.55,1.95 39.09,-3.9 h 14.22 l 21.32,3.9 h 55.08 l 14.22,-3.9 19.54,1.95 17.77,-1.95 h 17.77 l 40.87,1.95 14.21,-1.95 19.55,-1.94 16,-1.95 39.09,-7.79 15.99,-3.9 17.77,-5.84 17.77,-1.95 17.76,-9.74 12.45,-9.73 19.54,-9.74 10.66,-9.74 17.77,-11.69 12.44,-13.63 10.66,-9.73 12.44,-19.48 8.88,-11.69 12.44,-17.53 7.11,-15.58 8.89,-21.42 5.32,-15.58 5.34,-19.48 7.1,-15.58 1.78,-19.48 3.55,-21.42 1.78,-21.42 3.55,-17.53 5.34,-21.42 1.77,-21.42 v -17.53 l -3.55,-19.48 1.78,-38.95 -1.78,-23.37 3.55,-15.58 -3.55,-23.37 -1.78,-17.53 -5.33,-17.53 v -19.48 l -3.56,-21.42 -5.32,-19.48 -3.56,-19.47 -8.88,-21.43 -5.33,-13.63 -16,-35.05 -10.66,-17.53 -7.11,-19.48 -10.65,-13.63 -12.45,-15.58 -17.76,-9.74 -14.22,-9.74 -15.99,-11.69 -14.21,-9.73 -17.78,-11.69 -14.21,-5.84 -8.88,-25.32 7.1,-13.63 7.11,-17.53 7.11,-23.38 3.55,-17.52 7.11,-17.53 5.33,-19.48 10.66,-13.63 8.89,-40.9 8.88,-17.53 7.11,-15.58 5.33,-21.42 5.33,-13.63 10.66,-17.53 5.33,-19.48 8.89,-17.53 5.33,-21.42 5.33,-19.48 7.1,-13.63 8.89,-21.43 5.33,-15.57 3.55,-19.48 7.11,-15.58 7.11,-21.43 10.66,-19.47 7.11,-25.32 -1.78,-27.27 -12.43,-13.63 -14.22,-9.74 -28.43,-5.84 h -19.55 l -15.99,1.95 -15.99,3.89 -14.22,-3.89 -19.54,3.89 -14.22,-5.84 -37.31,9.74 -19.55,35.05 -3.55,17.53 -7.11,19.48 -7.11,13.63 -7.11,21.43 -5.33,15.58 -10.66,17.53 -3.55,19.47 -8.89,19.48 -3.55,17.53 -7.11,17.52 -17.77,40.9 -3.55,15.58 -7.11,15.58 -5.33,23.37 -7.11,15.59 -10.66,19.47 -1.78,19.48 -7.1,13.63 -7.11,21.42 -10.66,19.48 -3.56,19.48 -7.1,13.63 -7.11,21.42 -7.11,19.48 -7.11,13.63 -26.65,23.37 -15.99,-25.32 -3.55,-15.58 3.55,-19.47 -1.78,-21.42 1.78,-19.48 -3.55,-19.47 1.77,-23.38 -1.77,-19.47 3.55,-15.58 -1.78,-19.48 1.78,-21.43 -3.55,-21.42 1.77,-19.47 v -21.43 l -1.77,-17.52 v -21.43 l 3.55,-15.58 -1.78,-21.42 1.78,-23.37 -3.55,-15.58 v -21.43 l 3.55,-21.42 v -17.53 l -3.55,-21.42 -5.34,-40.9 -12.43,-13.64 -35.54,-5.84 -19.55,5.84 h -19.55 l -37.31,-5.84"
        style="fill:#20214e;fill-opacity:1;fill-rule:nonzero;stroke:none" id="path26" />
      <path
        d="m 2257.53,6641.18 -17.76,3.89 -17.77,-1.95 -15.99,5.85 -19.55,3.89 -15.99,5.84 -17.77,5.85 -12.44,11.68 -15.99,5.85 -14.22,13.63 -19.54,9.73 -12.44,9.75 -39.1,42.84 -8.88,15.58 -14.22,9.74 -8.88,21.42 -8.88,13.64 -8.89,15.57 -10.66,19.48 -5.33,17.53 -5.33,21.42 -10.66,13.64 -1.78,21.42 -14.21,37.01 -1.78,23.37 -1.78,15.58 -1.78,19.48 -3.55,23.36 -1.77,21.43 -1.78,17.52 1.78,17.53 -3.56,42.85 v 21.43 l 1.78,19.47 1.78,15.58 -3.56,19.48 3.56,21.42 -3.56,19.48 1.78,19.47 1.78,21.42 -3.56,17.53 1.78,21.43 -1.78,15.58 3.56,23.37 -1.78,15.58 1.78,21.43 -3.56,21.42 1.78,19.48 1.78,17.52 v 21.43 l -3.56,17.52 v 23.37 l 3.56,17.53 -1.78,17.53 1.78,19.48 -1.78,19.47 v 40.91 l 1.78,19.47 -1.78,21.42 1.78,17.53 -3.56,19.48 1.78,23.37 v 37 l 1.78,17.53 -1.78,23.37 1.78,19.48 -1.78,19.48 -1.78,17.53 v 21.42 l 1.78,15.58 1.78,23.37 -3.56,17.53 7.11,42.84 12.44,9.74 37.31,7.79 h 17.77 l 15.99,1.95 19.55,-3.9 19.54,3.9 21.33,-3.9 35.53,-1.94 12.44,-17.53 7.11,-37.01 -3.55,-23.37 v -19.47 l 1.78,-15.58 v -62.33 l -1.78,-15.58 v -21.42 l 3.55,-19.48 -1.77,-19.48 -1.78,-21.42 3.55,-15.58 -3.55,-23.37 v -19.47 l 1.78,-21.43 1.77,-15.58 -1.77,-23.37 -1.78,-19.48 v -56.48 l 1.78,-21.42 v -15.58 l 1.77,-21.42 -3.55,-38.95 3.55,-17.53 -1.77,-23.37 -1.78,-17.53 v -38.96 l 3.55,-21.42 v -19.48 l -1.77,-17.53 v -19.47 l 1.77,-23.37 -3.55,-19.47 3.55,-15.59 -3.55,-19.47 v -23.37 l 3.55,-15.58 v -60.38 l -1.77,-21.43 v -19.47 l 5.32,-17.53 1.78,-17.53 5.33,-19.47 7.11,-38.95 10.66,-17.53 3.56,-13.64 10.66,-19.47 12.44,-13.64 10.66,-15.58 12.44,-13.63 15.99,-9.74 12.44,-3.89 17.76,-5.84 31.99,-3.9 19.55,9.74 12.43,3.89 12.44,9.74 14.22,11.69 10.66,13.63 12.43,17.53 8.89,15.58 7.11,15.58 10.66,15.58 5.33,19.48 1.78,19.47 3.55,17.53 5.33,17.53 3.56,21.42 -1.78,21.42 v 19.48 l 3.55,37 1.78,23.38 -3.55,15.58 v 21.42 l 1.77,19.48 v 21.42 l 1.78,15.58 -3.55,21.43 1.77,21.42 v 17.53 l -1.77,21.42 1.77,19.48 v 37 l -1.77,19.48 v 21.42 l 1.77,21.43 -1.77,15.58 3.55,23.37 v 60.37 l -3.55,19.48 1.77,19.47 -1.77,19.48 3.55,15.58 -3.55,21.43 3.55,19.47 v 37.01 l -1.78,19.47 1.78,23.37 -3.55,21.42 1.77,15.58 -1.77,19.48 1.77,19.48 v 42.85 l 1.78,15.58 v 40.9 l -1.78,17.52 1.78,23.37 v 38.95 l 15.99,11.69 33.76,9.74 h 60.42 l 33.76,-3.9 37.32,-3.89 12.43,-17.53 5.33,-35.06 1.78,-19.47 -1.78,-21.42 v -17.53 l 3.56,-19.48 -3.56,-21.42 v -37.01 l 1.78,-23.37 -1.78,-19.48 1.78,-17.53 -1.78,-19.47 1.78,-19.48 v -19.47 l 1.78,-23.37 -1.78,-15.58 1.78,-21.42 -3.56,-19.48 3.56,-21.43 -1.78,-15.58 v -21.42 l 1.78,-21.42 -3.56,-19.48 v -17.53 l 3.56,-19.47 -3.56,-23.37 3.56,-15.58 -3.56,-23.38 3.56,-19.47 v -17.53 l -3.56,-19.48 v -19.47 l 3.56,-17.53 -1.78,-23.37 v -40.9 l -1.78,-17.53 v -40.9 l 1.78,-15.58 -1.78,-19.47 1.78,-23.38 -1.78,-15.58 v -40.9 l -1.77,-23.37 v -38.95 l -5.33,-19.47 -1.78,-17.53 v -21.43 l -3.55,-17.53 -8.89,-19.47 -5.33,-15.58 -1.78,-19.48 -5.33,-17.53 -8.88,-23.37 -5.33,-15.58 -8.89,-17.53 -10.66,-19.47 -10.66,-13.64 -7.11,-15.58 -12.44,-17.52 -14.21,-13.64 -10.66,-11.69 -12.44,-15.58 -15.99,-15.57 -12.44,-7.8 -12.44,-15.58 -15.99,-5.84 -19.55,-9.74 -15.99,-11.68 -14.22,-1.95 -14.21,-5.84 -21.32,-7.79 -17.77,-3.9 -35.54,-3.89 h -31.99"
        style="fill:#20214e;fill-opacity:1;fill-rule:nonzero;stroke:none" id="path28" />
      <path
        d="m 3108.67,7414.37 14.22,3.9 h 17.76 l 16,-3.9 h 15.99 l 19.55,1.95 h 31.98 l 19.55,1.95 15.99,5.84 17.77,7.79 14.21,11.68 7.11,17.53 8.89,15.58 7.1,15.59 3.55,23.36 3.56,15.59 v 58.42 l 1.78,44.8 v 17.53 l 1.77,19.47 -5.33,17.53 -1.78,19.48 -5.33,23.37 -3.55,13.63 -10.66,17.53 -10.66,13.63 -14.22,13.63 -14.21,9.75 -15.99,5.84 h -17.77 l -37.32,1.94 h -12.44 l -33.76,3.9 -21.32,-3.9 -14.22,1.95 -19.54,1.95 -15.99,-23.37 1.77,-17.53 1.78,-21.42 -3.55,-38.95 3.55,-17.53 v -23.37 l -3.55,-19.48 v -19.48 l 3.55,-37 v -21.43 l -3.55,-21.42 1.77,-15.58 1.78,-23.37 -1.78,-15.58 -1.77,-23.37 v -15.58 l 1.77,-23.37 17.77,-17.53 z m -167.03,-753.72 -19.55,1.95 -33.76,7.79 -12.44,15.58 -7.1,37 v 21.43 l 3.55,15.58 v 40.9 l -3.55,19.47 1.78,19.48 -1.78,17.53 1.78,19.48 1.77,21.42 -3.55,21.42 v 19.48 l 1.78,19.47 -1.78,17.53 1.78,19.48 -1.78,21.42 3.55,17.53 -1.77,21.42 -1.78,19.48 v 19.48 l 3.55,17.52 -3.55,17.53 1.78,23.37 v 19.48 l 1.77,17.53 -1.77,17.53 -1.78,21.42 1.78,19.47 1.77,21.43 -3.55,15.58 v 38.95 l 1.78,23.37 1.77,19.48 v 35.06 l -1.77,23.36 v 17.53 l 1.77,21.43 v 54.53 l -3.55,19.47 3.55,19.48 -3.55,19.48 1.78,23.37 v 19.48 l -1.78,15.58 3.55,23.37 -1.77,15.58 1.77,23.37 -3.55,17.53 3.55,17.52 v 21.43 l -3.55,17.52 1.78,23.38 v 35.06 l -1.78,19.47 v 38.96 l 3.55,19.47 -3.55,42.84 1.78,19.48 3.55,35.06 15.99,15.58 31.98,5.84 h 17.77 l 19.55,1.95 39.09,-3.9 h 14.22 l 21.32,3.9 h 55.09 l 14.21,-3.9 19.55,1.95 17.76,-1.95 h 17.77 l 40.87,1.95 14.22,-1.95 19.54,-1.94 16,-1.95 39.09,-7.79 15.99,-3.9 17.77,-5.84 17.77,-1.95 17.77,-9.74 12.44,-9.73 19.54,-9.74 10.66,-9.74 17.77,-11.69 12.44,-13.63 10.66,-9.73 12.44,-19.48 8.89,-11.69 12.43,-17.53 7.11,-15.58 8.89,-21.42 5.33,-15.58 5.33,-19.48 7.11,-15.58 1.77,-19.48 3.55,-21.42 1.78,-21.42 3.56,-17.53 5.33,-21.42 1.78,-21.42 v -17.53 l -3.56,-19.48 1.78,-38.95 -1.78,-23.37 3.56,-15.58 -3.56,-23.37 -1.78,-17.53 -5.33,-17.53 v -19.48 l -3.55,-21.42 -5.33,-19.48 -3.56,-19.47 -8.88,-21.43 -5.33,-13.63 -16,-35.05 -10.65,-17.53 -7.11,-19.48 -10.66,-13.63 -12.44,-15.58 -17.77,-9.74 -14.22,-9.74 -15.99,-11.69 -14.21,-9.73 -17.78,-11.69 -14.21,-5.84 -8.88,-25.32 7.1,-13.63 7.11,-17.53 7.11,-23.38 3.55,-17.52 7.11,-17.53 5.33,-19.48 10.66,-13.63 8.89,-40.9 8.88,-17.53 7.11,-15.58 5.33,-21.42 5.33,-13.63 10.66,-17.53 5.34,-19.48 8.88,-17.53 5.33,-21.42 5.33,-19.48 7.11,-13.63 8.88,-21.43 5.33,-15.57 3.55,-19.48 7.11,-15.58 7.11,-21.43 10.66,-19.47 7.11,-25.32 -1.78,-27.27 -12.43,-13.63 -14.22,-9.74 -28.43,-5.84 h -19.54 l -16,1.95 -15.99,3.89 -14.22,-3.89 -19.54,3.89 -14.22,-5.84 -37.31,9.74 -19.55,35.05 -3.55,17.53 -7.11,19.48 -7.11,13.63 -7.1,21.43 -5.34,15.58 -10.65,17.53 -3.56,19.47 -8.89,19.48 -3.55,17.53 -7.11,17.52 -17.76,40.9 -3.56,15.58 -7.11,15.58 -5.33,23.37 -7.1,15.59 -10.67,19.47 -1.78,19.48 -7.1,13.63 -7.11,21.42 -10.66,19.48 -3.55,19.48 -7.11,13.63 -7.11,21.42 -7.11,19.48 -7.11,13.63 -26.65,23.37 -15.99,-25.32 -3.55,-15.58 3.55,-19.47 -1.78,-21.42 1.78,-19.48 -3.55,-19.47 1.77,-23.38 -1.77,-19.47 3.55,-15.58 -1.78,-19.48 1.78,-21.43 -3.55,-21.42 1.77,-19.47 v -21.43 l -1.77,-17.52 v -21.43 l 3.55,-15.58 -1.78,-21.42 1.78,-23.37 -3.55,-15.58 v -21.43 l 3.55,-21.42 v -17.53 l -3.55,-21.42 -5.33,-40.9 -12.44,-13.64 -35.54,-5.84 -19.55,5.84 h -19.54 l -37.32,-5.84"
        style="fill:#20214e;fill-opacity:1;fill-rule:nonzero;stroke:none" id="path30" />
      <path
        d="m 4023.75,7165.08 h 16 l 15.99,3.89 h 37.32 l 17.77,-1.94 h 19.54 l 10.66,17.53 v 21.42 l -5.33,19.47 -1.77,15.59 -5.34,19.47 v 23.37 l -3.55,19.47 v 15.59 l -5.33,19.47 -1.78,19.48 -1.77,21.42 -5.33,17.53 -3.56,19.48 v 21.42 l -5.33,17.53 -1.78,23.37 -5.33,15.58 -1.77,21.42 -3.56,17.53 -1.78,21.43 -5.33,21.42 1.78,17.53 -5.33,17.53 -5.33,3.89 -1.78,-19.47 -1.77,-21.43 -5.34,-17.53 -5.33,-23.37 1.78,-17.53 -7.11,-17.52 -3.55,-23.37 1.78,-15.58 -3.56,-23.38 -3.55,-17.52 -3.56,-21.43 -5.32,-15.58 -1.78,-19.48 v -23.37 l -3.56,-15.58 -5.33,-38.95 -10.66,-42.84 1.78,-19.48 -5.33,-17.53 -5.33,-21.42 z m -167.02,-504.43 -14.22,1.95 h -60.42 l -35.53,5.84 -10.66,7.79 -5.33,17.53 -1.78,37 3.55,19.48 5.34,19.48 v 21.42 l 5.32,15.58 1.78,23.37 1.78,15.58 1.77,19.48 3.56,17.53 7.11,21.42 v 19.47 l 1.77,17.53 3.56,21.43 1.77,15.58 5.34,21.42 v 19.48 l 5.33,17.53 1.77,19.47 1.78,21.43 3.55,15.58 3.56,19.47 1.77,19.48 5.34,23.37 1.77,19.47 5.33,13.64 v 19.48 l 5.33,21.42 1.78,21.42 3.55,38.95 5.34,13.63 3.55,19.48 3.55,21.43 v 17.52 l 5.33,19.48 3.56,19.48 1.78,19.47 1.77,17.53 v 23.37 l 7.11,15.58 1.77,19.48 3.56,21.42 v 19.48 l 3.55,17.53 1.78,19.47 3.56,17.53 5.32,23.37 v 19.48 l 1.78,17.53 3.56,15.58 3.55,19.47 1.78,21.43 7.1,17.53 3.56,23.37 1.77,17.53 v 17.52 l 5.34,19.48 v 19.47 l 5.33,21.43 v 17.52 l 3.55,19.48 5.33,17.53 1.78,17.53 3.55,23.37 3.56,19.48 3.55,17.53 7.11,33.1 14.21,9.74 28.43,5.84 h 19.55 l 15.99,3.9 h 19.54 l 17.77,-3.9 17.77,3.9 h 35.54 l 17.77,-3.9 15.99,3.9 19.55,-3.9 14.21,3.9 h 21.33 l 28.43,-5.84 15.99,-11.69 5.33,-33.11 7.11,-23.37 v -15.58 l 5.33,-23.37 v -15.58 l 7.11,-38.96 1.78,-17.52 5.32,-23.37 3.56,-19.48 -1.78,-17.53 7.11,-21.42 3.55,-17.53 v -19.47 l 1.78,-17.53 7.11,-19.48 1.77,-21.42 v -17.53 l 5.34,-19.48 v -15.58 l 5.33,-19.47 1.78,-19.48 1.77,-23.37 3.55,-17.53 5.33,-15.58 3.56,-38.95 3.55,-21.42 1.78,-19.48 3.55,-21.42 5.33,-13.64 3.56,-23.37 1.77,-19.48 v -17.52 l 1.78,-21.43 7.11,-19.48 1.77,-17.52 v -15.58 l 7.11,-19.48 v -23.37 l 3.56,-19.47 1.78,-19.48 3.55,-17.53 5.33,-17.53 v -17.53 l 1.77,-23.37 5.34,-17.52 1.77,-19.48 1.78,-17.53 7.11,-17.53 v -19.47 l 5.33,-23.38 V 6982 l 5.33,-19.47 1.78,-19.48 5.32,-21.42 v -19.48 l 1.78,-15.58 1.78,-23.37 7.11,-17.53 3.55,-17.53 -1.77,-19.47 10.65,-38.95 v -17.53 l 5.34,-19.48 1.77,-37 -10.66,-19.48 -8.88,-9.74 -37.32,-5.84 h -39.09 l -17.77,5.84 -17.76,-3.89 h -19.56 l -33.76,7.79 -14.21,7.79 -5.33,37.01 -3.56,15.57 -7.1,23.38 -1.78,17.53 -1.78,19.47 -7.1,19.48 -3.56,38.95 -3.55,19.47 -5.33,19.48 -3.56,19.47 -1.77,17.53 -19.55,21.43 -17.77,-1.95 -19.54,1.95 -14.22,-1.95 -21.32,3.9 -17.77,-1.95 h -14.22 l -17.77,-1.95 -15.99,3.9 -17.77,-3.9 H 3990 l -23.11,-19.48 -3.55,-19.47 -3.55,-35.06 -1.78,-19.48 -5.33,-21.42 -3.55,-17.53 -1.78,-21.42 -1.78,-19.47 -5.33,-19.48 -1.77,-21.43 -7.11,-17.52 -8.89,-37.01 -10.66,-7.79 -31.99,-5.84 -23.09,-1.95"
        style="fill:#20214e;fill-opacity:1;fill-rule:nonzero;stroke:none" id="path32" />
      <path
        d="m 4714.95,6660.65 -15.99,1.95 h -16 l -39.09,5.84 -8.88,17.53 -7.11,35.06 v 60.37 l 3.56,19.48 -3.56,17.53 v 38.95 l 3.56,23.37 -3.56,15.58 v 58.43 l 1.78,23.37 -1.78,19.47 v 15.58 l 3.56,23.38 v 37 l -3.56,17.53 3.56,21.42 v 17.53 l -3.56,21.43 v 37 l 1.78,21.42 -1.78,21.42 3.56,15.59 -1.78,21.42 -1.78,19.48 v 19.47 l 3.56,17.53 -1.78,21.43 v 21.42 l 1.78,15.58 -3.56,23.37 3.56,17.53 v 17.53 l -1.78,23.37 v 19.47 l -1.78,15.58 v 19.48 l 3.56,23.37 v 15.58 l -3.56,19.48 1.78,19.47 1.78,23.38 -3.56,19.47 3.56,19.48 -3.56,15.58 3.56,21.42 -1.78,17.53 v 38.95 l -1.78,19.47 v 19.48 l 1.78,21.43 v 21.42 l -1.78,17.53 1.78,19.48 v 19.47 l 1.78,19.48 v 19.47 l -3.56,38.95 3.56,40.9 15.99,9.74 35.53,9.74 17.77,-3.9 21.33,3.9 37.31,-3.9 19.55,3.9 33.76,-9.74 15.99,-13.63 5.33,-37.01 v -17.53 l -3.55,-23.36 v -19.48 l 1.78,-17.53 v -60.37 l -1.78,-17.53 3.55,-19.48 v -17.53 l -1.77,-19.47 1.77,-21.43 -1.77,-21.42 1.77,-19.48 v -75.95 l -3.55,-17.53 3.55,-17.53 -1.77,-23.37 1.77,-15.58 -1.77,-19.48 1.77,-21.42 v -17.53 l -3.55,-19.48 v -42.84 l 3.55,-38.95 -1.77,-17.53 v -19.48 l 1.77,-19.47 v -17.53 l -3.55,-19.48 v -19.47 l 3.55,-38.96 -1.77,-19.47 v -19.48 l 1.77,-17.53 v -23.37 l -1.77,-15.58 -1.78,-19.47 3.55,-23.37 v -17.53 l -1.77,-21.43 v -37 l 1.77,-17.53 -1.77,-19.48 v -19.47 l 1.77,-19.48 v -38.95 l 16,-19.48 15.99,1.95 21.32,-3.89 15.99,1.94 17.77,1.95 h 19.55 l 19.54,-1.95 19.55,1.95 h 17.77 l 14.21,-1.95 19.55,1.95 h 21.32 l 17.77,-3.89 33.76,-5.84 15.99,-13.64 1.78,-37 v -60.38 l 3.56,-25.32 -3.56,-17.53 -3.55,-40.89 -12.44,-11.69 -35.54,-9.74 -19.54,5.84 -35.55,-5.84 -14.21,1.95 h -92.4 l -14.22,3.89 -33.76,-5.84 -17.76,1.95 -21.33,-1.95 h -67.52 l -17.77,5.84 -21.32,-5.84"
        style="fill:#20214e;fill-opacity:1;fill-rule:nonzero;stroke:none" id="path34" />
      <path
        d="m 1351.33,5032.96 -33.76,3.9 -17.77,-1.95 -35.53,7.79 -16,1.95 -19.54,3.89 -17.77,9.74 -12.44,3.9 -15.99,7.78 -15.99,11.69 -14.22,9.74 -15.99,9.73 -14.22,15.59 -8.88,15.58 -26.65,29.21 -7.11,11.68 -7.11,17.53 -8.88,15.59 -8.89,17.53 -8.88,23.37 -1.78,17.53 -8.89,19.47 -1.77,15.59 -1.78,21.41 -1.78,15.59 -5.33,23.37 1.78,19.47 v 37.01 l -3.55,21.42 3.55,19.48 -1.78,15.58 1.78,21.42 -1.78,17.53 1.78,23.37 -3.55,17.53 v 19.48 l 3.55,19.47 -1.78,19.48 1.78,19.47 v 21.43 l -3.55,19.47 3.55,19.48 -1.78,19.48 1.78,15.57 -1.78,23.38 v 17.53 l -1.77,21.42 v 15.58 l 3.55,23.37 -3.55,17.53 v 21.42 l 1.77,19.48 -1.77,15.58 3.55,23.37 -1.78,15.58 -1.77,19.48 1.77,23.37 -1.77,17.53 1.77,19.47 1.78,17.53 -1.78,21.43 v 38.95 l -1.77,17.53 7.1,19.47 -1.77,19.48 7.1,19.47 3.56,19.48 5.33,23.37 7.11,13.63 5.33,23.38 8.88,15.57 10.66,19.48 10.67,15.58 8.88,13.63 14.21,13.64 12.44,15.58 8.89,11.68 47.97,35.06 14.22,7.79 15.99,11.69 17.77,3.89 15.99,7.79 16,3.9 17.76,7.79 19.55,1.95 14.21,-1.95 40.87,1.95 15.99,1.94 14.22,-5.84 h 21.33 l 17.76,-5.84 17.77,-3.9 15.99,-7.79 28.44,-19.47 17.77,-5.85 14.21,-13.63 15.99,-11.68 8.89,-9.75 14.21,-13.63 10.67,-15.58 12.43,-13.63 10.66,-19.47 10.67,-13.64 8.88,-17.53 8.88,-15.58 7.11,-21.42 1.78,-15.58 8.88,-17.53 3.56,-19.48 1.77,-21.42 5.34,-21.42 1.77,-15.58 5.33,-19.48 -1.78,-21.42 -5.32,-23.38 -8.89,-13.63 -39.09,-5.84 -15.99,-1.95 -19.55,3.89 -17.77,-1.94 -17.77,1.94 -17.77,-3.89 -35.54,3.89 -14.21,17.53 -7.11,37.01 -5.33,19.47 -3.55,23.38 -3.56,15.58 -8.88,21.42 -12.44,15.58 -10.66,15.58 -14.22,11.69 -15.99,7.79 -15.99,3.89 -35.54,1.95 -15.99,-7.79 -17.77,-9.74 -12.44,-11.69 -10.66,-7.78 -8.88,-17.53 -12.44,-17.53 -7.11,-13.64 -3.56,-21.42 -5.33,-19.47 v -15.58 l -1.77,-21.43 -3.55,-37 3.55,-23.37 -3.55,-15.58 1.77,-19.48 v -99.33 l -1.77,-21.42 v -58.43 l 3.55,-17.52 -1.78,-23.38 1.78,-15.58 v -40.9 l -1.78,-17.53 -1.77,-23.37 3.55,-21.42 -3.55,-19.48 1.77,-19.47 v -19.48 l 1.78,-17.53 -1.78,-19.47 -1.77,-17.53 1.77,-23.37 -1.77,-19.48 3.55,-15.58 -3.55,-42.85 1.77,-17.53 5.33,-19.48 1.78,-17.52 1.77,-19.48 10.67,-19.47 7.1,-15.59 10.67,-15.57 12.43,-11.69 16,-13.64 15.99,-7.78 17.77,-3.9 h 31.98 l 17.77,7.79 19.55,9.74 10.66,7.79 26.65,29.21 10.67,38.95 7.1,21.43 1.78,21.42 v 19.48 l -1.78,38.95 3.55,19.48 -3.55,17.53 -15.99,19.47 h -39.09 l -12.44,15.59 -3.55,40.89 -1.78,17.53 -1.78,23.37 3.56,17.53 -1.78,25.32 1.78,19.48 1.77,37 14.22,15.58 31.98,3.9 h 67.52 l 37.32,3.89 h 14.21 l 21.33,-3.89 h 15.99 l 15.99,1.94 37.32,-3.89 8.88,-17.53 7.11,-40.9 -1.78,-17.53 v -17.52 l 1.78,-23.38 -1.78,-17.53 3.56,-21.42 v -21.42 l -3.56,-19.48 3.56,-21.42 -3.56,-19.48 v -19.47 l 1.78,-19.48 -1.78,-38.95 1.78,-17.53 -3.56,-21.43 -7.1,-38.95 -1.78,-17.53 -3.55,-21.42 -10.67,-35.06 -7.1,-19.47 -8.89,-17.53 -10.66,-15.58 -5.33,-19.48 -14.21,-13.63 -8.89,-15.58 -10.66,-13.63 -12.44,-13.63 -15.99,-15.59 -12.44,-9.74 -14.22,-9.73 -31.98,-19.49 -17.77,-5.84 -14.21,-7.79 -39.09,-13.63 -17.77,1.95 -16,-5.84 -17.77,-1.95"
        style="fill:#20214e;fill-opacity:1;fill-rule:nonzero;stroke:none" id="path36" />
      <path
        d="m 2026.53,5054.38 -17.77,5.84 -19.54,-3.89 -15.99,3.89 h -21.33 l -31.98,1.96 -14.21,15.57 -3.56,38.96 -1.77,21.42 3.55,19.48 -1.78,17.53 1.78,21.42 -3.55,15.58 3.55,19.47 -3.55,19.48 1.77,21.42 v 17.53 l -1.77,19.48 v 19.47 l 3.55,23.37 -3.55,19.49 1.77,15.57 -1.77,21.43 3.55,19.48 -3.55,19.47 1.77,17.53 -1.77,21.42 v 21.42 l 1.77,15.58 -1.77,21.43 3.55,17.53 v 21.42 l -1.78,19.48 1.78,17.53 -1.78,21.42 v 21.42 l 1.78,17.53 -3.55,17.53 3.55,42.85 -1.78,17.52 -1.77,21.43 3.55,15.58 v 23.37 l -3.55,15.58 1.77,23.37 -1.77,15.58 1.77,19.48 v 19.48 l 1.78,19.47 -1.78,19.48 -1.77,21.42 1.77,19.48 v 40.89 l -1.77,17.53 v 60.38 l 1.77,15.58 v 23.37 l 1.78,15.58 -1.78,21.43 -1.77,17.53 3.55,19.47 -3.55,21.42 3.55,21.43 v 37 l -1.78,21.43 v 19.47 l 1.78,17.53 v 40.9 l 15.99,9.74 33.76,5.84 h 15.99 l 19.55,1.95 17.77,-1.95 h 17.77 l 15.99,1.95 h 21.33 l 14.21,-1.95 h 19.54 l 17.77,3.9 h 106.62 l 14.21,-1.95 15.99,1.95 21.33,-3.9 15.99,3.9 19.55,-3.9 h 14.21 l 17.77,1.95 35.54,-3.9 12.44,-15.58 8.88,-38.95 -1.77,-25.32 1.77,-15.58 -3.55,-23.37 3.55,-19.48 -1.77,-21.42 -5.34,-38.95 -15.99,-17.53 -33.76,-1.95 -15.99,1.95 -19.54,-3.9 h -35.55 l -17.77,1.95 -19.54,-1.95 -19.55,1.95 -17.77,-1.95 -17.76,3.9 -17.77,-1.95 h -15.99 l -21.33,-1.95 -15.99,-21.42 v -37.01 l 1.77,-21.42 -3.55,-19.47 1.78,-19.48 -1.78,-17.53 1.78,-19.47 -1.78,-21.43 1.78,-19.47 1.77,-21.43 -1.77,-17.53 v -17.52 l -1.78,-23.38 v -17.52 l 1.78,-17.53 1.77,-23.37 14.22,-17.53 21.33,1.95 17.76,-1.95 h 14.22 l 21.32,1.95 h 33.76 l 37.32,-5.84 12.44,-15.58 5.32,-37.01 -3.55,-37 3.55,-21.43 -3.55,-17.53 3.55,-19.47 -1.77,-13.63 -3.55,-38.96 -17.77,-13.63 -31.99,-7.79 h -37.31 l -14.22,1.95 h -21.32 l -14.21,1.95 -21.33,-1.95 -14.22,-21.43 v -38.95 l -3.55,-17.53 1.78,-19.48 1.77,-15.58 -3.55,-42.84 3.55,-17.53 -3.55,-21.42 v -37.01 l 3.55,-19.48 v -37 l -3.55,-17.53 v -21.42 l 3.55,-17.53 19.55,3.89 14.22,-1.94 h 17.77 l 19.54,1.94 15.99,1.96 h 19.55 l 17.77,-3.9 19.54,3.9 17.77,-3.9 15.99,1.94 19.56,1.96 h 37.31 l 37.31,-5.85 10.66,-17.53 3.56,-38.95 3.55,-19.48 v -21.42 l -3.55,-23.38 v -17.52 l 1.78,-19.48 -3.56,-40.9 -14.21,-17.53 h -33.76 l -17.78,-3.89 h -19.54 l -19.55,3.89 -14.21,-3.89 -19.55,3.89 -19.54,-3.89 h -51.53 l -17.77,-1.95 h -14.22 l -21.32,1.95 h -14.22 l -21.32,3.89 -12.44,-3.89 h -19.54 l -17.77,-1.95 h -16"
        style="fill:#20214e;fill-opacity:1;fill-rule:nonzero;stroke:none" id="path38" />
      <path
        d="m 2696.42,5054.38 -39.1,9.74 -12.43,13.63 v 37.01 l -3.56,19.48 3.56,21.41 -1.78,21.43 1.78,19.48 -3.56,17.52 v 21.43 l 1.78,19.48 v 17.52 l 1.78,19.48 v 40.9 l -3.56,15.58 1.78,21.42 v 17.53 l -1.78,23.38 v 15.58 l 3.56,19.47 v 19.48 l -1.78,23.37 v 15.58 l 1.78,19.47 -3.56,19.48 1.78,23.37 1.78,15.58 -1.78,19.48 -1.78,23.37 v 35.06 l 3.56,21.42 v 17.53 l -3.56,23.37 v 19.48 l 1.78,19.47 -1.78,17.53 v 19.48 l 3.56,17.52 v 23.38 l -3.56,19.47 1.78,15.58 1.78,19.48 -3.56,19.48 3.56,19.47 -3.56,21.43 1.78,21.42 v 15.58 l -1.78,23.37 1.78,17.53 v 99.33 l -1.78,15.58 1.78,19.47 1.78,21.43 -1.78,21.42 v 17.53 l -1.78,21.42 v 15.58 l 1.78,23.37 -1.78,15.58 3.56,21.43 -3.56,17.53 5.34,58.43 14.21,13.63 35.54,9.74 15.99,-1.95 14.22,1.95 17.76,-1.95 14.22,-1.95 17.77,1.95 37.31,-7.79 17.77,-37.01 5.33,-15.58 5.33,-19.47 10.66,-15.58 5.34,-21.43 5.33,-17.53 7.1,-13.63 5.33,-19.47 5.34,-17.53 5.32,-21.43 10.67,-15.58 1.77,-17.53 10.66,-21.42 5.34,-13.63 7.1,-21.43 5.33,-19.47 10.67,-35.06 14.21,-33.11 7.11,-19.47 5.33,-15.58 7.11,-19.48 7.11,-21.43 3.55,-13.63 15.99,-35.05 5.33,-23.38 7.11,-13.63 3.55,-21.42 10.66,-15.58 5.33,-21.43 7.11,-15.58 1.78,-17.52 15.99,-35.06 3.56,-17.53 8.88,-21.42 7.11,-13.64 5.33,-21.42 5.33,-17.53 5.33,-15.58 h 7.11 l 1.78,17.53 v 60.37 l -1.78,19.48 v 21.42 l 3.55,17.53 -1.77,19.48 1.77,21.42 v 15.58 l -3.55,19.48 3.55,21.42 -1.77,21.43 -1.78,19.47 v 19.48 l 1.78,19.47 v 35.06 l -1.78,21.42 1.78,19.48 1.77,21.42 -1.77,19.48 -1.78,15.58 1.78,19.47 1.77,23.38 -3.55,17.53 v 19.47 l 1.78,17.53 -1.78,21.42 v 40.9 l 3.55,15.58 -3.55,19.48 v 23.37 l 1.78,15.58 -1.78,23.37 v 19.48 l 5.33,35.06 14.21,13.63 51.53,7.79 21.33,1.95 h 31.98 l 17.77,-1.95 39.09,-7.79 8.89,-11.69 8.88,-37 -3.55,-19.48 v -19.47 l 1.77,-21.43 v -17.53 l 1.78,-23.37 -1.78,-17.53 1.78,-19.47 -1.78,-17.53 1.78,-21.42 -1.78,-17.53 v -58.43 l -1.77,-19.47 1.77,-23.38 v -17.53 l -1.77,-17.53 v -23.37 l 3.55,-17.52 -3.55,-21.43 1.77,-19.47 -1.77,-15.58 3.55,-23.37 v -17.53 l -3.55,-17.53 1.77,-23.37 -1.77,-15.58 3.55,-21.43 -3.55,-19.47 1.77,-19.48 -1.77,-17.53 1.77,-21.42 v -17.53 l -1.77,-23.37 1.77,-17.53 1.78,-19.47 -3.55,-17.53 1.77,-21.42 v -19.48 l -1.77,-17.53 3.55,-21.43 v -17.52 l -1.78,-19.48 v -23.37 l -1.77,-17.53 3.55,-21.42 -3.55,-19.48 3.55,-17.52 -1.78,-19.48 v -58.43 l -1.77,-21.43 1.77,-17.53 -1.77,-17.52 1.77,-21.43 -1.77,-17.52 1.77,-21.43 -1.77,-17.52 v -40.9 l 1.77,-19.49 1.78,-21.41 v -19.48 l -5.33,-37.01 -17.77,-13.63 -31.98,-9.74 h -87.07 l -35.54,5.84 -15.99,37.01 -8.89,15.58 -8.88,19.48 -3.55,17.52 -8.89,19.48 -3.55,19.48 -8.89,15.58 -7.11,19.48 -5.33,15.57 -7.1,21.43 -7.11,15.58 -8.89,17.53 -3.55,21.42 -7.11,17.53 -7.11,15.58 -7.1,23.38 -5.33,13.63 -5.34,19.47 -7.1,19.48 -8.89,17.53 -7.11,15.58 -5.32,21.42 -5.34,15.58 -8.88,19.48 -5.33,21.42 -10.66,13.64 -3.56,17.52 -5.33,21.43 -10.66,19.47 -7.1,13.64 -12.44,37 -5.34,19.48 -12.43,38.95 -8.89,13.63 -7.1,19.48 -5.34,21.42 -5.33,17.53 -5.33,-5.84 -1.77,-17.53 v -38.96 l -1.78,-21.42 v -15.58 l 3.55,-23.37 -3.55,-17.53 v -38.95 l 1.78,-19.47 v -21.43 l 1.77,-21.42 v -77.91 l -3.55,-15.58 1.78,-25.31 1.77,-19.48 v -19.48 l -3.55,-15.58 3.55,-19.47 -1.77,-23.38 v -35.05 l 1.77,-19.48 -3.55,-25.32 1.78,-17.53 -1.78,-17.52 v -42.86 l 1.78,-15.57 -1.78,-21.43 1.78,-19.47 -3.56,-40.9 -17.77,-11.69 -35.53,-3.9 -16,-3.89 -15.99,3.89 -37.32,-5.84 h -17.76"
        style="fill:#20214e;fill-opacity:1;fill-rule:nonzero;stroke:none" id="path40" />
      <path
        d="m 3668.36,5054.38 -17.76,5.84 -19.55,-3.89 -15.99,3.89 h -21.32 l -31.99,1.96 -14.21,15.57 -3.56,38.96 -1.77,21.42 3.55,19.48 -1.78,17.53 1.78,21.42 -3.55,15.58 3.55,19.47 -3.55,19.48 1.77,21.42 v 17.53 l -1.77,19.48 v 19.47 l 3.55,23.37 -3.55,19.49 1.77,15.57 -1.77,21.43 3.55,19.48 -3.55,19.47 1.77,17.53 -1.77,21.42 v 21.42 l 1.77,15.58 -1.77,21.43 3.55,17.53 v 21.42 l -1.78,19.48 1.78,17.53 -1.78,21.42 v 21.42 l 1.78,17.53 -3.55,17.53 3.55,42.85 -1.78,17.52 -1.77,21.43 3.55,15.58 v 23.37 l -3.55,15.58 1.77,23.37 -1.77,15.58 1.77,19.48 v 19.48 l 1.78,19.47 -1.78,19.48 -1.77,21.42 1.77,19.48 v 40.89 l -1.77,17.53 v 60.38 l 1.77,15.58 v 23.37 l 1.78,15.58 -1.78,21.43 -1.77,17.53 3.55,19.47 -3.55,21.42 3.55,21.43 v 37 l -1.78,21.43 v 19.47 l 1.78,17.53 v 40.9 l 15.99,9.74 33.76,5.84 h 15.99 l 19.55,1.95 17.77,-1.95 h 17.77 l 15.99,1.95 h 21.33 l 14.21,-1.95 h 19.55 l 17.76,3.9 h 106.62 l 14.21,-1.95 16,1.95 21.32,-3.9 15.99,3.9 19.55,-3.9 h 14.21 l 17.77,1.95 35.54,-3.9 12.44,-15.58 8.88,-38.95 -1.77,-25.32 1.77,-15.58 -3.55,-23.37 3.55,-19.48 -1.77,-21.42 -5.34,-38.95 -15.99,-17.53 -33.76,-1.95 -15.99,1.95 -19.54,-3.9 h -35.55 l -17.76,1.95 -19.55,-1.95 -19.55,1.95 -17.76,-1.95 -17.77,3.9 -17.77,-1.95 h -15.99 l -21.33,-1.95 -15.99,-21.42 v -37.01 l 1.78,-21.42 -3.55,-19.47 1.77,-19.48 -1.77,-17.53 1.77,-19.47 -1.77,-21.43 1.77,-19.47 1.78,-21.43 -1.78,-17.53 v -17.52 l -1.77,-23.38 v -17.52 l 1.77,-17.53 1.78,-23.37 14.21,-17.53 21.33,1.95 17.77,-1.95 h 14.21 l 21.32,1.95 h 33.76 l 37.32,-5.84 12.44,-15.58 5.33,-37.01 -3.55,-37 3.55,-21.43 -3.55,-17.53 3.55,-19.47 -1.78,-13.63 -3.55,-38.96 -17.77,-13.63 -31.99,-7.79 h -37.31 l -14.22,1.95 h -21.32 l -14.21,1.95 -21.33,-1.95 -14.21,-21.43 v -38.95 l -3.55,-17.53 1.77,-19.48 1.78,-15.58 -3.55,-42.84 3.55,-17.53 -3.55,-21.42 v -37.01 l 3.55,-19.48 v -37 l -3.55,-17.53 v -21.42 l 3.55,-17.53 19.54,3.89 14.22,-1.94 h 17.77 l 19.54,1.94 16,1.96 h 19.54 l 17.77,-3.9 19.55,3.9 17.76,-3.9 16,1.94 19.55,1.96 h 37.31 l 37.32,-5.85 10.65,-17.53 3.56,-38.95 3.55,-19.48 v -21.42 l -3.55,-23.38 v -17.52 l 1.78,-19.48 -3.56,-40.9 -14.21,-17.53 h -33.76 l -17.78,-3.89 h -19.54 l -19.55,3.89 -14.21,-3.89 -19.55,3.89 -19.54,-3.89 h -51.53 l -17.77,-1.95 h -14.22 l -21.32,1.95 h -14.22 l -21.32,3.89 -12.44,-3.89 h -19.54 l -17.77,-1.95 h -16"
        style="fill:#20214e;fill-opacity:1;fill-rule:nonzero;stroke:none" id="path42" />
      <path
        d="m 4523.05,5808.11 14.21,3.89 h 17.77 l 15.99,-3.89 h 16 l 19.54,1.94 h 31.98 l 19.55,1.95 15.99,5.84 17.77,7.8 14.22,11.68 7.1,17.53 8.89,15.58 7.11,15.58 3.55,23.37 3.55,15.58 v 58.43 l 1.78,44.79 v 17.53 l 1.78,19.48 -5.33,17.53 -1.78,19.47 -5.33,23.37 -3.55,13.63 -10.67,17.53 -10.66,13.64 -14.21,13.63 -14.22,9.74 -15.99,5.84 h -17.77 l -37.31,1.95 h -12.44 l -33.76,3.9 -21.33,-3.9 -14.21,1.95 -19.55,1.95 -15.99,-23.38 1.78,-17.52 1.77,-21.43 -3.55,-38.95 3.55,-17.53 v -23.37 l -3.55,-19.48 v -19.47 l 3.55,-37 v -21.43 l -3.55,-21.42 1.78,-15.58 1.77,-23.38 -1.77,-15.58 -1.78,-23.37 v -15.58 l 1.78,-23.37 17.77,-17.53 z m -167.03,-753.73 -19.55,1.95 -33.76,7.79 -12.44,15.59 -7.11,37 v 21.42 l 3.56,15.58 v 40.9 l -3.56,19.47 1.78,19.48 -1.78,17.53 1.78,19.48 1.78,21.42 -3.56,21.43 v 19.47 l 1.78,19.47 -1.78,17.53 1.78,19.48 -1.78,21.43 3.56,17.53 -1.78,21.42 -1.78,19.47 v 19.48 l 3.56,17.53 -3.56,17.52 1.78,23.38 v 19.47 l 1.78,17.53 -1.78,17.53 -1.78,21.43 1.78,19.47 1.78,21.42 -3.56,15.59 v 38.95 l 1.78,23.37 1.78,19.47 v 35.06 l -1.78,23.37 v 17.53 l 1.78,21.42 v 54.54 l -3.56,19.47 3.56,19.48 -3.56,19.47 1.78,23.37 v 19.48 l -1.78,15.58 3.56,23.37 -1.78,15.58 1.78,23.38 -3.56,17.52 3.56,17.53 v 21.43 l -3.56,17.52 1.78,23.37 v 35.06 l -1.78,19.48 v 38.95 l 3.56,19.47 -3.56,42.85 1.78,19.48 3.56,35.06 15.99,15.57 31.98,5.85 h 17.77 l 19.54,1.95 39.1,-3.9 h 14.21 l 21.33,3.9 h 55.08 l 14.21,-3.9 19.55,1.95 17.77,-1.95 h 17.77 l 40.87,1.95 14.21,-1.95 19.55,-1.95 15.99,-1.95 39.09,-7.79 16,-3.89 17.76,-5.84 17.77,-1.95 17.77,-9.74 12.44,-9.74 19.55,-9.73 10.66,-9.75 17.77,-11.68 12.44,-13.63 10.66,-9.74 12.43,-19.48 8.89,-11.68 12.44,-17.53 7.11,-15.58 8.88,-21.42 5.33,-15.58 5.33,-19.48 7.11,-15.58 1.78,-19.48 3.55,-21.42 1.78,-21.43 3.55,-17.52 5.33,-21.43 1.78,-21.42 v -17.53 l -3.55,-19.47 1.77,-38.95 -1.77,-23.38 3.55,-15.58 -3.55,-23.37 -1.78,-17.53 -5.33,-17.53 v -19.47 l -3.56,-21.43 -5.33,-19.47 -3.55,-19.48 -8.89,-21.42 -5.32,-13.63 -16,-35.06 -10.66,-17.53 -7.11,-19.48 -10.66,-13.63 -12.44,-15.58 -17.77,-9.74 -14.21,-9.74 -15.99,-11.68 -14.22,-9.74 -17.77,-11.68 -14.21,-5.85 -8.89,-25.31 7.11,-13.64 7.11,-17.53 7.11,-23.37 3.55,-17.52 7.11,-17.53 5.33,-19.48 10.66,-13.63 8.88,-40.9 8.89,-17.53 7.11,-15.58 5.33,-21.42 5.32,-13.64 10.67,-17.53 5.33,-19.48 8.88,-17.53 5.33,-21.41 5.34,-19.49 7.1,-13.63 8.89,-21.43 5.33,-15.57 3.55,-19.47 7.11,-15.59 7.11,-21.43 10.66,-19.47 7.11,-25.32 -1.78,-27.27 -12.44,-13.63 -14.22,-9.74 -28.42,-5.84 h -19.55 l -16,1.95 -15.99,3.89 -14.21,-3.89 -19.55,3.89 -14.21,-5.84 -37.31,9.74 -19.55,35.06 -3.56,17.53 -7.1,19.47 -7.11,13.63 -7.11,21.43 -5.33,15.58 -10.66,17.53 -3.55,19.48 -8.89,19.47 -3.56,17.53 -7.1,17.53 -17.77,40.9 -3.55,15.57 -7.11,15.59 -5.34,23.37 -7.1,15.58 -10.66,19.48 -1.78,19.48 -7.11,13.63 -7.1,21.42 -10.66,19.48 -3.56,19.47 -7.11,13.64 -7.1,21.42 -7.11,19.48 -7.11,13.63 -26.65,23.37 -16,-25.32 -3.55,-15.58 3.55,-19.47 -1.77,-21.43 1.77,-19.48 -3.55,-19.47 1.78,-23.37 -1.78,-19.48 3.55,-15.58 -1.77,-19.48 1.77,-21.42 -3.55,-21.43 1.78,-19.47 v -21.43 l -1.78,-17.52 v -21.43 l 3.55,-15.58 -1.77,-21.42 1.77,-23.37 -3.55,-15.58 v -21.42 l 3.55,-21.43 v -17.53 l -3.55,-21.42 -5.33,-40.9 -12.44,-13.64 -35.54,-5.84 -19.54,5.84 h -19.55 l -37.31,-5.84"
        style="fill:#20214e;fill-opacity:1;fill-rule:nonzero;stroke:none" id="path44" />
      <path
        d="m 5438.13,5558.81 h 15.99 l 16,3.9 h 37.3 l 17.78,-1.95 h 19.55 l 10.65,17.53 v 21.42 l -5.32,19.48 -1.78,15.58 -5.33,19.47 v 23.38 l -3.56,19.47 v 15.58 l -5.33,19.48 -1.78,19.48 -1.77,21.42 -5.33,17.53 -3.56,19.47 v 21.42 l -5.33,17.53 -1.78,23.38 -5.33,15.57 -1.78,21.43 -3.55,17.53 -1.78,21.42 -5.33,21.43 1.78,17.53 -5.34,17.52 -5.32,3.9 -1.78,-19.48 -1.77,-21.42 -5.34,-17.53 -5.33,-23.37 1.78,-17.53 -7.1,-17.53 -3.55,-23.37 1.77,-15.58 -3.55,-23.37 -3.56,-17.53 -3.55,-21.42 -5.33,-15.58 -1.78,-19.48 v -23.37 l -3.56,-15.58 -5.33,-38.95 -10.66,-42.85 1.78,-19.48 -5.34,-17.53 -5.33,-21.42 z m -167.03,-504.43 -14.22,1.95 h -60.42 l -35.53,5.85 -10.66,7.78 -5.33,17.53 -1.78,37 3.55,19.48 5.34,19.48 v 21.42 l 5.32,15.58 1.78,23.38 1.78,15.57 1.78,19.48 3.55,17.53 7.11,21.42 v 19.47 l 1.77,17.53 3.56,21.43 1.77,15.59 5.34,21.42 v 19.47 l 5.33,17.53 1.78,19.48 1.77,21.42 3.55,15.58 3.56,19.48 1.77,19.47 5.34,23.38 1.77,19.47 5.33,13.63 v 19.48 l 5.33,21.43 1.78,21.42 3.55,38.95 5.34,13.63 3.55,19.48 3.55,21.42 v 17.53 l 5.33,19.48 3.56,19.47 1.78,19.48 1.77,17.52 v 23.38 l 7.11,15.58 1.77,19.47 3.56,21.43 v 19.48 l 3.55,17.52 1.78,19.48 3.56,17.53 5.32,23.37 v 19.47 l 1.78,17.53 3.56,15.58 3.55,19.48 1.78,21.42 7.1,17.53 3.56,23.37 1.77,17.53 v 17.53 l 5.34,19.47 v 19.48 l 5.33,21.43 v 17.52 l 3.55,19.48 5.33,17.53 1.78,17.53 3.55,23.37 3.56,19.47 3.55,17.53 7.11,33.11 14.21,9.74 28.43,5.84 h 19.55 l 15.98,3.9 h 19.56 l 17.77,-3.9 17.76,3.9 h 35.54 l 17.77,-3.9 16,3.9 19.54,-3.9 14.21,3.9 h 21.33 l 28.43,-5.85 15.99,-11.68 5.33,-33.11 7.1,-23.37 v -15.58 l 5.33,-23.37 v -15.58 l 7.11,-38.96 1.78,-17.52 5.33,-23.38 3.56,-19.48 -1.78,-17.52 7.11,-21.43 3.55,-17.53 v -19.47 l 1.78,-17.53 7.11,-19.47 1.78,-21.43 v -17.53 l 5.33,-19.47 v -15.58 l 5.33,-19.48 1.78,-19.47 1.77,-23.38 3.55,-17.52 5.33,-15.58 3.56,-38.96 3.55,-21.42 1.78,-19.48 3.55,-21.42 5.33,-13.63 3.55,-23.37 1.78,-19.48 v -17.53 l 1.78,-21.42 7.11,-19.48 1.77,-17.52 v -15.59 l 7.11,-19.47 v -23.37 l 3.56,-19.48 1.78,-19.48 3.55,-17.53 5.33,-17.52 v -17.53 l 1.78,-23.37 5.33,-17.53 1.78,-19.48 1.78,-17.53 7.1,-17.52 v -19.48 l 5.33,-23.37 v -15.59 l 5.33,-19.47 1.78,-19.47 5.32,-21.43 v -19.47 l 1.78,-15.59 1.77,-23.37 7.11,-17.53 3.56,-17.53 -1.78,-19.47 10.67,-38.95 v -17.53 l 5.33,-19.47 1.77,-37.01 -10.66,-19.48 -8.89,-9.74 -37.3,-5.84 h -39.1 l -17.77,5.84 -17.76,-3.89 h -19.55 l -33.77,7.79 -14.21,7.79 -5.33,37.01 -3.56,15.57 -7.1,23.38 -1.77,17.53 -1.78,19.47 -7.11,19.48 -3.55,38.95 -3.56,19.47 -5.33,19.49 -3.56,19.47 -1.77,17.53 -19.55,21.42 -17.77,-1.95 -19.54,1.95 -14.22,-1.95 -21.33,3.9 -17.76,-1.95 h -14.22 l -17.76,-1.95 -16,3.9 -17.77,-3.9 h -17.76 l -23.11,-19.47 -3.55,-19.47 -3.55,-35.06 -1.78,-19.49 -5.33,-21.41 -3.55,-17.53 -1.78,-21.43 -1.78,-19.47 -5.33,-19.48 -1.77,-21.43 -7.11,-17.52 -8.89,-37.01 -10.66,-7.78 -31.99,-5.85 -23.09,-1.95"
        style="fill:#20214e;fill-opacity:1;fill-rule:nonzero;stroke:none" id="path46" />
      <path
        d="m 6129.32,5054.38 -15.99,1.95 h -15.99 l -39.1,5.85 -8.88,17.53 -7.1,35.05 v 60.38 l 3.55,19.47 -3.55,17.53 v 38.95 l 3.55,23.37 -3.55,15.58 v 58.43 l 1.77,23.38 -1.77,19.47 v 15.58 l 3.55,23.37 v 37.01 l -3.55,17.52 3.55,21.43 v 17.52 l -3.55,21.43 v 37 l 1.77,21.43 -1.77,21.42 3.55,15.58 -1.78,21.43 -1.77,19.47 v 19.48 l 3.55,17.53 -1.78,21.42 v 21.42 l 1.78,15.58 -3.55,23.37 3.55,17.53 v 17.53 l -1.78,23.37 v 19.48 l -1.77,15.58 v 19.48 l 3.55,23.37 v 15.58 l -3.55,19.47 1.77,19.48 1.78,23.37 -3.55,19.47 3.55,19.48 -3.55,15.58 3.55,21.43 -1.78,17.52 v 38.96 l -1.77,19.47 v 19.48 l 1.77,21.42 v 21.42 l -1.77,17.53 1.77,19.48 v 19.47 l 1.78,19.48 v 19.48 l -3.55,38.95 3.55,40.9 15.99,9.74 35.54,9.74 17.77,-3.9 21.32,3.9 37.32,-3.9 19.54,3.9 33.76,-9.74 16,-13.63 5.33,-37.01 v -17.53 l -3.56,-23.37 v -19.48 l 1.78,-17.53 v -60.37 l -1.78,-17.53 3.56,-19.47 v -17.53 l -1.78,-19.48 1.78,-21.42 -1.78,-21.43 1.78,-19.47 v -75.96 l -3.56,-17.53 3.56,-17.53 -1.78,-23.36 1.78,-15.59 -1.78,-19.47 1.78,-21.42 v -17.53 l -3.56,-19.48 v -42.85 l 3.56,-38.95 -1.78,-17.53 v -19.47 l 1.78,-19.48 v -17.53 l -3.56,-19.47 v -19.48 l 3.56,-38.95 -1.78,-19.48 v -19.47 l 1.78,-17.53 v -23.37 l -1.78,-15.58 -1.78,-19.48 3.56,-23.37 v -17.53 l -1.78,-21.42 v -37.01 l 1.78,-17.53 -1.78,-19.48 v -19.47 l 1.78,-19.47 v -38.96 l 16,-19.47 15.98,1.94 21.32,-3.89 16,1.95 17.77,1.94 h 19.54 l 19.54,-1.94 19.55,1.94 h 17.78 l 14.2,-1.94 19.56,1.94 h 21.31 l 17.78,-3.89 33.76,-5.84 15.98,-13.64 1.78,-37 v -60.38 l 3.56,-25.31 -3.56,-17.53 -3.55,-40.9 -12.44,-11.69 -35.53,-9.74 -19.55,5.84 -35.54,-5.84 -14.21,1.95 h -92.4 l -14.22,3.89 -33.76,-5.84 -17.76,1.95 -21.33,-1.95 h -67.52 l -17.78,5.84 -21.32,-5.84"
        style="fill:#20214e;fill-opacity:1;fill-rule:nonzero;stroke:none" id="path48" />
      <path
        d="m 6841.86,5054.38 -16,1.95 h -19.54 l -37.32,7.79 -14.21,15.59 -3.56,35.05 v 19.48 l -1.78,23.37 v 17.53 l 3.56,17.53 -1.78,21.41 -1.78,19.48 3.56,19.48 -1.78,17.53 v 23.37 l 1.78,17.52 -1.78,21.43 v 17.53 l -1.78,19.47 v 21.43 l 1.78,17.53 v 38.95 l 1.78,21.42 v 17.53 l -1.78,19.48 1.78,17.52 v 23.38 l -1.78,19.47 1.78,19.48 -3.56,19.48 v 38.95 l 3.56,17.53 -3.56,17.53 v 23.36 l 3.56,17.53 v 19.48 l -3.56,21.42 3.56,15.58 v 21.43 l -3.56,19.47 v 21.43 l 3.56,19.47 v 19.48 l -3.56,15.58 v 19.48 l 3.56,23.37 -3.56,19.47 v 15.58 l 3.56,42.85 v 15.58 l -1.78,23.37 -1.78,19.48 v 17.53 l 3.56,21.42 v 37.01 l -1.78,19.47 1.78,19.48 -3.56,17.53 1.78,19.47 1.78,21.42 -1.78,21.43 v 74.01 l 1.78,19.47 1.78,38.96 12.44,17.52 37.31,3.9 21.32,-1.95 h 35.55 l 17.76,1.95 h 19.54 l 39.1,-3.9 8.89,-15.58 8.88,-40.9 -3.55,-17.53 1.78,-21.42 v -19.48 l 1.77,-19.47 v -15.58 l -1.77,-19.48 1.77,-23.37 -1.77,-19.47 v -17.53 l -1.78,-17.53 3.55,-19.48 -1.77,-19.47 1.77,-21.43 v -17.52 l -3.55,-21.43 3.55,-21.43 v -15.58 l -1.77,-23.37 -1.78,-17.52 1.78,-17.53 -1.78,-19.48 1.78,-23.37 v -19.47 l 1.77,-17.53 v -19.48 l -3.55,-19.47 3.55,-19.48 -1.77,-17.53 1.77,-21.42 -1.77,-17.53 v -40.9 l 1.77,-19.48 v -17.53 l -1.77,-23.36 v -19.48 l 1.77,-19.48 v -15.58 l -1.77,-21.42 -1.78,-19.48 1.78,-21.42 -1.78,-19.48 3.55,-19.48 v -15.58 l -3.55,-19.47 3.55,-19.48 -1.77,-21.42 v -37 l 1.77,-21.43 -1.77,-21.42 -1.78,-15.59 v -40.9 l 3.55,-19.47 -3.55,-21.42 v -37.01 l 1.78,-21.42 1.77,-15.58 -3.55,-23.38 v -54.53 l -5.33,-44.79 -10.66,-13.64 -37.33,-5.84 -19.54,5.84 -17.76,-5.84 h -19.55"
        style="fill:#20214e;fill-opacity:1;fill-rule:nonzero;stroke:none" id="path50" />
      <path
        d="m 7430,5040.75 -15.99,1.95 -19.54,5.84 -17.77,1.95 -16,7.79 -15.98,3.9 -16,5.84 -15.99,11.69 -17.77,5.84 -14.22,9.73 -14.21,13.64 -14.22,15.57 -10.65,9.75 -8.89,13.63 -12.44,17.53 -10.66,19.47 -8.89,13.64 -8.89,15.57 -5.32,21.43 -3.55,19.48 -7.11,17.52 -5.33,17.53 1.77,21.42 -1.77,23.37 3.55,17.53 12.44,13.64 35.54,9.73 19.55,-3.88 h 19.54 l 21.32,3.88 h 33.77 l 39.08,-5.84 10.67,-13.63 8.88,-37 10.67,-17.53 8.88,-17.53 19.54,-13.63 14.21,-5.84 h 35.55 l 14.22,3.89 17.76,7.79 14.21,13.63 12.44,15.58 8.89,15.58 8.89,17.53 v 17.53 l 3.55,21.43 v 38.95 l -1.78,21.42 -1.77,15.58 -8.89,17.53 -14.22,35.06 -10.66,17.52 -21.31,31.17 -12.44,13.63 -7.11,15.58 -12.44,17.53 -12.45,11.68 -12.44,19.48 -12.43,11.69 -14.21,13.63 -10.66,15.58 -14.22,13.63 -12.44,11.69 -12.44,13.63 -14.21,19.48 -12.43,9.74 -7.11,15.58 -16,13.63 -12.44,17.53 -10.67,11.68 -8.88,17.53 -12.43,15.58 -10.66,13.64 -10.66,19.47 -8.89,15.58 -8.89,13.64 -12.44,19.47 -3.55,17.53 -12.44,17.53 -1.78,15.58 -10.65,19.48 -3.56,23.37 -1.78,15.58 -5.32,17.53 v 23.37 l 1.77,38.95 -3.55,17.53 5.33,19.47 v 21.43 l 7.11,19.47 v 15.58 l 8.88,21.43 7.1,15.58 7.11,17.53 3.56,21.42 8.88,17.53 12.44,13.63 8.89,13.63 10.66,15.59 24.87,27.26 15.99,13.63 14.22,9.75 16,9.73 14.21,11.69 14.22,5.84 17.76,5.84 17.77,7.79 14.22,7.79 19.54,3.9 15.99,-1.95 19.55,5.84 33.77,-1.94 15.99,-3.9 17.76,-1.95 21.33,-1.95 15.99,-3.89 14.21,-7.79 17.77,-5.84 14.22,-9.74 17.77,-9.74 12.44,-7.79 12.44,-13.63 15.99,-13.64 14.21,-11.68 10.66,-13.63 7.11,-17.53 14.22,-15.58 5.33,-17.53 7.11,-15.58 8.88,-23.37 5.33,-15.59 7.11,-21.42 v -15.58 l 5.32,-21.42 v -19.48 l -3.54,-25.32 -16,-11.68 -33.76,-5.85 -19.55,3.9 h -55.08 l -19.55,-3.9 -39.08,7.8 -8.89,11.68 -12.44,35.06 -8.89,19.47 -8.88,17.53 -19.54,11.69 -12.44,3.89 -39.1,-1.95 h -12.44 l -33.75,-21.42 -10.66,-17.53 -7.11,-15.58 -8.89,-17.53 -8.88,-38.95 1.77,-37 3.56,-17.53 5.33,-19.48 5.33,-17.53 7.11,-21.42 14.22,-31.16 12.43,-17.53 8.89,-13.63 12.43,-17.53 26.66,-25.32 10.66,-15.58 14.21,-15.58 12.44,-11.68 10.66,-13.64 12.44,-15.58 16,-11.69 12.44,-17.52 12.43,-9.74 12.44,-17.53 10.65,-11.69 14.22,-17.53 12.44,-11.68 14.22,-15.58 10.67,-15.58 8.87,-15.58 14.22,-15.58 7.1,-13.64 14.22,-15.57 10.67,-17.53 8.88,-15.58 5.33,-21.43 8.89,-13.63 5.33,-23.37 7.1,-15.58 5.33,-17.53 5.34,-21.43 v -17.52 l 3.54,-19.48 v -21.43 l 3.56,-40.89 -3.56,-21.43 1.78,-17.53 -7.1,-17.53 v -17.53 l -10.66,-38.94 -7.1,-17.53 -5.34,-19.49 -10.66,-17.51 -8.89,-15.59 -7.11,-17.53 -14.22,-15.58 -19.54,-31.16 -15.98,-9.73 -12.44,-11.69 -16,-9.74 -12.44,-15.59 -17.77,-5.84 -15.99,-7.79 -14.21,-7.78 -19.55,-5.85 -14.22,-7.79 h -19.54 l -15.99,-3.89 -19.55,-1.95 -31.99,-1.95"
        style="fill:#20214e;fill-opacity:1;fill-rule:nonzero;stroke:none" id="path52" />
      <path
        d="m 8194.05,5054.38 -33.76,5.84 -15.99,17.53 -3.56,35.06 3.56,21.43 v 21.41 l -3.56,15.59 1.78,19.47 -1.78,23.37 3.56,17.53 v 19.48 l -3.56,19.48 v 17.53 l 1.78,23.36 -1.78,19.48 3.56,15.58 -1.78,21.43 -1.78,19.47 v 19.48 l 3.56,17.53 -1.78,21.42 v 17.53 l -1.78,19.48 1.78,23.37 1.78,19.47 -3.56,15.58 1.78,21.43 1.78,19.47 v 19.48 l -3.56,19.48 v 19.47 l 1.78,19.48 v 38.95 l -1.78,17.53 3.56,38.95 -1.78,21.42 -1.78,17.53 1.78,19.48 -1.78,19.47 v 21.43 l 1.78,15.58 -1.78,21.42 3.56,19.48 -1.78,21.42 v 38.95 l -1.78,17.53 v 40.9 l 3.56,19.47 -3.56,17.53 3.56,21.43 -3.56,19.47 3.56,19.48 -3.56,15.58 3.56,23.37 -1.78,15.58 -19.54,19.48 -17.77,3.9 h -35.54 l -19.55,-1.95 -14.21,-1.95 h -23.1 l -15.99,3.9 h -17.78 l -17.76,-1.95 -15.99,-1.95 -39.1,7.79 -14.22,11.69 -3.55,42.84 1.78,19.48 v 38.95 l -1.78,19.48 1.78,21.42 5.33,37.01 14.22,13.63 31.99,9.74 19.54,-3.9 14.21,3.9 19.55,-3.9 17.77,3.9 17.77,-1.95 h 33.76 l 17.77,-1.95 17.77,3.9 h 39.08 l 14.22,-3.9 h 21.33 l 14.21,3.9 19.54,-1.95 16,1.95 h 19.55 l 15.99,-3.9 15.99,1.95 19.54,1.95 16,-3.9 19.55,3.9 15.99,-3.9 h 56.86 l 17.77,3.9 h 17.77 l 14.21,-1.95 h 19.55 l 15.99,1.95 h 21.32 l 17.77,-1.95 h 14.21 l 37.33,-7.79 14.21,-13.63 3.55,-37.01 -1.78,-23.37 1.78,-15.58 v -44.8 l 1.78,-17.53 -5.33,-40.89 -15.99,-13.64 -55.1,-3.89 -14.21,1.95 -21.31,-3.9 -17.78,3.9 h -15.99 l -17.77,-1.95 h -35.53 l -19.55,-1.95 h -17.77 l -17.77,-17.53 1.78,-17.53 v -23.37 l -1.78,-15.58 1.78,-23.37 v -54.54 l -1.78,-23.36 1.78,-19.48 v -37 l -1.78,-19.48 1.78,-19.47 v -60.38 l -1.78,-19.48 v -37 l -1.78,-17.53 V 5775 l 1.78,-21.43 -1.78,-17.52 v -19.48 l 3.56,-21.42 v -17.53 l -1.78,-21.43 v -52.58 l -1.78,-19.48 v -42.85 l 3.56,-15.58 -1.78,-19.47 -1.78,-23.37 3.56,-17.53 -3.56,-19.48 1.78,-21.42 -1.78,-17.53 3.56,-19.48 -1.78,-19.47 -1.78,-21.43 1.78,-15.58 -1.78,-19.48 1.78,-19.47 v -23.37 l -1.78,-19.48 v -19.47 l 1.78,-15.59 -1.78,-19.47 1.78,-21.43 1.78,-19.47 -1.78,-19.47 v -17.53 l -7.1,-40.9 -12.44,-11.69 -35.55,-3.9 -21.32,-3.89 h -17.76 l -17.78,-1.95 -15.99,5.84 -23.1,-5.84"
        style="fill:#20214e;fill-opacity:1;fill-rule:nonzero;stroke:none" id="path54" />
      <path
        d="m 3227.71,2730.93 c -1.94,-0.75 -3.89,-1.2 -5.85,-1.31 -10.52,-0.59 -17.68,3.96 -21.5,13.63 -13.96,38.08 -24.94,78.62 -32.91,121.63 -7.98,43.01 -12.66,88.68 -14,137 -1.37,48.33 -1.64,92.08 -0.85,131.31 0.79,39.21 4.43,86.5 10.92,141.85 6.47,55.32 11.83,98.43 16.05,129.28 4.22,30.85 10.37,74.16 18.49,129.91 8.24,53.13 14.09,93.28 17.53,120.48 3.43,27.18 6.91,59.47 10.43,96.87 3.52,37.39 3.88,66.72 1.06,87.96 -2.83,21.24 -8.45,36.57 -16.86,45.99 -6.31,6.88 -15.05,10.03 -26.2,9.41 -0.67,-0.04 -1.33,-0.08 -1.97,-0.11 -18.39,-1.01 -38.71,-8.74 -60.95,-23.13 -22.26,-14.41 -47.72,-38.86 -76.43,-73.36 -28.7,-34.52 -55.82,-77.17 -81.31,-127.97 -48.09,-94.85 -93.43,-224.42 -136.01,-388.76 -42.61,-164.33 -73.96,-320.47 -94.07,-468.42 -1.04,-5.32 -3.42,-9.72 -7.18,-13.23 -3.75,-3.5 -8.1,-5.22 -13.04,-5.17 -4.94,0.06 -9.48,1.62 -13.6,4.68 -4.11,3.07 -6.66,7.21 -7.59,12.41 -11.71,56.65 -21.43,134.13 -29.17,232.47 -7.76,98.34 -11.94,215.79 -12.59,352.39 -0.65,136.59 3.4,274.59 12.15,414.01 0.31,5.94 2.68,10.84 7.08,14.71 4.39,3.86 9.4,5.61 15.02,5.27 5.61,-0.35 10.35,-2.72 14.21,-7.11 3.86,-4.4 5.63,-9.56 5.31,-15.5 -9.49,-161.86 -13.19,-317.94 -11.12,-468.28 2.06,-150.35 8.66,-278.53 19.81,-384.59 27.01,154.25 60.25,297.17 99.72,428.74 39.47,131.57 77.29,233.25 113.49,305.05 21.42,41.34 43.42,77.79 66.05,109.34 22.6,31.52 42.84,55.7 60.67,72.49 17.85,16.79 35.86,30.28 54.06,40.53 18.2,10.21 32.81,16.78 43.85,19.7 11.03,2.91 21.47,4.65 31.32,5.19 24.94,1.39 44.8,-6.4 59.56,-23.37 7.72,-8.8 13.93,-19.64 18.59,-32.55 4.67,-12.92 7.58,-29.71 8.72,-50.38 1.15,-20.67 1.53,-39.59 1.17,-56.73 -0.39,-17.15 -2.48,-41.79 -6.29,-73.92 -3.82,-32.15 -7.14,-58.34 -9.96,-78.58 -2.84,-20.25 -7.38,-51.27 -13.62,-93.1 -8.84,-54.49 -15.22,-96.99 -19.11,-127.48 -3.91,-30.51 -8.99,-72.77 -15.21,-126.77 -6.23,-54.02 -9.76,-100.14 -10.61,-138.36 -0.84,-38.24 -0.8,-80.88 0.17,-127.89 0.94,-47.02 5.37,-91.22 13.26,-132.6 7.87,-41.38 18.44,-80.47 31.68,-117.27 1.59,-5.17 1.21,-10.3 -1.12,-15.37 -2.37,-5.06 -6.11,-8.74 -11.25,-10.99"
        style="fill:#20214e;fill-opacity:1;fill-rule:nonzero;stroke:none" id="path56" />
      <path
        d="m 3438.39,3153.46 c -1.37,60.5 -18.13,107.3 -50.24,140.44 -13.26,-34.33 -21.78,-67.73 -25.57,-100.19 -3.8,-32.48 -3.83,-58.83 -0.07,-79.02 3.75,-20.21 9.56,-36.01 17.45,-47.43 6.45,-9.52 12.62,-14.12 18.53,-13.78 8.53,0.47 17.54,10.35 27,29.64 9.46,19.28 13.77,42.73 12.9,70.34 z m 169.84,188.17 c 5.6,-0.35 10.35,-2.73 14.21,-7.12 3.86,-4.4 5.47,-9.41 4.79,-15.04 -0.68,-5.64 -3.22,-10.54 -7.58,-14.74 -19.52,-16.23 -44.96,-26.36 -76.34,-30.4 -31.39,-4.05 -62.44,-2.31 -93.13,5.22 19.02,-34.51 28.93,-76.43 29.68,-125.77 0.75,-37.49 -6.66,-70.17 -22.23,-98.02 -15.59,-27.86 -34.54,-42.41 -56.85,-43.64 -21.66,-1.2 -40.02,9.31 -55.07,31.51 -11.48,17.15 -19.6,38.93 -24.36,65.33 -4.75,26.4 -4.71,58.33 0.12,95.81 4.85,37.46 15.42,75.42 31.73,113.85 -2.74,1.83 -5.8,3.64 -9.19,5.41 -4.78,3.03 -7.8,7.14 -9.08,12.35 -1.27,5.18 -0.56,10.16 2.14,14.93 2.7,4.74 6.62,8.09 11.79,10.04 5.15,1.91 10.1,1.7 14.86,-0.67 10.13,-4.71 19.98,-10.42 29.59,-17.13 35.17,-17.15 71.43,-26.82 108.76,-29.04 37.31,-2.22 67.69,5.24 91.11,22.34 4.4,3.53 9.42,5.11 15.05,4.78"
        style="fill:#20214e;fill-opacity:1;fill-rule:nonzero;stroke:none" id="path58" />
      <path
        d="m 3645.03,3024.65 c -0.52,-2.65 -1.2,-5.16 -2.06,-7.52 -0.85,-2.35 -2.22,-4.41 -4.1,-6.15 -1.88,-1.74 -3.95,-3.01 -6.21,-3.8 -2.26,-0.78 -4.72,-1.25 -7.33,-1.4 l -0.99,-0.05 c -3.29,-0.18 -6.44,0.47 -9.49,1.95 -3.04,1.48 -5.63,3.63 -7.76,6.48 -2.13,2.84 -3.29,5.91 -3.47,9.18 -6.63,48.36 -10.37,110.05 -11.23,185.06 -0.85,75.02 1.64,136.72 7.53,185.12 1.02,5.31 3.73,9.74 8.15,13.29 4.41,3.52 9.61,4.97 15.57,4.31 5.95,-0.66 10.7,-3.2 14.24,-7.6 3.53,-4.42 4.81,-9.61 3.83,-15.59 -4.98,-41.11 -7.6,-94.59 -7.91,-160.44 15.58,63.41 33.69,116.76 54.35,160.04 20.65,43.27 41.63,68.81 62.92,76.58 14.21,4.73 27.79,3.51 40.7,-3.68 15.6,-8.36 25.96,-22.93 31.06,-43.71 1.6,-5.2 1.07,-10.31 -1.61,-15.4 -2.68,-5.09 -6.95,-8.28 -12.81,-9.6 -5.85,-1.31 -11.16,-0.62 -15.91,2.08 -4.77,2.7 -7.96,6.97 -9.6,12.8 -2.44,8.42 -6.06,14.15 -10.83,17.19 -2.7,1.15 -5.35,1.34 -7.93,0.55 -10.99,-3.92 -24.71,-23.6 -41.18,-59.08 -16.48,-35.47 -32.35,-84.6 -47.64,-147.33 -15.3,-62.74 -25.4,-127.18 -30.29,-193.28"
        style="fill:#20214e;fill-opacity:1;fill-rule:nonzero;stroke:none" id="path60" />
      <path
        d="m 4171.83,3660.23 c 0.82,-3.25 0.69,-6.71 -0.42,-10.39 -1.12,-3.69 -3.08,-6.75 -5.91,-9.22 -2.83,-2.47 -6.19,-4.14 -10.09,-5 -89.11,-20.08 -172.72,-44.13 -250.83,-72.15 -19.32,-126.85 -31.49,-240.11 -36.49,-339.81 -2.72,-46.25 -3.41,-87.26 -2.08,-123.07 1.31,-35.8 3.48,-62.86 6.47,-81.13 2.98,-18.26 6.78,-33.36 11.39,-45.29 4.62,-11.92 8.13,-19.14 10.58,-21.64 2.44,-2.49 4.69,-4.34 6.73,-5.55 3.35,-1.13 7.29,-0.92 11.81,0.66 7.08,3.02 15.12,9.39 24.13,19.1 9,9.73 20.48,25.34 34.45,46.84 13.94,21.53 30.61,53.55 49.98,96.11 19.38,42.56 40.29,93.1 62.72,151.63 2.81,8.7 4.49,14.07 5.04,16.07 2.32,5.39 6.23,9.24 11.71,11.52 5.46,2.27 10.74,2.22 15.81,-0.11 5.06,-2.36 8.73,-6.11 10.99,-11.25 2.26,-5.16 2.55,-10.4 0.87,-15.75 -0.55,-2.01 -2.57,-7.05 -6.08,-15.16 -75.03,-203 -139.56,-315.54 -193.65,-337.64 -7.08,-3 -13.91,-4.71 -20.46,-5.07 -9.2,-0.51 -17.85,1.32 -25.99,5.46 -5.43,3.01 -10.21,6.03 -14.32,9.1 -4.12,3.06 -9.86,11.3 -17.17,24.72 -7.32,13.42 -13.05,30.39 -17.14,50.91 -4.1,20.51 -7.1,50.96 -9.01,91.35 -1.9,40.39 -1.7,87.31 0.6,140.77 5.34,93.79 16.89,200.45 34.63,319.95 -22.54,-9.15 -42.46,-17.83 -59.78,-26.02 -2.55,-1.48 -5.47,-2.28 -8.76,-2.46 -9.18,-0.51 -15.65,3.4 -19.42,11.76 -2.9,5.1 -3.37,10.5 -1.39,16.21 2,5.71 5.56,9.7 10.7,11.96 24.38,11.87 52.99,24 85.89,36.35 11.39,67.8 23.79,134.97 37.24,201.58 0.98,5.98 4.02,10.42 9.14,13.35 5.09,2.9 10.48,3.86 16.13,2.86 5.64,-1.02 9.93,-3.9 12.83,-8.67 2.88,-4.78 3.85,-10.16 2.87,-16.14 -11.95,-57.95 -22.84,-116.82 -32.7,-176.62 74.28,25.83 152.07,47.91 233.38,66.25 5.87,0.97 11.19,-0.05 15.97,-3.07 4.77,-3.04 7.97,-7.46 9.63,-13.3"
        style="fill:#20214e;fill-opacity:1;fill-rule:nonzero;stroke:none" id="path62" />
      <path
        d="m 4249.85,3802.82 c -29.47,-26.66 -56.06,-84.42 -79.78,-173.3 -23.73,-88.89 -37.79,-194.69 -42.19,-317.4 43.51,34.67 81.36,73.64 113.53,116.9 32.17,43.27 56.34,85.25 72.53,125.99 16.17,40.72 26.88,79.36 32.1,115.86 5.22,36.48 4.17,67.71 -3.2,93.65 -9.15,34.39 -26.97,52.82 -53.44,55.31 -1.96,-0.1 -3.93,-0.21 -5.9,-0.32 -11.17,-0.62 -22.38,-6.18 -33.65,-16.69 z M 4554.44,3314 c 5.14,2.27 10.41,2.22 15.81,-0.1 5.4,-2.35 9.23,-6.09 11.49,-11.22 2.26,-5.16 2.21,-10.42 -0.11,-15.81 l -1.76,-4.05 c -22.04,-53.9 -42.42,-98.82 -61.18,-134.74 -18.74,-35.95 -35.56,-62.38 -50.42,-79.34 -14.87,-16.94 -27.57,-28.35 -38.11,-34.21 -10.54,-5.85 -21.07,-9.07 -31.57,-9.65 -22.39,0.09 -40.63,8.29 -54.69,24.63 -30.97,35.81 -37.6,108.2 -19.92,217.17 0.94,6.62 1.62,12.27 2.03,16.9 l -0.99,-0.05 c -39.04,-32.46 -89.38,-122.15 -151.03,-269.11 -12.22,-28.98 -19.83,-46.19 -22.82,-51.63 -4.28,-6.16 -10.02,-9.44 -17.23,-9.84 -2.63,-0.15 -4.95,0.06 -6.96,0.6 -4.7,1.71 -8.28,3.99 -10.74,6.82 -2.47,2.82 -5.41,11.54 -8.86,26.17 -3.42,14.62 -7,37.31 -10.68,68.05 -8.29,66.71 -12.33,133.64 -12.11,200.82 1.17,121.87 13.6,239.09 37.33,351.69 23.72,112.58 56.9,188.16 99.54,226.75 21.93,20.3 45.78,29.52 71.57,27.66 21.84,-2.09 40.58,-10.58 56.22,-25.52 15.65,-14.95 27.13,-35.04 34.46,-60.33 8.4,-33.1 9.41,-71.91 2.98,-116.36 -6.43,-44.49 -19.9,-89.68 -40.4,-135.58 -48.12,-106.04 -121.25,-194.71 -219.35,-265.97 0.07,-1.32 0.13,-2.31 0.16,-2.96 -1.33,-71.19 3.23,-141.71 13.69,-211.59 61.11,144.94 113.37,235.75 156.77,272.39 18.9,15.52 35.83,18.77 50.82,9.72 16.99,-9.6 22.48,-31.35 16.45,-65.26 -6.72,-45.16 -9.17,-83.97 -7.37,-116.46 1.8,-32.49 7.98,-55.02 18.56,-67.61 5.6,-6.26 12.68,-9.17 21.22,-8.7 l 0.98,0.05 c 4.59,0.26 9.43,2.01 14.53,5.25 5.08,3.25 11.95,9.89 20.62,19.91 8.66,10.03 17.99,23.05 27.96,39.07 9.98,16.02 21.9,38.41 35.79,67.18 13.88,28.74 28.67,61.98 44.36,99.73 l 1.75,4.05 c 2.32,5.39 6.06,9.23 11.21,11.48"
        style="fill:#20214e;fill-opacity:1;fill-rule:nonzero;stroke:none" id="path64" />
      <path
        d="m 4667.15,3436.79 c -34.13,-25.6 -59.63,-64.53 -76.5,-116.83 28.96,12.13 53.78,30.46 74.49,54.99 20.7,24.5 31.64,44.04 32.81,58.6 0.28,6.6 -0.92,10.47 -3.61,11.66 -1.36,0.57 -3,0.82 -4.97,0.71 -6.57,-0.36 -13.98,-3.42 -22.22,-9.13 z m 151.18,-108.18 c 5.14,2.27 10.4,2.21 15.81,-0.1 5.39,-2.35 9.07,-6.27 11.02,-11.74 1.94,-5.5 1.74,-10.94 -0.58,-16.33 -7.56,-18.2 -18.24,-39.38 -32.04,-63.51 -13.82,-24.15 -32.89,-51.2 -57.24,-81.19 -24.36,-29.99 -47.7,-51.19 -70.06,-63.63 -14.7,-8.06 -29.27,-12.49 -43.7,-13.28 -34.8,-1.94 -62.79,15.95 -83.96,53.61 -13.16,23.63 -20.62,51.37 -22.38,83.21 -1.76,31.84 1.1,63.28 8.6,94.31 7.5,31.04 19.83,61.01 37,89.95 17.16,28.93 37.43,52.27 60.81,70.03 26.56,19.89 51.03,23.9 73.42,11.97 18.33,-10.19 26.52,-27.17 24.55,-50.99 -1.28,-12.59 -6.26,-26.86 -14.92,-42.8 -8.66,-15.96 -19.83,-31.56 -33.45,-46.79 -13.65,-15.25 -30.34,-29.18 -50.04,-41.78 -19.71,-12.63 -40.28,-21.83 -61.68,-27.62 -7.85,-48.5 -3.03,-88.06 14.47,-118.7 18.22,-31.92 42.04,-39.8 71.44,-23.7 26.21,13.95 52.88,40.77 79.99,80.48 27.09,39.68 47.68,75.39 61.72,107.12 2.32,5.39 6.06,9.22 11.22,11.48"
        style="fill:#20214e;fill-opacity:1;fill-rule:nonzero;stroke:none" id="path66" />
      <path
        d="m 4860.07,3091.9 c -0.51,-2.64 -1.19,-5.15 -2.05,-7.51 -0.86,-2.35 -2.23,-4.4 -4.1,-6.16 -1.88,-1.74 -3.96,-3.01 -6.21,-3.8 -2.28,-0.77 -4.72,-1.25 -7.34,-1.39 l -0.99,-0.05 c -3.29,-0.19 -6.44,0.48 -9.48,1.94 -3.04,1.49 -5.63,3.64 -7.77,6.49 -2.13,2.84 -3.29,5.9 -3.47,9.19 -6.62,48.35 -10.36,110.03 -11.23,185.05 -0.85,75.01 1.65,136.71 7.53,185.11 1.02,5.32 3.74,9.75 8.15,13.29 4.41,3.53 9.6,4.98 15.57,4.32 5.96,-0.66 10.7,-3.2 14.24,-7.61 3.54,-4.41 4.81,-9.61 3.83,-15.58 -4.98,-41.12 -7.6,-94.59 -7.91,-160.44 15.58,63.4 33.69,116.75 54.35,160.04 20.65,43.28 41.63,68.8 62.93,76.58 14.21,4.72 27.78,3.5 40.69,-3.68 15.6,-8.36 25.96,-22.93 31.07,-43.72 1.6,-5.19 1.06,-10.31 -1.62,-15.4 -2.68,-5.08 -6.95,-8.28 -12.8,-9.6 -5.86,-1.3 -11.17,-0.61 -15.92,2.08 -4.77,2.71 -7.96,6.98 -9.6,12.82 -2.44,8.41 -6.06,14.14 -10.83,17.17 -2.7,1.17 -5.35,1.34 -7.93,0.55 -10.98,-3.91 -24.71,-23.59 -41.18,-59.07 -16.47,-35.48 -32.35,-84.6 -47.64,-147.33 -15.3,-62.74 -25.4,-127.18 -30.29,-193.29"
        style="fill:#20214e;fill-opacity:1;fill-rule:nonzero;stroke:none" id="path68" />
      <path
        d="m 5082.75,3065.71 -0.98,-0.05 c -4.6,-0.25 -8.78,0.84 -12.53,3.27 -3.76,2.42 -6.42,5.9 -7.98,10.42 -3.97,12.29 -8.06,41.53 -12.27,87.71 -4.19,46.19 -6.86,100.36 -8,162.52 -1.13,62.16 0.39,114.74 4.6,157.78 0.98,5.99 3.68,10.73 8.1,14.28 4.4,3.53 9.43,4.97 15.07,4.29 5.62,-0.67 10.38,-3.22 14.24,-7.6 3.86,-4.4 5.3,-9.59 4.32,-15.57 -6.83,-66.88 -6.94,-154.14 -0.32,-261.74 26.99,94.98 62.06,169.36 105.17,223.1 13.54,17.2 28.35,23.3 44.43,18.26 19.46,-6.82 29.74,-26 30.85,-57.55 0.25,-4.6 0.4,-13.48 0.48,-26.64 0.34,-30.28 0.97,-53.28 1.84,-69.04 2,-36.1 6.16,-63.85 12.52,-83.25 7.78,-21.96 19.24,-32.52 34.34,-31.68 7.88,0.43 16.37,4.52 25.5,12.27 9.11,7.75 17.2,16.26 24.26,25.54 7.05,9.28 15.08,21.91 24.07,37.88 9,15.96 15.73,28.19 20.2,36.68 4.48,8.47 9.93,19.81 16.39,33.99 3.58,6.77 5.65,10.84 6.24,12.2 2.98,5.42 7.24,8.95 12.75,10.58 5.49,1.61 10.8,1.24 15.85,-1.09 5.08,-2.37 8.58,-6.29 10.53,-11.77 1.95,-5.49 1.43,-10.96 -1.56,-16.38 -1.78,-3.41 -3.88,-7.47 -6.23,-12.21 -8.87,-18.26 -15.97,-32.82 -21.29,-43.64 -5.33,-10.84 -13.44,-25.11 -24.3,-42.83 -10.87,-17.73 -20.81,-31.61 -29.79,-41.64 -9,-10.06 -19.84,-19.38 -32.53,-27.98 -12.7,-8.6 -25.28,-13.25 -37.75,-13.95 -17.07,-0.94 -32.31,3.98 -45.75,14.76 -13.43,10.77 -23.35,26.19 -29.72,46.26 -7.84,22.61 -12.87,53.93 -15.09,93.98 -0.87,15.75 -1.53,39.42 -1.95,71 -0.58,10.5 -0.72,19.04 -0.43,25.66 -0.29,5.24 -1.2,9.8 -2.73,13.68 -28.31,-35.81 -53.75,-84.81 -76.31,-146.96 -22.58,-62.14 -37.73,-124.39 -45.47,-186.71 -1.35,-11.25 -7.61,-17.2 -18.77,-17.83"
        style="fill:#20214e;fill-opacity:1;fill-rule:nonzero;stroke:none" id="path70" />
      <path
        d="m 6412.6,4127.98 c 5.2,0.94 10.21,-0.42 15.04,-4.1 4.8,-3.69 7.38,-8.49 7.7,-14.4 0.83,-3.25 0.54,-6.73 -0.91,-10.42 -1.44,-3.7 -3.75,-6.63 -6.91,-8.78 -3.18,-2.15 -6.41,-3.32 -9.69,-3.49 -179.8,-23.14 -334.63,-57.04 -464.49,-101.76 -8.98,-206.6 -11.49,-399.01 -7.56,-577.22 3.95,-178.22 15.27,-364.91 33.97,-560.1 0.97,-5.86 -0.37,-11.03 -4.07,-15.53 -3.71,-4.48 -8.51,-6.9 -14.43,-7.22 l -0.98,-0.06 c -5.26,-0.28 -10.11,1.27 -14.57,4.63 -4.48,3.38 -6.87,8.02 -7.19,13.93 -18.64,193.87 -30.05,379.23 -34.25,556.13 -4.2,176.88 -2.01,366.63 6.52,569.25 -126.4,-47.82 -254.32,-116.14 -383.72,-204.94 -3.84,-2.19 -7.37,-3.37 -10.67,-3.56 -7.87,-0.44 -14.28,2.49 -19.25,8.81 -2.86,4.44 -3.82,9.5 -2.81,15.16 1.02,5.64 4.05,10.25 9.11,13.83 137.65,94.54 274.23,166.63 409.75,216.26 -0.06,1.31 -0.16,2.96 -0.27,4.93 -0.11,1.97 -0.05,3.61 0.22,4.95 0.26,1.33 0.34,2.82 0.25,4.46 -0.09,1.63 0.15,3.13 0.73,4.48 0.33,5.95 2.52,10.84 6.6,14.69 4.07,3.84 9.08,5.6 15.02,5.27 5.94,-0.33 10.83,-2.53 14.69,-6.59 3.83,-4.08 5.59,-9.07 5.27,-15.02 l 0.11,-1.96 c 128.62,43.32 280.89,76.11 456.79,98.37"
        style="fill:#20214e;fill-opacity:1;fill-rule:nonzero;stroke:none" id="path72" />
      <path
        d="m 6199.23,3521.59 c -34.13,-25.59 -59.64,-64.53 -76.5,-116.82 28.96,12.12 53.78,30.46 74.5,54.99 20.68,24.51 31.62,44.05 32.79,58.61 0.29,6.58 -0.92,10.47 -3.6,11.64 -1.36,0.58 -3,0.83 -4.97,0.72 -6.58,-0.37 -13.99,-3.43 -22.22,-9.14 z m 151.18,-108.17 c 5.14,2.26 10.39,2.21 15.8,-0.11 5.39,-2.34 9.07,-6.26 11.02,-11.74 1.95,-5.5 1.75,-10.94 -0.57,-16.33 -7.56,-18.2 -18.24,-39.37 -32.04,-63.5 -13.82,-24.14 -32.9,-51.2 -57.24,-81.19 -24.36,-29.99 -47.71,-51.19 -70.06,-63.64 -14.7,-8.05 -29.27,-12.48 -43.71,-13.28 -34.8,-1.92 -62.77,15.96 -83.95,53.63 -13.17,23.62 -20.62,51.35 -22.38,83.2 -1.77,31.83 1.1,63.27 8.6,94.31 7.5,31.03 19.82,61 37,89.95 17.16,28.92 37.42,52.26 60.81,70.03 26.55,19.89 51.02,23.89 73.42,11.97 18.34,-10.2 26.51,-27.18 24.54,-50.99 -1.28,-12.6 -6.26,-26.86 -14.91,-42.81 -8.67,-15.96 -19.83,-31.55 -33.46,-46.79 -13.64,-15.24 -30.33,-29.18 -50.04,-41.77 -19.7,-12.62 -40.27,-21.83 -61.68,-27.62 -7.85,-48.51 -3.02,-88.07 14.48,-118.7 18.22,-31.93 42.03,-39.81 71.43,-23.7 26.22,13.95 52.88,40.78 79.99,80.47 27.09,39.68 47.68,75.4 61.73,107.12 2.31,5.39 6.06,9.23 11.22,11.49"
        style="fill:#20214e;fill-opacity:1;fill-rule:nonzero;stroke:none" id="path74" />
      <path
        d="m 6392.15,3176.71 c -0.52,-2.65 -1.19,-5.15 -2.05,-7.51 -0.86,-2.35 -2.23,-4.41 -4.1,-6.16 -1.89,-1.74 -3.97,-3.01 -6.21,-3.79 -2.29,-0.78 -4.73,-1.25 -7.35,-1.4 l -0.98,-0.06 c -3.3,-0.18 -6.44,0.48 -9.49,1.95 -3.04,1.48 -5.62,3.64 -7.76,6.48 -2.14,2.84 -3.29,5.92 -3.47,9.19 -6.63,48.36 -10.37,110.04 -11.23,185.06 -0.86,75.02 1.64,136.72 7.52,185.11 1.03,5.32 3.74,9.74 8.17,13.29 4.39,3.53 9.59,4.98 15.56,4.31 5.96,-0.65 10.7,-3.2 14.24,-7.59 3.54,-4.43 4.8,-9.61 3.83,-15.6 -4.98,-41.11 -7.6,-94.59 -7.91,-160.44 15.58,63.41 33.69,116.76 54.35,160.05 20.65,43.27 41.62,68.8 62.92,76.57 14.21,4.73 27.79,3.51 40.7,-3.68 15.6,-8.36 25.95,-22.92 31.05,-43.71 1.61,-5.19 1.08,-10.3 -1.6,-15.4 -2.69,-5.08 -6.95,-8.28 -12.81,-9.59 -5.85,-1.31 -11.16,-0.63 -15.92,2.08 -4.77,2.69 -7.96,6.96 -9.59,12.8 -2.44,8.41 -6.06,14.14 -10.83,17.18 -2.71,1.16 -5.35,1.34 -7.93,0.55 -10.99,-3.91 -24.72,-23.59 -41.18,-59.08 -16.48,-35.47 -32.35,-84.59 -47.64,-147.32 -15.29,-62.74 -25.41,-127.18 -30.29,-193.29"
        style="fill:#20214e;fill-opacity:1;fill-rule:nonzero;stroke:none" id="path76" />
      <path
        d="m 6627.48,3189.74 c -0.53,-2.65 -1.2,-5.16 -2.05,-7.51 -0.86,-2.36 -2.24,-4.41 -4.11,-6.17 -1.88,-1.73 -3.96,-3 -6.21,-3.78 -2.28,-0.79 -4.72,-1.26 -7.34,-1.4 l -0.97,-0.06 c -3.3,-0.19 -6.45,0.48 -9.5,1.94 -3.04,1.49 -5.63,3.65 -7.77,6.49 -2.13,2.84 -3.28,5.91 -3.47,9.19 -6.63,48.36 -10.36,110.04 -11.23,185.06 -0.85,75.02 1.65,136.71 7.53,185.1 1.02,5.33 3.73,9.75 8.16,13.29 4.4,3.54 9.6,4.98 15.56,4.32 5.96,-0.65 10.7,-3.2 14.25,-7.61 3.53,-4.41 4.81,-9.6 3.83,-15.58 -4.98,-41.12 -7.61,-94.59 -7.91,-160.44 15.58,63.41 33.69,116.76 54.35,160.05 20.65,43.27 41.63,68.8 62.92,76.57 14.21,4.73 27.79,3.51 40.7,-3.68 15.6,-8.36 25.96,-22.93 31.05,-43.71 1.61,-5.19 1.08,-10.31 -1.6,-15.4 -2.69,-5.08 -6.95,-8.29 -12.81,-9.6 -5.86,-1.31 -11.17,-0.62 -15.92,2.09 -4.76,2.69 -7.96,6.96 -9.59,12.8 -2.44,8.41 -6.06,14.14 -10.84,17.18 -2.69,1.16 -5.35,1.33 -7.92,0.54 -10.98,-3.9 -24.71,-23.59 -41.18,-59.07 -16.48,-35.48 -32.35,-84.59 -47.65,-147.33 -15.29,-62.74 -25.4,-127.17 -30.28,-193.28"
        style="fill:#20214e;fill-opacity:1;fill-rule:nonzero;stroke:none" id="path78" />
      <path
        d="m 6876.72,3629.22 c -9.26,0.8 -15.74,4.88 -19.43,12.25 -3.72,7.37 -3.46,14.78 0.74,22.27 4.18,7.47 11.2,11.81 21.01,13.02 5.2,0.94 10.26,-1.25 15.18,-6.56 4.89,-5.35 7.21,-11.64 6.96,-18.88 -0.33,-5.95 -3.02,-11.04 -8.04,-15.27 -5.04,-4.22 -10.5,-6.5 -16.42,-6.83 z m 176.72,-176.89 c 5.16,1.61 10.45,1.23 15.86,-1.09 5.39,-2.34 8.89,-6.27 10.52,-11.77 1.63,-5.51 1.26,-10.96 -1.07,-16.35 -1.79,-3.4 -5.04,-10.16 -9.74,-20.3 -12.48,-24.38 -22.13,-43.37 -28.95,-56.9 -6.82,-13.57 -16.86,-31.72 -30.06,-54.51 -13.23,-22.8 -25.27,-40.26 -36.11,-52.37 -10.86,-12.12 -23.42,-23.18 -37.68,-33.19 -14.26,-10.01 -28.28,-15.4 -42.07,-16.16 -7.87,-0.43 -16.16,0.43 -24.83,2.58 -33.53,10.66 -54.02,48.02 -61.52,112.14 -7.5,64.11 -0.09,138.6 22.21,223.46 1.01,5.31 4.06,9.43 9.18,12.35 5.11,2.91 10.49,3.71 16.17,2.39 5.67,-1.34 9.96,-4.56 12.87,-9.66 2.91,-5.12 3.55,-10.35 1.87,-15.7 -13.55,-52.78 -21.06,-101.41 -22.54,-145.94 -1.5,-44.53 1.36,-77.95 8.51,-100.27 7.16,-22.32 15.78,-35.18 25.83,-38.58 8.03,-2.17 16.53,-1.21 25.53,2.9 8.99,4.13 18.24,12.03 27.81,23.76 9.56,11.72 18.31,23.24 26.24,34.54 7.92,11.31 16.99,26.13 27.17,44.47 10.18,18.34 17.79,32.58 22.82,42.75 5.02,10.16 11.68,23.69 19.98,40.61 4.73,9.48 7.99,16.24 9.74,20.3 2.98,5.42 7.06,8.93 12.26,10.54"
        style="fill:#20214e;fill-opacity:1;fill-rule:nonzero;stroke:none" id="path80" />
      <path
        d="m 7385.64,3838.13 c 0.83,-3.25 0.71,-6.71 -0.41,-10.39 -1.12,-3.69 -3.08,-6.75 -5.9,-9.21 -2.83,-2.48 -6.2,-4.15 -10.09,-5 -89.11,-20.09 -172.72,-44.14 -250.82,-72.16 -19.33,-126.85 -31.51,-240.11 -36.51,-339.81 -2.71,-46.25 -3.41,-87.26 -2.08,-123.07 1.32,-35.8 3.49,-62.86 6.47,-81.13 2.99,-18.26 6.79,-33.36 11.4,-45.29 4.6,-11.92 8.12,-19.14 10.58,-21.64 2.44,-2.49 4.69,-4.34 6.72,-5.55 3.35,-1.13 7.29,-0.92 11.82,0.66 7.07,3.01 15.11,9.39 24.14,19.1 8.98,9.73 20.47,25.34 34.43,46.84 13.95,21.53 30.63,53.55 49.99,96.11 19.38,42.56 40.28,93.1 62.73,151.63 2.8,8.7 4.47,14.07 5.03,16.07 2.32,5.39 6.24,9.24 11.7,11.52 5.47,2.27 10.75,2.22 15.81,-0.11 5.07,-2.36 8.73,-6.11 10.99,-11.25 2.27,-5.16 2.56,-10.4 0.88,-15.75 -0.55,-2 -2.58,-7.05 -6.07,-15.16 -75.04,-203 -139.57,-315.54 -193.67,-337.64 -7.08,-3 -13.89,-4.71 -20.46,-5.07 -9.19,-0.51 -17.85,1.32 -25.97,5.46 -5.45,3.01 -10.22,6.03 -14.34,9.1 -4.12,3.06 -9.85,11.31 -17.17,24.72 -7.32,13.42 -13.04,30.39 -17.13,50.91 -4.11,20.51 -7.1,50.96 -9.02,91.35 -1.89,40.39 -1.7,87.31 0.61,140.77 5.33,93.79 16.88,200.45 34.63,319.95 -22.54,-9.15 -42.47,-17.83 -59.79,-26.02 -2.54,-1.48 -5.46,-2.28 -8.75,-2.46 -9.18,-0.51 -15.65,3.4 -19.41,11.76 -2.91,5.1 -3.38,10.5 -1.4,16.21 2,5.71 5.56,9.7 10.69,11.96 24.38,11.87 52.99,23.99 85.9,36.35 11.39,67.8 23.79,134.98 37.23,201.58 0.98,5.98 4.02,10.42 9.14,13.35 5.1,2.9 10.49,3.86 16.13,2.86 5.65,-1.02 9.92,-3.9 12.83,-8.67 2.89,-4.78 3.85,-10.16 2.88,-16.14 -11.96,-57.95 -22.85,-116.82 -32.7,-176.62 74.28,25.83 152.07,47.91 233.38,66.25 5.86,0.97 11.19,-0.05 15.96,-3.07 4.78,-3.04 7.98,-7.46 9.62,-13.3"
        style="fill:#20214e;fill-opacity:1;fill-rule:nonzero;stroke:none" id="path82" />
      <path
        d="m 7415.31,3373.59 c -1.37,60.5 -18.13,107.32 -50.24,140.44 -13.25,-34.31 -21.79,-67.72 -25.57,-100.18 -3.8,-32.48 -3.83,-58.82 -0.07,-79.02 3.75,-20.21 9.55,-36.01 17.45,-47.43 6.44,-9.52 12.62,-14.11 18.53,-13.79 8.53,0.48 17.54,10.35 27,29.65 9.47,19.29 13.76,42.74 12.9,70.33 z m 169.84,188.18 c 5.59,-0.35 10.34,-2.73 14.21,-7.11 3.86,-4.41 5.46,-9.43 4.78,-15.05 -0.66,-5.65 -3.2,-10.55 -7.58,-14.74 -19.51,-16.24 -44.96,-26.36 -76.34,-30.4 -31.37,-4.05 -62.43,-2.31 -93.12,5.22 19.01,-34.5 28.92,-76.43 29.68,-125.77 0.74,-37.48 -6.66,-70.17 -22.23,-98.02 -15.59,-27.85 -34.54,-42.4 -56.85,-43.64 -21.66,-1.21 -40.02,9.31 -55.08,31.52 -11.47,17.14 -19.59,38.92 -24.36,65.32 -4.74,26.41 -4.71,58.33 0.14,95.8 4.84,37.46 15.41,75.42 31.72,113.86 -2.74,1.83 -5.8,3.63 -9.19,5.42 -4.78,3.02 -7.8,7.13 -9.07,12.33 -1.27,5.2 -0.57,10.18 2.12,14.95 2.7,4.73 6.63,8.09 11.8,10.02 5.16,1.93 10.1,1.7 14.85,-0.66 10.13,-4.71 20,-10.42 29.59,-17.12 35.18,-17.16 71.44,-26.83 108.76,-29.04 37.33,-2.23 67.7,5.22 91.12,22.33 4.4,3.53 9.42,5.11 15.05,4.78"
        style="fill:#20214e;fill-opacity:1;fill-rule:nonzero;stroke:none" id="path84" />
      <path
        d="m 7621.95,3244.79 c -0.52,-2.65 -1.2,-5.16 -2.06,-7.51 -0.85,-2.36 -2.22,-4.41 -4.1,-6.17 -1.88,-1.74 -3.95,-3 -6.21,-3.8 -2.28,-0.77 -4.72,-1.25 -7.33,-1.38 l -0.99,-0.06 c -3.29,-0.19 -6.44,0.48 -9.48,1.94 -3.05,1.49 -5.64,3.65 -7.78,6.49 -2.12,2.84 -3.28,5.91 -3.46,9.19 -6.63,48.36 -10.36,110.04 -11.23,185.05 -0.85,75.02 1.65,136.71 7.53,185.11 1.01,5.32 3.73,9.75 8.15,13.29 4.4,3.54 9.6,4.98 15.57,4.32 5.95,-0.65 10.69,-3.2 14.24,-7.61 3.53,-4.41 4.81,-9.6 3.83,-15.58 -4.98,-41.12 -7.6,-94.59 -7.91,-160.44 15.58,63.41 33.69,116.75 54.35,160.05 20.65,43.27 41.63,68.79 62.92,76.57 14.22,4.72 27.79,3.5 40.7,-3.68 15.6,-8.36 25.96,-22.93 31.06,-43.71 1.6,-5.19 1.07,-10.31 -1.61,-15.4 -2.69,-5.08 -6.95,-8.29 -12.81,-9.6 -5.86,-1.31 -11.17,-0.62 -15.92,2.09 -4.76,2.69 -7.96,6.96 -9.59,12.8 -2.44,8.41 -6.06,14.14 -10.84,17.18 -2.69,1.16 -5.35,1.33 -7.93,0.54 -10.97,-3.9 -24.7,-23.59 -41.17,-59.07 -16.48,-35.48 -32.35,-84.59 -47.64,-147.33 -15.3,-62.74 -25.4,-127.17 -30.29,-193.28"
        style="fill:#20214e;fill-opacity:1;fill-rule:nonzero;stroke:none" id="path86" />
      <path
        d="m 8152.22,3210.94 c 1.96,47.51 -0.42,96.77 -7.2,147.74 -58.79,-55.92 -105.82,-116.47 -141.06,-181.63 -22.07,-41.38 -39.2,-85.62 -51.4,-132.72 -12.23,-47.1 -14.36,-88.85 -6.41,-125.3 8.6,-36.39 24.83,-55.91 48.67,-58.54 15.2,-1.13 31.31,5.36 48.31,19.46 29.51,26.01 54.28,69.02 74.34,129.06 20.03,60.04 31.63,127.35 34.75,201.93 z m -81.69,-362.06 c -21.34,-18.97 -43.5,-29.08 -66.47,-30.34 -4.6,-0.26 -8.88,-0.16 -12.85,0.27 -21.21,2.13 -39.32,11.16 -54.34,27.12 -15.05,15.95 -25.29,37.28 -30.7,63.97 -6.91,29.25 -7.62,63.13 -2.18,101.61 5.44,38.5 16.66,79.61 33.67,123.35 16.99,43.75 42.77,89.62 77.32,137.61 34.54,48 75.35,93.07 122.4,135.17 -14.58,72.93 -35.76,140.25 -63.53,201.92 -24.06,-28.98 -46.98,-73.07 -68.72,-132.2 -4,-11.42 -10.27,-28.88 -18.83,-52.4 -9.17,-24.87 -16.06,-43.2 -20.67,-54.97 -4.61,-11.79 -10.4,-26.26 -17.35,-43.43 -6.94,-17.18 -13.03,-29.52 -18.19,-37.06 -5.19,-7.53 -11.16,-15.43 -17.94,-23.71 -6.8,-8.28 -13.74,-13.59 -20.86,-15.97 -7.11,-2.36 -14.99,-2.8 -23.62,-1.3 -15.23,1.13 -28.14,8.66 -38.78,22.54 -12.87,18.39 -21.2,47.06 -25.01,86.03 -3.8,38.95 -4.33,75.47 -1.62,109.54 2.73,34.05 6.62,64.72 11.7,92 1.68,5.35 4.89,9.65 9.65,12.88 4.76,3.24 9.96,4.33 15.63,3.33 5.63,-1.01 10.08,-3.88 13.31,-8.64 3.23,-4.76 4.01,-10.15 2.37,-16.16 -9.23,-47.28 -13.43,-96.4 -12.58,-147.36 0.85,-50.99 7.74,-86.34 20.69,-106.03 2.87,-4.43 5.64,-6.92 8.31,-7.43 5.28,-0.36 10.69,3.06 16.22,10.27 5.53,7.23 11.92,19.43 19.21,36.62 7.27,17.19 13.35,32.18 18.25,44.96 4.88,12.78 12.19,32.29 21.95,58.5 7.99,22.18 14.25,39.64 18.83,52.4 16.59,45.03 35.47,84.44 56.66,118.21 21.17,33.77 39.97,51.1 56.39,52.01 10.49,0.57 17.99,-3.95 22.48,-13.58 31.09,-62.15 55.06,-132.26 71.89,-210.34 35.92,28.99 74.59,55.81 116.03,80.5 5.07,3.56 10.45,4.53 16.14,2.87 5.67,-1.66 9.98,-4.88 12.87,-9.66 2.89,-4.78 3.68,-10.02 2.37,-15.67 -1.35,-5.69 -4.57,-9.98 -9.67,-12.88 -46.55,-27.62 -89.29,-58.28 -128.24,-92.04 10.05,-62.66 13.74,-123.34 11.07,-182.1 -3.4,-81.17 -16.33,-154.15 -38.75,-218.94 -22.42,-64.77 -50.59,-111.94 -84.51,-141.47"
        style="fill:#20214e;fill-opacity:1;fill-rule:nonzero;stroke:none" id="path88" />
      <path
        d="m 1371.33,3190.06 c 0.01,0.02 -0.05,0.02 -0.04,0.03 3.37,0.92 6.77,1.73 10,3.21 l 2.12,0.68 z m 26.01,-5.28 c 0.89,3.33 1.56,6.45 2.06,9.49 l 0.11,-1.32 z m 12.41,84.57 c -12.87,12.56 -30.04,22.06 -47.02,27.46 -21.6,6.87 -41.45,4.65 -63.23,-2.23 -12.87,-4.14 -24.17,-20.92 -25.75,-34.04 -0.52,-4.32 -0.18,-8.81 0.58,-13.29 -0.29,-0.76 -0.7,-1.45 -0.91,-2.25 -3.96,-13.9 -5.88,-22.66 -4.5,-36.86 0.84,-8.56 4.02,-17.01 7.61,-24.5 14.8,-30.32 50.24,-49.27 82.11,-50.1 31.43,-0.6 64.5,12.88 78.09,40.52 16.73,33.03 -0.77,69.62 -26.98,95.29"
        style="fill:#e74b1e;fill-opacity:1;fill-rule:nonzero;stroke:none" id="path90" />
      <path
        d="m 1471.74,3383.37 c 0.01,0.01 -0.05,0.02 -0.04,0.03 3.49,0.42 6.99,0.73 10.43,1.71 l 2.2,0.37 z m 28.43,-1.22 -3.39,-7.73 c 1.39,3.13 2.53,6.08 3.48,8.99 z m 20.97,74.32 c -10.95,14.21 -26.64,25.99 -42.72,33.71 -20.47,9.83 -40.5,10.48 -63.09,6.85 -13.63,-2.04 -26.66,-17.29 -29.91,-30.12 -1.15,-4.18 -1.48,-8.65 -1.39,-13.19 -0.4,-0.68 -0.9,-1.29 -1.24,-2.02 -5.99,-13.07 -9.19,-21.39 -9.93,-35.55 -0.48,-8.51 1.43,-17.3 4.19,-25.4 10.65,-32.33 42.41,-56.03 74.07,-61.64 15.8,-2.83 31.82,-1.64 46.33,3.18 14.81,4.67 27.81,13.15 36.84,25.84 21.03,30.7 9.1,69.37 -13.15,98.34"
        style="fill:#e74b1e;fill-opacity:1;fill-rule:nonzero;stroke:none" id="path92" />
      <path
        d="m 1626.37,3557.52 -0.27,-1.24 -4.45,-7.19 c 1.82,2.91 3.37,5.68 4.72,8.43 z m -28.4,3.78 c 0.02,0.01 -0.04,0.03 -0.03,0.04 3.53,-0.06 7.05,-0.22 10.61,0.29 l 2.24,0.06 z m 58.66,66.07 c -9,15.48 -23.05,29.16 -38.03,38.89 -19.06,12.4 -38.89,15.69 -61.8,15.13 -13.72,-0.26 -28,-14.15 -33.24,-26.05 -1.71,-3.96 -2.63,-8.32 -3.15,-12.79 -0.5,-0.61 -1.07,-1.15 -1.51,-1.82 -7.67,-12.09 -12.1,-19.72 -14.59,-33.72 -1.35,-8.56 -0.44,-17.65 1.08,-25.93 6.08,-33.28 34.26,-61.08 64.96,-70.97 30.7,-9.82 64.46,-4.44 86.39,17.87 13.01,13.63 17.08,30.81 16.06,48.38 -0.78,17.35 -7.12,35.44 -16.17,51.01"
        style="fill:#e74b1e;fill-opacity:1;fill-rule:nonzero;stroke:none" id="path94" />
      <path
        d="m 1745.97,3722.01 c 0.01,0 -0.04,0.03 -0.02,0.03 3.5,-0.49 6.98,-1.09 10.6,-1.04 l 2.25,-0.21 z m 27.82,-7.31 -0.43,-1.19 -5.36,-6.56 c 2.18,2.65 4.08,5.2 5.79,7.75 z m 5.43,108.94 c -17.34,14.46 -37.07,20.63 -59.37,22.3 -13.38,1.11 -29.51,-10.51 -36.13,-21.67 -2.18,-3.69 -3.64,-7.87 -4.72,-12.21 -0.57,-0.55 -1.21,-1 -1.72,-1.61 -9.28,-10.8 -14.31,-18.12 -18.28,-31.89 -2.43,-8.26 -2.69,-17.33 -2.23,-25.69 1.8,-33.6 26.21,-64.71 55.5,-78.41 29.45,-13.78 63.63,-12.49 88.03,7.23 29.3,23.68 25.78,65.99 12.01,98.82 -7.05,16.41 -19.37,31.66 -33.09,43.13"
        style="fill:#e74b1e;fill-opacity:1;fill-rule:nonzero;stroke:none" id="path96" />
      <path
        d="m 1932.25,3846.35 c 2.49,2.49 4.67,4.86 6.69,7.24 l -0.59,-1.18 c -2.66,-2.56 -5.28,-5.18 -7.85,-7.85 z m -19.87,17.54 c 0.02,0.01 -0.03,0.04 -0.02,0.05 3.39,-0.84 6.74,-1.79 10.28,-2.08 l 2.18,-0.43 z m 44.46,97.44 c -15.75,16.58 -34.02,24.03 -56.19,28.58 -13.2,2.7 -30.61,-6.84 -38.5,-17.08 -2.63,-3.31 -4.56,-7.28 -6.1,-11.48 -0.63,-0.48 -1.33,-0.85 -1.93,-1.4 -10.08,-10.11 -15.93,-16.77 -21.57,-29.82 -3.39,-7.86 -4.73,-16.8 -5.26,-25.11 -2.21,-33.42 18.33,-67.15 45.88,-84.25 27.5,-16.96 62.41,-20.54 88.33,-2.89 32.07,20 33.75,62.03 23.33,96.85 -5.14,17.1 -15.64,33.62 -27.99,46.6"
        style="fill:#e74b1e;fill-opacity:1;fill-rule:nonzero;stroke:none" id="path98" />
      <path
        d="m 2093.9,3986.04 c 0.02,0 -0.03,0.04 -0.02,0.05 3.28,-1.23 6.52,-2.56 10.02,-3.26 l 2.12,-0.68 z m 25.34,-12.94 -0.73,-1.19 -6.59,-5.36 c 2.69,2.21 5.11,4.36 7.32,6.55 z m 29.55,104.9 c -13.76,18.01 -31.22,27.64 -52.74,34.68 -12.82,4.17 -31.22,-3.15 -40.13,-12.49 -2.89,-3.16 -5.2,-6.97 -7.17,-11.02 -0.67,-0.43 -1.39,-0.75 -2.01,-1.26 -11.19,-8.83 -17.78,-14.73 -24.87,-26.97 -4.28,-7.39 -6.63,-16.07 -8.11,-24.24 -6,-32.81 11.05,-69.33 36.22,-88.94 25.2,-19.6 59.83,-27.56 87.64,-12.97 33.72,17.11 40.66,57.9 33.99,93.77 -3.32,17.68 -11.99,35.28 -22.82,49.44"
        style="fill:#e74b1e;fill-opacity:1;fill-rule:nonzero;stroke:none" id="path100" />
      <path
        d="m 2287.64,4088.28 c 0.02,0 -0.03,0.04 -0.01,0.04 3.14,-1.57 6.24,-3.23 9.67,-4.29 l 2.05,-0.91 z m 23.92,-15.64 -0.78,-1 -7.14,-4.61 c 2.9,1.86 5.5,3.7 7.92,5.61 z m 39.88,101.59 c -11.96,19.29 -28.4,30.65 -49.12,39.88 -12.36,5.54 -31.33,0.13 -40.93,-8.64 -3.28,-2.9 -6,-6.56 -8.41,-10.5 -0.62,-0.31 -1.35,-0.29 -1.94,-0.66 -12,-7.53 -19.13,-12.66 -27.43,-24.02 -4.98,-6.91 -8.28,-15.07 -10.49,-23.27 -9.04,-32.56 3.74,-70.09 26.86,-92.49 22.93,-21.97 56.5,-33.07 86.06,-21.73 35.22,14.22 46.44,53.66 43.28,90.03 -1.55,17.88 -8.48,36.23 -17.88,51.4"
        style="fill:#e74b1e;fill-opacity:1;fill-rule:nonzero;stroke:none" id="path102" />
      <path
        d="m 2513.01,4153.65 -0.87,-0.93 -7.59,-3.91 c 3.08,1.58 5.86,3.17 8.46,4.84 z m -22.44,17.84 c 0.02,-0.01 -0.03,0.04 -0.01,0.04 3,-1.86 5.93,-3.81 9.26,-5.2 l 1.96,-1.1 z m 71.32,79.77 c -10.21,20.29 -25.58,33.13 -45.36,44.25 -11.85,6.86 -30.92,2.39 -41.35,-5.08 -3.43,-2.49 -6.41,-5.74 -9.11,-9.29 -0.73,-0.27 -1.49,-0.43 -2.2,-0.78 -12.62,-6.31 -20.18,-10.69 -29.48,-21.17 -5.54,-6.5 -9.45,-14.69 -12.44,-22.5 -12.06,-31.41 -2.95,-69.96 17.99,-94.5 20.91,-24.39 53.07,-37.78 83.82,-29.53 36.68,10.63 51.15,49.79 51.4,85.84 0.04,17.92 -5.24,36.81 -13.27,52.76"
        style="fill:#e74b1e;fill-opacity:1;fill-rule:nonzero;stroke:none" id="path104" />
      <path
        d="m 2700.23,4236.81 c 2.84,-2.11 5.61,-4.32 8.81,-5.98 l -8.8,5.93 c 0.02,0 -0.02,0.05 -0.01,0.05 z m 19.99,-20.59 -7.91,-3.23 c 3.21,1.3 6.13,2.64 8.86,4.07 z m 57.59,94.21 c -8.56,20.98 -22.9,35.29 -41.61,47.7 -11.15,7.36 -30.54,4.93 -41.5,-1.68 -3.61,-2.18 -6.84,-5.15 -9.81,-8.45 -0.75,-0.2 -1.52,-0.29 -2.25,-0.58 -13.08,-5.13 -20.95,-8.83 -30.97,-18.87 -6.05,-5.98 -10.64,-13.75 -14.28,-21.25 -14.64,-30.13 -8.91,-69.3 9.89,-95.59 18.85,-26.38 49.75,-42.05 81.22,-36.36 37.73,7.14 55.19,45.77 58.35,81.45 1.48,17.84 -2.3,37.07 -9.04,53.63"
        style="fill:#e74b1e;fill-opacity:1;fill-rule:nonzero;stroke:none" id="path106" />
      <path
        d="m 2924.65,4260.74 c 3.41,1.08 6.49,2.24 9.41,3.49 l -1.04,-0.79 -10.76,-3.52 z m -10,24.57 c 0.03,0 -0.01,0.06 0,0.06 2.67,-2.27 5.26,-4.63 8.33,-6.48 l 1.78,-1.4 z m 82.69,67.98 c -7.07,21.71 -20.28,36.57 -38.02,50.3 -10.57,8.21 -30.03,7.29 -41.41,1.56 -3.76,-1.86 -7.19,-4.57 -10.39,-7.64 -0.75,-0.15 -1.52,-0.18 -2.26,-0.41 -13.36,-4.25 -21.42,-7.68 -32.16,-16.71 -6.47,-5.47 -11.62,-12.84 -15.81,-20.01 -16.85,-28.8 -14.18,-68.28 2.58,-95.98 16.75,-27.6 46.65,-46.31 78.42,-42.29 38.36,4.12 58.64,41.39 64.27,77.06 2.75,17.67 0.33,37.12 -5.22,54.12"
        style="fill:#e74b1e;fill-opacity:1;fill-rule:nonzero;stroke:none" id="path108" />
      <path
        d="m 3140.82,4293.5 c 3.38,0.92 6.48,1.89 9.41,2.97 l -1.1,-0.74 z m -8.64,25.18 c 2.45,-2.38 4.82,-4.83 7.67,-6.85 l -7.67,6.8 c 0.02,0 -0.01,0.05 0,0.05 z m 86.9,62.52 c -5.67,21.97 -17.9,37.68 -34.69,52.62 -10,8.91 -29.42,9.34 -41.12,4.41 -3.85,-1.68 -7.43,-4.2 -10.8,-7.09 -0.77,-0.12 -1.54,-0.11 -2.3,-0.31 -13.57,-3.49 -21.82,-6.17 -33.11,-14.45 -6.81,-4.99 -12.43,-11.96 -17.09,-18.81 -18.74,-27.4 -18.75,-67.45 -3.95,-95.91 14.81,-28.57 43.52,-49.6 75.59,-47.6 38.62,1.98 61.42,37.28 69.26,72.74 3.86,17.56 2.67,37.14 -1.79,54.4"
        style="fill:#e74b1e;fill-opacity:1;fill-rule:nonzero;stroke:none" id="path110" />
      <path
        d="m 3368.39,4315.08 -1.11,-0.65 -8.45,-1.7 c 3.43,0.68 6.57,1.45 9.56,2.35 z m -16.78,23.33 c 2.24,-2.46 4.42,-4.96 7.07,-7.1 l -7.08,7.05 c 0.02,-0.01 0,0.05 0.01,0.05 z m 90,57.84 c -4.64,22.24 -16.05,38.61 -31.87,54.47 -9.39,9.57 -28.63,10.67 -40.47,6.29 -3.91,-1.46 -7.6,-3.77 -11.1,-6.45 -0.77,-0.06 -1.52,-0.01 -2.29,-0.15 -13.63,-2.62 -21.96,-4.77 -33.64,-12.31 -7.04,-4.55 -13.02,-11.13 -18.06,-17.69 -20.31,-26.68 -22.82,-66.26 -9.76,-95.74 12.97,-29.13 40.56,-51.9 73.03,-51.96 38.96,0.12 63.93,34.33 73.43,69.14 4.7,17.31 4.39,36.92 0.73,54.4"
        style="fill:#e74b1e;fill-opacity:1;fill-rule:nonzero;stroke:none" id="path112" />
      <path
        d="m 3588.81,4325.21 -1.13,-0.63 -8.54,-1.5 c 3.47,0.6 6.64,1.3 9.67,2.13 z m -16.28,23.7 c 2.17,-2.5 4.29,-5.04 6.89,-7.23 l -6.9,7.18 c 0.02,-0.01 -0.01,0.06 0.01,0.05 z m 91.03,56.2 c -4.39,22.29 -15.54,38.77 -30.96,54.8 -9.2,9.55 -27.96,11.3 -39.72,7.16 -3.88,-1.37 -7.57,-3.59 -11.1,-6.18 -0.75,-0.05 -1.5,0.02 -2.26,-0.1 -13.54,-2.3 -21.81,-4.26 -33.57,-11.52 -7.09,-4.37 -13.21,-10.83 -18.4,-17.25 -20.85,-25.77 -25,-65.2 -12.9,-95.19 12.05,-29.85 39.28,-53.19 72.19,-53.96 39.68,-0.95 65.55,33.09 75.39,67.85 4.91,17.27 4.78,36.87 1.33,54.39"
        style="fill:#e74b1e;fill-opacity:1;fill-rule:nonzero;stroke:none" id="path114" />
      <path
        d="m 3811.03,4334.07 -1.13,-0.65 -8.62,-1.63 c 3.5,0.65 6.7,1.4 9.75,2.28 z m -16.61,23.5 c 2,-2.26 3.99,-4.53 6.35,-6.51 l -6.36,6.45 c 0.02,-0.01 -0.01,0.06 0.01,0.06 z m 90.15,57.58 c -4.88,22.21 -16.32,38.51 -31.87,54.29 -9.28,9.41 -27.83,10.86 -39.35,6.55 -3.79,-1.42 -7.4,-3.69 -10.83,-6.33 -0.74,-0.06 -1.48,0 -2.22,-0.13 -13.25,-2.54 -21.49,-4.39 -33.07,-11.72 -6.99,-4.4 -13.03,-10.87 -18.16,-17.3 -20.6,-25.83 -24.88,-65.28 -12.72,-95.24 12.11,-29.75 39.64,-53.18 73.13,-53.57 40.41,-0.32 65.85,34.18 74.97,69.07 4.55,17.34 3.95,36.93 0.12,54.38"
        style="fill:#e74b1e;fill-opacity:1;fill-rule:nonzero;stroke:none" id="path116" />
      <path
        d="m 4034.63,4349.44 -1.11,-0.69 -8.57,-1.99 c 3.48,0.79 6.66,1.68 9.68,2.68 z m -17.74,22.74 c 2.11,-2.16 4.21,-4.33 6.67,-6.21 l -6.67,6.16 c 0.02,-0.01 -0.01,0.05 0,0.05 z m 87.09,62.08 c -6.18,21.91 -18.33,37.1 -34.5,52.11 -9.67,9.01 -28.02,9.69 -39.17,4.91 -3.67,-1.57 -7.12,-3.99 -10.39,-6.77 -0.73,-0.09 -1.46,-0.06 -2.18,-0.23 -13,-3.02 -20.91,-5.43 -32.01,-13.33 -6.69,-4.78 -12.47,-11.28 -17.31,-17.89 -19.48,-26.4 -22.59,-65.96 -9.37,-95.54 13.11,-29.5 41.88,-51.94 75.93,-50.47 40.97,1.38 64.98,37.01 72.05,72.86 3.56,17.67 1.77,37.19 -3.05,54.35"
        style="fill:#e74b1e;fill-opacity:1;fill-rule:nonzero;stroke:none" id="path118" />
      <path
        d="m 4238.97,4400.5 c 0.02,0 -0.02,0.06 0,0.06 2.31,-2.01 4.6,-4.05 7.25,-5.75 z m 18.61,-22.08 -8.47,-2.6 c 3.45,1.06 6.59,2.18 9.55,3.4 z m 62.52,91.8 c -8.28,21.16 -21.91,35.48 -39.09,48.72 -10.27,7.93 -27.95,6.3 -38.64,1.09 -3.47,-1.81 -6.66,-4.44 -9.64,-7.43 -0.72,-0.14 -1.44,-0.16 -2.14,-0.38 -12.55,-3.9 -20.14,-6.84 -30.46,-15.47 -6.23,-5.21 -11.33,-12.37 -15.6,-19.39 -17.08,-28.36 -17.79,-67.36 -2.42,-96.26 15.14,-28.34 45.98,-47.77 80.37,-44.08 20.64,1.95 36.39,12.89 47.24,28.01 10.88,14.9 16.9,33.46 18.76,51.44 1.85,17.87 -1.89,37.11 -8.38,53.75"
        style="fill:#e74b1e;fill-opacity:1;fill-rule:nonzero;stroke:none" id="path120" />
      <path
        d="m 4480.34,4432.67 -0.9,-0.89 c -2.11,-1.04 -4.24,-2.04 -6.36,-3.07 2.56,1.3 5.02,2.6 7.26,3.96 z m -22.22,18.42 c 0.02,0 -0.02,0.05 -0.01,0.06 1.44,-0.99 2.94,-1.88 4.47,-2.73 -1.49,0.9 -2.97,1.75 -4.46,2.67 z m 71.2,79.81 c -11.21,19.86 -26.73,32.4 -45.46,43.52 -11.19,6.63 -28.42,3.29 -37.8,-3.84 -3.04,-2.39 -5.73,-5.5 -8.2,-8.91 -0.68,-0.25 -1.39,-0.38 -2.05,-0.71 -11.55,-5.79 -18.88,-8.9 -27.93,-18.61 -5.51,-5.76 -9.69,-13.35 -13.09,-20.73 -13.57,-29.59 -9.87,-69.26 8.62,-95.76 18.24,-26.2 51.78,-42.94 86.04,-34.68 41.1,11.4 57.21,51.98 55.74,87.78 -0.62,17.83 -7.07,36.32 -15.87,51.94"
        style="fill:#e74b1e;fill-opacity:1;fill-rule:nonzero;stroke:none" id="path122" />
      <path
        d="m 4668.11,4534.45 c 2.61,-1.15 5.22,-2.29 8.04,-3.08 l -8.02,3.02 c 0.02,0 -0.04,0.05 -0.02,0.06 z m 25.13,-14.44 -0.8,-1.06 -7.41,-5.13 c 3.01,2.07 5.71,4.11 8.21,6.19 z m 56.1,57.1 c -3.96,17.66 -13.72,34.67 -25.14,48.32 -14.55,17.36 -31.75,26.5 -51.58,33.59 -12.15,4.72 -28.6,-0.87 -36.61,-9.19 -2.7,-2.8 -4.87,-6.37 -6.75,-10.21 -0.54,-0.31 -1.21,-0.29 -1.72,-0.65 -10.37,-7.35 -16.47,-12.35 -23.49,-23.66 -4.14,-7 -7.15,-14.81 -9.34,-22.48 -8.73,-30.74 0.89,-69.29 23.45,-92.79 11.22,-11.7 25.76,-20.38 41.83,-24.56 15.76,-3.48 32.89,-1.97 49.21,5.25 19.64,8.75 32.06,23.82 38.35,40.9 5.97,17.79 5.75,37.78 1.79,55.48"
        style="fill:#e74b1e;fill-opacity:1;fill-rule:nonzero;stroke:none" id="path124" />
      <path
        d="m 6863.64,7423.32 c 0.02,0.01 -0.03,0.04 -0.01,0.05 3.27,-1.23 6.5,-2.56 9.98,-3.27 l 2.11,-0.69 z m 17.98,-19.52 c 2.67,2.17 5.05,4.3 7.23,6.48 l -0.68,-1.14 z m 59.62,61.24 c -3.06,17.73 -11.4,35.49 -22,49.81 -13.47,18.23 -30.85,28.07 -52.53,35.26 -12.86,4.18 -31.85,-2.78 -40.82,-12.49 -2.95,-3.19 -5.31,-7.03 -7.32,-11.11 -0.68,-0.44 -1.41,-0.76 -2.06,-1.28 -11.35,-8.95 -18.04,-14.92 -25.25,-27.24 -4.33,-7.43 -6.71,-16.14 -8.19,-24.3 -5.78,-33.24 11.83,-69.37 37.16,-88.73 25.12,-18.9 59.81,-27.37 87.03,-12.94 32.91,16.96 40.17,56.86 33.98,93.02"
        style="fill:#fbca07;fill-opacity:1;fill-rule:nonzero;stroke:none" id="path126" />
      <path
        d="m 7058.3,7521.09 c 0.02,-0.01 -0.03,0.04 -0.01,0.04 3.07,-1.7 6.08,-3.5 9.45,-4.72 l 2,-0.99 z m 22.32,-17.66 -7.27,-4.27 c 2.95,1.72 5.61,3.44 8.08,5.24 z m 60.55,47.93 c -0.54,17.94 -6.34,36.67 -14.86,52.35 -10.81,19.96 -26.66,32.23 -47.1,42.53 -12.23,6.34 -31.73,1.62 -41.88,-6.87 -3.39,-2.71 -6.27,-6.15 -8.85,-9.87 -0.73,-0.32 -1.49,-0.52 -2.19,-0.91 -12.52,-7.08 -19.99,-11.94 -28.89,-22.99 -5.38,-6.61 -8.98,-14.85 -11.49,-23.03 -10.32,-32.44 1.52,-70.26 23.88,-93.36 11.14,-11.55 24.82,-19.98 39.4,-24.58 14.74,-4.89 30.24,-5.65 45,-0.66 35.03,12.55 48.02,50.88 46.98,87.39"
        style="fill:#fbca07;fill-opacity:1;fill-rule:nonzero;stroke:none" id="path128" />
      <path
        d="m 7285.66,7571.55 -0.94,-0.85 -7.82,-3.21 c 3.17,1.29 6.05,2.63 8.76,4.06 z m -20.79,19.71 c 0.01,0 -0.03,0.05 -0.01,0.05 2.83,-2.11 5.59,-4.31 8.77,-5.98 l 1.86,-1.27 z m 86.25,19.16 c 1.78,17.81 -1.58,37.13 -8.02,53.79 -8.17,21.21 -22.31,35.5 -41.2,48.48 -11.27,7.83 -30.98,4.95 -42.21,-1.63 -3.7,-2.2 -7,-5.19 -10.04,-8.5 -0.76,-0.22 -1.54,-0.31 -2.29,-0.6 -13.3,-5.29 -21.37,-8.89 -31.59,-18.77 -6.11,-6.14 -10.7,-14.04 -14.32,-21.64 -14.58,-30.53 -8.04,-69.57 11.03,-95.57 19.12,-25.96 49.62,-41.39 80.47,-36.16 18.54,3.42 31.89,14.95 41.37,29.79 9.53,14.51 15,32.88 16.8,50.81"
        style="fill:#fbca07;fill-opacity:1;fill-rule:nonzero;stroke:none" id="path130" />
      <path
        d="m 7478.97,7634.72 c 0.02,0 -0.01,0.05 0,0.04 2.55,-2.45 5.02,-4.98 7.99,-7.05 l 1.69,-1.5 z m 18.26,-22.22 -1.04,-0.72 -8.19,-2.17 c 3.32,0.87 6.35,1.82 9.23,2.89 z m 68.25,85.08 c -5.57,21.87 -17.94,38.43 -35.03,52.86 -10.19,8.74 -30.07,8.79 -41.98,3.62 -3.92,-1.71 -7.56,-4.24 -10.97,-7.12 -0.78,-0.11 -1.57,-0.1 -2.35,-0.3 -13.84,-3.31 -22.21,-6.29 -33.5,-15.12 -6.8,-5.27 -12.33,-12.47 -16.86,-19.51 -18.24,-28.28 -16.69,-67.79 -0.99,-96.06 15.78,-28.42 44.24,-47.42 75.56,-45.73 37.62,2 59.57,38.35 67.65,73.01 3.91,17.43 2.87,37.01 -1.53,54.35"
        style="fill:#fbca07;fill-opacity:1;fill-rule:nonzero;stroke:none" id="path132" />
      <path
        d="m 7702.78,7626.28 c 3.47,0.56 6.63,1.2 9.67,1.95 l -1.17,-0.61 c -3.66,-0.52 -7.32,-1.1 -10.97,-1.77 z m -5.81,25.86 c 0.01,-0.01 -0.01,0.05 0,0.05 2.25,-2.67 4.42,-5.4 7.12,-7.71 l 1.51,-1.63 z m 93.13,52.88 c -3.05,22.67 -13.48,39.42 -28.78,56.1 -9.11,9.92 -28.81,12.39 -41.2,8.72 -4.08,-1.14 -7.96,-3.22 -11.67,-5.72 -0.8,-0.02 -1.58,0.09 -2.39,-0.01 -14.09,-2.28 -22.73,-4.25 -34.95,-11.51 -7.36,-4.38 -13.68,-10.84 -18.98,-17.26 -21.38,-25.78 -24.51,-65.16 -12.21,-95.16 12.34,-29.85 38.52,-53.22 69.87,-54.12 37.71,-2.58 63.7,30.48 75.67,64.8 5.86,16.87 7.04,36.41 4.64,54.16"
        style="fill:#fbca07;fill-opacity:1;fill-rule:nonzero;stroke:none" id="path134" />
      <path
        d="m 7915.63,7644.71 c 0.02,-0.01 0,0.05 0.01,0.05 1.94,-2.92 3.78,-5.89 6.21,-8.51 l 1.32,-1.8 z m 12.95,-25.34 -1.29,-0.54 -8.49,-0.48 c 3.48,0.22 6.7,0.55 9.78,1.02 z m 85.42,67.67 c -0.59,22.66 -9.09,40.7 -22.41,59.01 -7.93,10.89 -27.13,15.75 -39.82,13.41 -4.2,-0.87 -8.31,-2.6 -12.27,-4.74 -0.8,0.05 -1.56,0.22 -2.37,0.17 -14.25,-0.6 -23.04,-1.51 -35.97,-7.28 -7.79,-3.47 -14.78,-9.13 -20.77,-14.88 -24.09,-23.07 -31.68,-62.65 -22.79,-93.29 8.94,-30.65 32.33,-57.4 63.42,-61.88 37.34,-5.9 66.87,23.08 82.49,56.05 7.68,16.27 10.97,35.61 10.49,53.43"
        style="fill:#fbca07;fill-opacity:1;fill-rule:nonzero;stroke:none" id="path136" />
      <path
        d="m 8132.52,7613.99 c 0.02,-0.01 0.01,0.05 0.02,0.04 1.63,-3.11 3.16,-6.28 5.32,-9.15 l 1.13,-1.93 z m 10.22,-26.69 -1.22,-0.36 -8.48,0.45 c 3.43,-0.19 6.62,-0.22 9.7,-0.09 z m 91.85,58.93 c 1.63,22.64 -5.03,41.48 -16.42,61.1 -6.76,11.74 -25.3,18.47 -38.22,16.99 -4.37,-0.43 -8.72,-1.8 -12.97,-3.58 -0.68,0.11 -1.26,0.56 -1.96,0.61 -14.14,0.93 -22.92,0.96 -36.31,-3.39 -8.07,-2.68 -15.54,-7.35 -22.13,-12.7 -26.41,-21.09 -38.05,-58.98 -32.45,-90.68 5.7,-31.24 26.39,-59.91 56.99,-68.04 36.87,-9.13 69.07,16.24 87.84,47.56 9.22,15.4 14.36,34.33 15.63,52.13"
        style="fill:#fbca07;fill-opacity:1;fill-rule:nonzero;stroke:none" id="path138" />
      <path
        d="m 8353.44,7534.85 -1.26,-0.24 -8.43,1.29 c 3.42,-0.53 6.6,-0.88 9.69,-1.05 z m -7.73,27.61 c 0.01,-0.01 0.01,0.05 0.02,0.04 1.34,-3.26 2.57,-6.57 4.45,-9.64 l 0.95,-2.04 z m 104.54,22.83 c 3.63,22.43 -1.31,41.83 -10.81,62.44 -5.58,12.5 -23.65,20.06 -36.48,20.12 -4.24,-0.01 -8.56,-0.89 -12.82,-2.19 -0.76,0.21 -1.46,0.53 -2.24,0.66 -13.92,2.29 -22.62,3.16 -36.3,0.13 -8.3,-2.02 -16.27,-6.37 -23.27,-10.94 -28.17,-18.38 -43.39,-54.96 -40.81,-87.11 2.65,-32.02 20.85,-61.72 50.61,-73.06 35.95,-12.88 70.62,10.36 91.95,39.42 10.54,14.5 17.33,32.9 20.17,50.53"
        style="fill:#fbca07;fill-opacity:1;fill-rule:nonzero;stroke:none" id="path140" />
      <path
        d="m 8553.87,7492.5 c 1.06,-3.38 2.01,-6.79 3.63,-10.02 l -3.65,9.97 c 0.01,-0.01 0.01,0.05 0.02,0.05 z m 4.12,-28.41 -8.3,2.03 c 3.37,-0.83 6.52,-1.46 9.57,-1.9 z m 101.88,42.58 c 5.37,22.02 2.14,42.02 -5.75,63.04 -4.71,12.5 -21.85,21.89 -34.61,22.96 -4.2,0.35 -8.56,-0.16 -12.9,-1.09 -0.72,0.27 -1.4,0.65 -2.16,0.84 -13.6,3.51 -22.15,5.13 -36.15,2.87 -8.41,-1.3 -16.68,-4.91 -24.03,-8.85 -29.52,-15.83 -47.83,-50.92 -48.01,-83.24 -0.19,-32.43 15.66,-63.24 44.49,-77.07 34.75,-16.33 71.54,4.73 95.02,31.79 11.65,13.58 19.87,31.39 24.1,48.75"
        style="fill:#fbca07;fill-opacity:1;fill-rule:nonzero;stroke:none" id="path142" />
      <path
        d="m 8749.73,7380.34 c 3.4,-1.12 6.57,-1.99 9.67,-2.68 l -1.31,-0.03 -10.78,3.45 z m 6.3,25.77 c 0.01,-0.02 0.02,0.06 0.03,0.05 0.83,-3.41 1.55,-6.83 2.95,-10.13 l 0.62,-2.18 z m 106.83,6.61 c 7,21.74 5.01,41.52 -1.31,63.04 -3.76,12.85 -20.06,23.51 -32.64,25.54 -4.14,0.7 -8.51,0.51 -12.9,-0.11 -0.7,0.32 -1.33,0.75 -2.07,1 -13.32,4.39 -21.85,6.33 -35.85,5.31 -8.45,-0.64 -16.94,-3.59 -24.53,-6.95 -30.54,-13.46 -51.52,-47.01 -54.17,-79.27 -2.61,-32.18 10.65,-64.86 38.75,-80.23 33.49,-19.14 71.76,-0.84 97.23,24.76 12.59,12.71 22.03,29.88 27.49,46.91"
        style="fill:#fbca07;fill-opacity:1;fill-rule:nonzero;stroke:none" id="path144" />
      <path
        d="m 8944.07,7280.18 c 3.28,-1.24 6.36,-2.26 9.37,-3.1 l -1.34,0.04 z m 7.76,25.47 c 0.58,-3.37 1.07,-6.74 2.2,-10.04 l -2.23,10 c 0.01,-0.02 0.02,0.05 0.03,0.04 z m 107.05,-0.28 c 8.28,21.12 7.58,41.01 2.74,62.96 -2.88,13.08 -18.36,24.81 -30.73,27.68 -4.1,0.89 -8.48,0.95 -12.91,0.58 -0.69,0.36 -1.31,0.82 -2.05,1.1 -13.03,5.13 -21.29,7.79 -35.29,7.7 -8.44,-0.05 -17.08,-2.4 -24.87,-5.22 -31.24,-11.22 -54.73,-43.66 -59.42,-75.39 -4.74,-31.84 6.19,-65.7 33.35,-82.88 32.45,-21.03 71.61,-5.79 98.74,18.34 13.42,11.97 23.94,28.52 30.44,45.13"
        style="fill:#fbca07;fill-opacity:1;fill-rule:nonzero;stroke:none" id="path146" />
      <path
        d="m 9141.1,7164.28 -1.28,0.12 -7.84,3.58 c 3.17,-1.46 6.17,-2.68 9.12,-3.7 z m 0.08,28.73 c 0.37,-3.3 0.67,-6.61 1.57,-9.89 l -1.61,9.86 c 0.02,-0.02 0.03,0.04 0.04,0.03 z m 106.82,-5.89 c 9.28,20.74 9.63,40.69 6.1,62.82 -1.99,13.26 -16.94,25.43 -29.1,28.81 -4.02,1.11 -8.36,1.4 -12.77,1.29 -0.66,0.39 -1.24,0.88 -1.94,1.21 -12.59,5.88 -20.6,9.01 -34.48,9.75 -8.37,0.44 -17.07,-1.38 -25,-3.74 -32.09,-9.72 -57.32,-40.32 -64.02,-71.85 -6.57,-31.21 2.44,-65.82 28.71,-84.91 31.64,-22.74 71.92,-9.65 100.03,12.98 13.95,11.27 25.18,27.34 32.47,43.64"
        style="fill:#fbca07;fill-opacity:1;fill-rule:nonzero;stroke:none" id="path148" />
      <path
        d="m 9325.62,7043.29 -1.29,0.15 -7.79,3.79 c 3.16,-1.54 6.14,-2.84 9.08,-3.94 z m 0.71,28.75 c 0.29,-3.3 0.52,-6.6 1.34,-9.9 l -1.38,9.86 c 0.01,-0.02 0.02,0.05 0.04,0.04 z m 106.69,-7.83 c 9.51,20.63 10.13,40.52 7.04,62.55 -1.86,13.13 -16.04,25.54 -27.99,29.08 -3.95,1.17 -8.24,1.53 -12.62,1.5 -0.64,0.4 -1.2,0.9 -1.89,1.24 -12.31,6.08 -20.16,9.34 -33.95,10.35 -8.3,0.61 -17.05,-1.03 -25.01,-3.19 -32,-8.66 -58.47,-38.17 -66.25,-69.57 -7.73,-31.24 0.65,-66.12 26.86,-86.03 31.59,-24.02 72.51,-11.61 100.85,10.79 14.1,11.1 25.49,27.07 32.96,43.28"
        style="fill:#fbca07;fill-opacity:1;fill-rule:nonzero;stroke:none" id="path150" />
      <path
        d="m 9510.86,6920.22 -1.29,0.13 -7.94,3.74 c 3.21,-1.53 6.25,-2.8 9.23,-3.87 z m 0.32,28.78 c 0.3,-3.01 0.58,-6.02 1.33,-9 l -1.38,8.95 c 0.02,-0.01 0.03,0.06 0.05,0.05 z m 106.79,-6.19 c 9.07,20.85 9.35,40.76 6,62.66 -2,13.07 -16.19,25.11 -28.05,28.37 -3.9,1.08 -8.15,1.35 -12.48,1.22 -0.64,0.39 -1.2,0.87 -1.88,1.2 -12.22,5.71 -19.98,9.04 -33.65,9.89 -8.25,0.53 -16.93,-1.17 -24.86,-3.38 -31.83,-8.85 -58.43,-38.31 -66.13,-69.71 -7.63,-31.2 0.95,-66.32 27.85,-86.26 32.56,-23.95 73.39,-10.91 101.22,12.02 13.86,11.38 24.86,27.6 31.98,43.99"
        style="fill:#fbca07;fill-opacity:1;fill-rule:nonzero;stroke:none" id="path152" />
      <path
        d="m 9701.03,6801.61 -1.3,0.09 -8.11,3.41 c 3.29,-1.39 6.38,-2.54 9.41,-3.5 z m -1.03,28.82 c 0.44,-2.98 0.86,-5.97 1.75,-8.94 l -1.79,8.9 c 0.01,-0.01 0.02,0.05 0.04,0.04 z m 106.94,-0.74 c 7.83,21.37 6.89,40.8 2.59,62.43 -2.55,12.97 -17.02,24.28 -28.86,26.94 -3.9,0.88 -8.11,0.94 -12.39,0.61 -0.64,0.35 -1.21,0.81 -1.89,1.1 -12.31,5.16 -20.13,7.85 -33.75,7.95 -8.22,0.05 -16.72,-1.83 -24.52,-4.35 -31.25,-9.97 -56.95,-40.2 -63.58,-71.91 -6.68,-31.59 3.48,-66.63 31.94,-85.4 34,-22.89 74.33,-8.1 101.08,16.8 13.24,12.23 23.23,29.1 29.38,45.83"
        style="fill:#fbca07;fill-opacity:1;fill-rule:nonzero;stroke:none" id="path154" />
      <path
        d="m 9896.52,6723.22 c 0.02,-0.02 0.02,0.05 0.04,0.04 0.69,-2.99 1.35,-5.98 2.5,-8.91 z m 2.14,-28.81 -8.39,2.85 c 3.42,-1.15 6.62,-2.09 9.73,-2.84 l -1.34,-0.01"
        style="fill:#fbca07;fill-opacity:1;fill-rule:nonzero;stroke:none" id="path156" />
      <path
        d="m 5693.77,7949.56 c 6.52,-9.32 13.26,-18.49 20.18,-27.53 -8.5,2.87 -17.77,4.28 -27.8,3.9 -8.05,-0.32 -15.69,-1.71 -22.94,-3.92 10.26,9.11 20.44,18.3 30.56,27.55 z m 426.12,-238.52 c -0.64,1.54 -1.36,3.07 -2.15,4.59 -57.46,109.48 -131.63,209.46 -212.4,302.77 -19.99,23.08 -40.43,45.76 -61.22,68.12 -20.65,22.21 -40.77,46.02 -64.82,64.6 -13.83,10.68 -29.42,19.86 -46.81,23.23 -5.88,1.14 -13.34,2.3 -19.73,2.05 -4.14,-0.16 -8.57,-1.58 -12.76,-1.74 4.04,0.36 12.24,1.87 -0.86,0.11 -9,-1.21 -17.65,-2.58 -26.28,-5.5 -30.15,-10.18 -58.71,-26.45 -85.13,-44.01 -51.43,-34.19 -97.42,-75.7 -144.65,-115.27 -47.3,-39.62 -93.19,-80.66 -136.16,-124.97 -21.76,-22.43 -42.8,-45.55 -63.01,-69.39 -13.2,-15.56 -26.74,-31.41 -31.91,-51.69 -6.11,-23.93 0.57,-51.77 19.3,-68.49 30.03,-26.82 70.99,-21.15 104.75,-5.56 26.72,12.34 52.35,28.23 77.42,43.59 64.76,39.66 126.13,84.73 184.85,133.01 -8.12,-13.82 -14.22,-28.93 -19.83,-43.86 -22.16,-60.6 -34.32,-124.26 -43.44,-187.97 -9.71,-67.76 -17.19,-135.88 -25.27,-203.85 -8.53,-71.67 -14.56,-143.64 -17.63,-215.75 -1.51,-35.77 -2.3,-71.58 -2.3,-107.38 0.01,-18.57 0.13,-37.16 0.66,-55.72 0.46,-16.29 1.48,-33.72 7.23,-49.1 8.9,-23.79 24.67,-43.2 49.55,-51.31 19.36,-6.31 42.3,-2.36 58.88,9.28 32.08,22.52 45.59,58.44 56.56,94.52 19.92,65.54 36.43,132.1 50.23,199.19 28.79,140.02 46.17,282.36 57.8,424.76 2.83,34.66 5.51,69.37 7.51,104.09 1.24,21.46 0.41,44.48 -4.94,65.75 18.4,-21.95 36.92,-43.81 55.64,-65.44 29.67,-34.28 60.68,-67.42 93.15,-99.06 16.23,-15.82 32.82,-31.27 49.79,-46.3 20.68,-18.32 41.47,-39.26 67.72,-49.06 37.02,-13.82 80.92,7.17 90.85,46.08 6.64,26 0.54,52.02 -10.59,75.68"
        style="fill:#e74b1e;fill-opacity:1;fill-rule:nonzero;stroke:none" id="path158" />
      <path
        d="m 6513.65,7203.29 c -1.32,-8.1 -2.46,-16.23 -3.44,-24.38 -2.94,5.76 -7.02,11.16 -12.39,16 -4.32,3.9 -8.97,7.03 -13.83,9.54 9.89,-0.47 19.78,-0.85 29.66,-1.16 z m 100.02,-337.77 c 0.44,1.12 0.85,2.27 1.2,3.45 25.44,85.49 37.47,174.48 42.73,263.35 1.3,21.99 2.16,44 2.68,66.02 0.51,21.86 2.11,44.29 -0.96,66 -1.77,12.48 -5.2,25.07 -12.48,35.57 -2.47,3.55 -5.74,7.91 -9.17,11 -2.22,2 -5.22,3.49 -7.46,5.52 2.27,-1.85 7.26,-5.2 -0.39,0.49 -5.26,3.91 -10.42,7.55 -16.34,10.39 -20.71,9.93 -43.65,15.9 -66.14,20.13 -43.78,8.24 -88.44,9.95 -132.76,13.29 -44.38,3.35 -88.75,5.25 -133.26,4 -22.53,-0.63 -45.05,-1.98 -67.49,-4.11 -14.65,-1.4 -29.63,-2.77 -42.51,-10.64 -15.2,-9.28 -25.77,-27.03 -24.51,-45.1 2,-28.97 26.02,-46.67 51.31,-55.61 20.01,-7.08 41.26,-11.78 61.93,-16.47 53.43,-12.12 107.82,-19.74 162.47,-24.37 -11.15,-3.04 -21.91,-7.78 -32.33,-12.67 -41.96,-20.14 -80.3,-46.9 -117.09,-75.22 -39.13,-30.12 -77.29,-61.54 -115.69,-92.58 -40.49,-32.73 -79.85,-66.87 -117.74,-102.57 -18.79,-17.72 -37.23,-35.82 -55.25,-54.32 -9.35,-9.59 -18.64,-19.25 -27.72,-29.11 -7.96,-8.65 -16.21,-18.16 -20.98,-29 -7.39,-16.78 -9.01,-34.74 -0.25,-51.45 6.83,-13.02 20.67,-22.52 35.09,-24.86 27.91,-4.52 52.98,7.23 76.81,20.35 43.29,23.83 85.33,49.89 126.24,77.6 85.38,57.84 166.02,122.61 243.73,190.31 18.92,16.48 37.77,33.07 56.29,49.99 11.45,10.46 22.61,22.78 30.55,36.45 -1.54,-20.6 -2.99,-41.21 -4.21,-61.81 -1.93,-32.65 -2.59,-65.38 -1.75,-98.08 0.42,-16.34 1.21,-32.68 2.41,-48.99 1.45,-19.87 1.65,-41.16 10.28,-59.44 12.16,-25.77 45.41,-37.03 70.13,-21.94 16.52,10.09 26.47,26.6 32.63,44.43"
        style="fill:#fbca07;fill-opacity:1;fill-rule:nonzero;stroke:none" id="path160" />
    </g>
  </g>
</svg>