<svg width="34" height="44" viewBox="0 0 34 44" fill="none" xmlns="http://www.w3.org/2000/svg">
<path d="M17.3273 8.12695C17.5608 8.46081 17.8023 8.7893 18.0501 9.11312C17.7457 9.01032 17.4136 8.9598 17.0543 8.97341C16.7659 8.98487 16.4923 9.03468 16.2326 9.11384C16.6001 8.78751 16.9648 8.4583 17.3273 8.12695ZM32.5915 16.6711C32.5685 16.6159 32.5428 16.5611 32.5145 16.5066C30.4562 12.5849 27.7993 9.00351 24.906 5.66102C24.1899 4.83426 23.4577 4.02183 22.713 3.22086C21.9733 2.42527 21.2526 1.57236 20.3911 0.906799C19.8956 0.524227 19.3372 0.195389 18.7143 0.0746689C18.5036 0.0338326 18.2364 -0.00771332 18.0075 0.00124359C17.8592 0.00697327 17.7005 0.0578308 17.5504 0.0635643C17.6952 0.0506668 17.9889 -0.00341797 17.5196 0.0596275C17.1972 0.10297 16.8874 0.152046 16.5782 0.256645C15.4982 0.621307 14.4752 1.20413 13.5288 1.83315C11.6865 3.05788 10.0391 4.54481 8.34721 5.96226C6.65286 7.3815 5.00902 8.85162 3.46977 10.4389C2.6903 11.2423 1.93663 12.0705 1.21268 12.9245C0.739836 13.4819 0.25481 14.0497 0.0696134 14.7761C-0.149255 15.6333 0.0900246 16.6306 0.760958 17.2295C1.83667 18.1902 3.30392 17.9871 4.51325 17.4287C5.47039 16.9866 6.38851 16.4174 7.28655 15.8672C9.60634 14.4466 11.8047 12.8321 13.9081 11.1026C13.6172 11.5977 13.3987 12.139 13.1978 12.6738C12.404 14.8445 11.9684 17.1249 11.6417 19.4071C11.2939 21.8343 11.0259 24.2745 10.7365 26.7093C10.4309 29.2766 10.2149 31.8547 10.105 34.4377C10.0509 35.7191 10.0226 37.0018 10.0226 38.2842C10.0229 38.9494 10.0272 39.6154 10.0462 40.2802C10.0627 40.8637 10.0992 41.4881 10.3052 42.039C10.624 42.8912 11.1889 43.5865 12.0802 43.877C12.7737 44.1031 13.5954 43.9616 14.1893 43.5446C15.3385 42.7379 15.8224 41.4512 16.2154 40.1588C16.9289 37.811 17.5203 35.4268 18.0147 33.0235C19.046 28.0078 19.6685 22.909 20.0851 17.808C20.1865 16.5665 20.2825 15.3231 20.3542 14.0794C20.3986 13.3107 20.3689 12.486 20.1772 11.7241C20.8363 12.5104 21.4997 13.2935 22.1703 14.0683C23.2331 15.2962 24.344 16.4834 25.5071 17.6167C26.0885 18.1834 26.6827 18.7369 27.2906 19.2753C28.0314 19.9315 28.7761 20.6816 29.7164 21.0327C31.0425 21.5277 32.6151 20.7758 32.9708 19.382C33.2087 18.4507 32.9902 17.5186 32.5915 16.6711Z" fill="#E74B1E"/>
</svg>
