<svg width="109" height="37" viewBox="0 0 109 37" fill="none" xmlns="http://www.w3.org/2000/svg">
<path d="M3.23356 12.9776C3.23428 12.9772 3.23248 12.9761 3.2332 12.9758C3.35033 13.0198 3.46603 13.0675 3.59069 13.0929L3.66629 13.1176L3.23356 12.9776ZM3.87763 13.6768C3.97327 13.5991 4.05853 13.5228 4.13662 13.4447L4.11225 13.4855L3.87763 13.6768ZM6.0133 11.4831C5.90369 10.848 5.60494 10.2118 5.22523 9.69884C4.74272 9.04582 4.12014 8.69335 3.34353 8.43579C2.88287 8.28606 2.20262 8.53537 1.88131 8.88319C1.77563 8.99746 1.69108 9.13503 1.61908 9.28118C1.59473 9.29694 1.56857 9.30839 1.54529 9.32702C1.13872 9.64762 0.899073 9.86147 0.640801 10.3028C0.485694 10.5689 0.400442 10.881 0.347426 11.1733C0.140379 12.364 0.771198 13.6582 1.67855 14.3517C2.57839 15.0287 3.82102 15.3321 4.79608 14.8152C5.97496 14.2077 6.23504 12.7784 6.0133 11.4831Z" fill="#FBCA07"/>
<path d="M10.2065 9.47533C10.2073 9.47569 10.2055 9.4739 10.2062 9.4739C10.3162 9.5348 10.424 9.59926 10.5447 9.64297L10.6164 9.67844L10.2065 9.47533ZM11.0061 10.1079L10.7457 10.2609C10.8513 10.1993 10.9466 10.1377 11.0351 10.0732L11.0061 10.1079ZM13.1751 8.39102C13.1557 7.74839 12.948 7.07745 12.6428 6.51577C12.2555 5.80078 11.6878 5.36124 10.9556 4.99228C10.5175 4.76517 9.81897 4.93425 9.45538 5.23837C9.33395 5.33545 9.23078 5.45868 9.13836 5.59194C9.11221 5.6034 9.08499 5.61057 9.05991 5.62454C8.61143 5.87815 8.34384 6.05224 8.02503 6.44806C7.83231 6.68484 7.70336 6.98002 7.61345 7.27304C7.24378 8.43508 7.6679 9.78984 8.46886 10.6173C8.86791 11.0311 9.35794 11.333 9.88022 11.4978C10.4082 11.673 10.9635 11.7002 11.4922 11.5214C12.747 11.0719 13.2123 9.69886 13.1751 8.39102Z" fill="#FBCA07"/>
<path d="M18.3509 7.66781L18.3172 7.69824L18.0371 7.81323C18.1506 7.76702 18.2538 7.71903 18.3509 7.66781ZM17.6062 6.96177C17.6065 6.96177 17.6051 6.95997 17.6058 6.95997C17.7072 7.03555 17.806 7.11436 17.92 7.17418L17.9866 7.21967L17.6062 6.96177ZM20.6958 6.27543C20.7595 5.63745 20.6392 4.94538 20.4085 4.3486C20.1158 3.58883 19.6093 3.07694 18.9326 2.61198C18.5289 2.3315 17.8229 2.43466 17.4206 2.67036C17.2881 2.74917 17.1699 2.85628 17.061 2.97484C17.0337 2.98273 17.0058 2.98595 16.9789 2.99634C16.5025 3.18584 16.2134 3.31479 15.8473 3.66871C15.6285 3.88865 15.4641 4.17165 15.3344 4.44389C14.8121 5.53751 15.0464 6.93597 15.7295 7.86733C16.4144 8.79725 17.5069 9.34998 18.612 9.16263C19.2762 9.04012 19.7544 8.6271 20.094 8.09551C20.4353 7.57575 20.6313 6.91771 20.6958 6.27543Z" fill="#FBCA07"/>
<path d="M25.2755 5.40495C25.2762 5.40495 25.2752 5.40317 25.2755 5.40353C25.3669 5.49129 25.4553 5.58191 25.5617 5.65607L25.6223 5.7098L25.2755 5.40495ZM25.9296 6.20091L25.8924 6.22671L25.599 6.30444C25.7179 6.27327 25.8265 6.23924 25.9296 6.20091ZM28.3744 3.15322C28.1749 2.36981 27.7318 1.77661 27.1196 1.25971C26.7546 0.946633 26.0425 0.944838 25.6158 1.13003C25.4754 1.19129 25.345 1.28192 25.2229 1.38509C25.1949 1.38903 25.1666 1.38866 25.1387 1.39583C24.6429 1.51439 24.3431 1.62115 23.9387 1.93745C23.6951 2.12623 23.497 2.38415 23.3347 2.63633C22.6813 3.64936 22.7369 5.06465 23.2992 6.07732C23.8645 7.09536 24.884 7.77596 26.0059 7.71543C27.3535 7.64378 28.1398 6.34169 28.4292 5.10012C28.5693 4.47575 28.532 3.77437 28.3744 3.15322Z" fill="#FBCA07"/>
<path d="M33.2927 5.70729C33.417 5.68723 33.5302 5.6643 33.6391 5.63743L33.5972 5.65928C33.4661 5.6779 33.335 5.69868 33.2042 5.72268L33.2927 5.70729ZM33.0846 4.78094C33.085 4.78129 33.0842 4.77915 33.0846 4.77915C33.1652 4.87479 33.2429 4.97259 33.3396 5.05533L33.3937 5.11372L33.0846 4.78094ZM36.4206 2.88671C36.3114 2.07464 35.9378 1.47463 35.3897 0.877126C35.0634 0.521779 34.3577 0.43331 33.9139 0.564774C33.7677 0.60561 33.6287 0.680109 33.4958 0.769662C33.4672 0.770379 33.4392 0.766448 33.4102 0.77003C32.9055 0.851702 32.596 0.922262 32.1582 1.18232C31.8946 1.33922 31.6682 1.57064 31.4784 1.80061C30.7125 2.72408 30.6004 4.13472 31.041 5.20936C31.483 6.27863 32.4208 7.11577 33.5438 7.14801C34.8946 7.24043 35.8256 6.05619 36.2544 4.8268C36.4643 4.22249 36.5066 3.52254 36.4206 2.88671Z" fill="#FBCA07"/>
<path d="M40.9173 5.04712C40.918 5.04748 40.9173 5.04533 40.9176 5.04533C40.9871 5.14993 41.053 5.25631 41.1401 5.35017L41.1874 5.41464L40.9173 5.04712ZM41.3812 5.95483L41.3349 5.97417L41.0308 5.99136C41.1555 5.98348 41.2708 5.97166 41.3812 5.95483ZM44.441 3.5308C44.4199 2.71909 44.1154 2.07288 43.6383 1.41699C43.3542 1.02689 42.6664 0.852797 42.2119 0.936619C42.0614 0.967783 41.9142 1.02975 41.7723 1.1064C41.7437 1.10461 41.7164 1.09852 41.6874 1.10032C41.177 1.12181 40.8621 1.15442 40.3989 1.3611C40.1199 1.4854 39.8695 1.68815 39.6549 1.89412C38.792 2.72052 38.5201 4.13833 38.8386 5.2359C39.1588 6.33382 39.9967 7.29204 41.1103 7.45252C42.4479 7.66387 43.5057 6.62577 44.0652 5.44474C44.3403 4.86193 44.4582 4.16913 44.441 3.5308Z" fill="#FBCA07"/>
<path d="M48.6866 6.14752C48.6873 6.14788 48.6869 6.14575 48.6873 6.14611C48.7457 6.25751 48.8005 6.37106 48.8778 6.47387L48.9183 6.54299L48.6866 6.14752ZM49.0527 7.10361L49.009 7.1165L48.7052 7.10037C48.8281 7.10718 48.9423 7.10827 49.0527 7.10361ZM52.3428 4.99265C52.4012 4.18166 52.1627 3.50678 51.7547 2.80396C51.5125 2.38342 50.8484 2.14235 50.3856 2.19537C50.229 2.21077 50.0732 2.25983 49.921 2.32359C49.8966 2.31965 49.8758 2.30354 49.8508 2.30175C49.3442 2.26843 49.0297 2.26736 48.5501 2.42319C48.261 2.51919 47.9934 2.68648 47.7574 2.87813C46.8113 3.6336 46.3944 4.99086 46.595 6.12639C46.7991 7.24545 47.5403 8.27245 48.6364 8.56368C49.9572 8.89073 51.1106 7.98194 51.783 6.86001C52.1132 6.30837 52.2974 5.63027 52.3428 4.99265Z" fill="#FBCA07"/>
<path d="M56.6002 8.98244L56.5551 8.99104L56.2531 8.94483C56.3756 8.96382 56.4896 8.97635 56.6002 8.98244ZM56.3233 7.99341C56.3237 7.99377 56.3237 7.99162 56.3241 7.99198C56.3721 8.10876 56.4161 8.22733 56.4834 8.3373L56.5175 8.41038L56.3233 7.99341ZM60.0681 7.17561C60.1981 6.37214 60.0212 5.67721 59.6809 4.93893C59.481 4.49116 58.8337 4.22035 58.3741 4.2182C58.2222 4.21856 58.0675 4.25008 57.9149 4.29664C57.8876 4.28912 57.8626 4.27767 57.8347 4.27301C57.336 4.19098 57.0243 4.1598 56.5343 4.26834C56.237 4.3407 55.9515 4.49654 55.7008 4.66024C54.6917 5.31864 54.1465 6.62898 54.2389 7.78064C54.3338 8.92764 54.9858 9.99153 56.0518 10.3977C57.3396 10.8591 58.5815 10.0266 59.3456 8.98567C59.7231 8.46626 59.9664 7.80714 60.0681 7.17561Z" fill="#FBCA07"/>
<path d="M63.7799 10.4995C63.8179 10.6205 63.8519 10.7427 63.9099 10.8584L63.7792 10.5012C63.7795 10.5016 63.7795 10.4995 63.7799 10.4995ZM63.9275 11.5171L63.6302 11.4444C63.7509 11.4741 63.8637 11.4967 63.973 11.5125L63.9275 11.5171ZM67.577 9.99187C67.7693 9.20308 67.6536 8.48665 67.371 7.73369C67.2023 7.28592 66.5883 6.94956 66.1312 6.91123C65.9807 6.89869 65.8246 6.91696 65.6691 6.95027C65.6433 6.9406 65.619 6.92699 65.5917 6.92019C65.1046 6.79445 64.7983 6.73642 64.2968 6.81738C63.9955 6.86394 63.6993 6.99326 63.436 7.1344C62.3785 7.70145 61.7227 8.95841 61.7162 10.1162C61.7094 11.2778 62.2772 12.3815 63.3099 12.8769C64.5547 13.4619 65.8726 12.7075 66.7136 11.7382C67.131 11.2517 67.4254 10.6137 67.577 9.99187Z" fill="#FBCA07"/>
<path d="M70.7959 14.5172C70.9177 14.5573 71.0312 14.5885 71.1423 14.6132L71.0953 14.6143L70.7092 14.4907L70.7959 14.5172ZM71.0215 13.5941C71.0219 13.5948 71.0222 13.5919 71.0226 13.5923C71.0523 13.7144 71.0781 13.8369 71.1283 13.9552L71.1505 14.0332L71.0215 13.5941ZM74.8483 13.3573C75.0991 12.5785 75.0278 11.87 74.8014 11.0991C74.6667 10.6388 74.0828 10.257 73.6322 10.1842C73.4839 10.1592 73.3273 10.166 73.1701 10.1882C73.145 10.1767 73.1225 10.1613 73.096 10.1524C72.6188 9.9951 72.3132 9.9256 71.8117 9.96214C71.5091 9.98507 71.2049 10.0907 70.933 10.2111C69.8391 10.6933 69.0875 11.8951 68.9926 13.0507C68.8991 14.2034 69.3741 15.374 70.3807 15.9246C71.5803 16.6102 72.9512 15.9547 73.8636 15.0377C74.3146 14.5824 74.6528 13.9673 74.8483 13.3573Z" fill="#FBCA07"/>
<path d="M77.7574 18.1051C77.8749 18.1495 77.9852 18.186 78.093 18.2161L78.045 18.2147L77.7574 18.1051ZM78.0354 17.1927C78.0561 17.3134 78.0737 17.4341 78.1142 17.5523L78.0343 17.1941C78.0346 17.1948 78.035 17.1923 78.0354 17.1927ZM81.87 17.2027C82.1666 16.4462 82.1416 15.7337 81.9682 14.9474C81.865 14.4789 81.3105 14.0587 80.8674 13.9559C80.7205 13.924 80.5636 13.9219 80.405 13.9351C80.3802 13.9222 80.358 13.9057 80.3315 13.8957C79.8647 13.7119 79.5689 13.6166 79.0674 13.6199C78.765 13.6217 78.4555 13.7058 78.1765 13.8069C77.0574 14.2088 76.216 15.3708 76.048 16.5074C75.8782 17.648 76.2697 18.8609 77.2426 19.4763C78.405 20.2296 79.8078 19.6837 80.7796 18.8193C81.2604 18.3906 81.6372 17.7977 81.87 17.2027Z" fill="#FBCA07"/>
<path d="M84.8152 22.2568L84.7694 22.2525L84.4886 22.1242C84.6021 22.1765 84.7096 22.2202 84.8152 22.2568ZM84.8181 21.2276C84.8314 21.3458 84.8421 21.4644 84.8744 21.5819L84.8167 21.2287C84.8174 21.2294 84.8178 21.2273 84.8181 21.2276ZM88.6446 21.4386C88.977 20.6957 88.9895 19.981 88.8631 19.1883C88.7918 18.7133 88.2563 18.2774 87.8207 18.1563C87.6767 18.1165 87.5212 18.1061 87.3633 18.1101C87.3396 18.0961 87.3188 18.0785 87.2937 18.0667C86.8428 17.8561 86.5558 17.744 86.0586 17.7175C85.7588 17.7017 85.4471 17.7669 85.1631 17.8515C84.0136 18.1996 83.1098 19.2958 82.8698 20.4252C82.6345 21.5432 82.9572 22.783 83.8982 23.4668C85.0316 24.2814 86.4745 23.8125 87.4815 23.0018C87.9812 22.5981 88.3834 22.0225 88.6446 21.4386Z" fill="#FBCA07"/>
<path d="M91.425 26.5908L91.3788 26.5854L91.0997 26.4496C91.2129 26.5048 91.3197 26.5514 91.425 26.5908ZM91.4504 25.5609C91.4608 25.6791 91.4691 25.7973 91.4984 25.9155L91.449 25.5623C91.4494 25.5631 91.4497 25.5606 91.4504 25.5609ZM95.2722 25.8414C95.6129 25.1024 95.6351 24.3899 95.5244 23.6008C95.4577 23.1304 94.9498 22.6859 94.5218 22.5591C94.3803 22.5172 94.2266 22.5043 94.0697 22.5054C94.0468 22.491 94.0267 22.4731 94.002 22.4609C93.561 22.2431 93.2798 22.1264 92.7859 22.0902C92.4885 22.0683 92.1751 22.1271 91.8899 22.2044C90.7437 22.5147 89.7955 23.5718 89.5168 24.6965C89.2399 25.8156 89.5401 27.065 90.479 27.7783C91.6106 28.6387 93.0763 28.1941 94.0915 27.3917C94.5966 26.9941 95.0046 26.4221 95.2722 25.8414Z" fill="#FBCA07"/>
<path d="M98.0606 30.9993L98.0143 30.9947L97.7299 30.8607C97.8449 30.9155 97.9538 30.961 98.0606 30.9993ZM98.072 29.9684C98.0827 30.0762 98.0928 30.184 98.1196 30.2908L98.0702 29.9702C98.0709 29.9705 98.0713 29.968 98.072 29.9684ZM101.897 30.1901C102.222 29.4432 102.232 28.73 102.112 27.9455C102.041 27.4773 101.532 27.0461 101.108 26.9293C100.968 26.8906 100.816 26.8809 100.66 26.8856C100.638 26.8716 100.617 26.8544 100.593 26.8426C100.155 26.6381 99.8774 26.5188 99.3877 26.4883C99.0922 26.4693 98.7813 26.5302 98.4972 26.6094C97.357 26.9264 96.4042 27.9817 96.1283 29.1065C95.855 30.2241 96.1623 31.4822 97.1259 32.1965C98.2923 33.0544 99.7549 32.5873 100.752 31.7659C101.248 31.3582 101.642 30.7772 101.897 30.1901Z" fill="#FBCA07"/>
<path d="M104.873 35.2481L104.826 35.2449L104.536 35.1227C104.654 35.1725 104.764 35.2137 104.873 35.2481ZM104.836 34.2157C104.852 34.3225 104.867 34.4296 104.899 34.536L104.834 34.2171C104.835 34.2175 104.835 34.2154 104.836 34.2157ZM108.667 34.2422C108.947 33.4767 108.913 32.7807 108.759 32.0059C108.668 31.5413 108.15 31.1362 107.726 31.0409C107.586 31.0094 107.435 31.0072 107.282 31.019C107.259 31.0065 107.238 30.99 107.214 30.9796C106.773 30.7948 106.493 30.6984 106.005 30.6948C105.711 30.693 105.406 30.7604 105.127 30.8507C104.007 31.2078 103.087 32.2907 102.849 33.4266C102.61 34.5582 102.974 35.8134 103.993 36.4857C105.211 37.3057 106.656 36.7759 107.614 35.8839C108.088 35.4458 108.446 34.8415 108.667 34.2422Z" fill="#FBCA07"/>
</svg>
