<svg width="58" height="57" viewBox="0 0 58 57" fill="none" xmlns="http://www.w3.org/2000/svg">
<g id="airplane (2)" clip-path="url(#clip0_3171_5389)">
<path id="Vector" d="M6.99024 32.4056C6.49954 32.6359 6.28304 33.2155 6.50172 33.7108L8.7431 38.5224C8.85322 38.762 9.05411 38.9485 9.30118 39.0405C9.40942 39.0798 9.52422 39.1001 9.63965 39.1001C9.78408 39.1014 9.92664 39.0705 10.058 39.0109L26.9926 31.1011L25.4587 47.1388C25.4291 47.4545 25.5507 47.7649 25.7869 47.9758C26.5293 48.5903 27.4546 48.9403 28.4173 48.9718C28.6827 48.9715 28.9467 48.9381 29.204 48.8726C30.5788 48.5139 31.6447 47.2889 32.3719 45.1966L39.0361 25.4631L52.2348 19.3065C56.1198 17.4937 58.122 13.818 56.7774 10.949C56.0144 9.44941 54.5529 8.42932 52.8824 8.22936C51.0263 7.94923 49.1293 8.24122 47.4435 9.06664L32.2122 16.2088L15.8359 9.80347C13.7736 9.02671 12.1403 9.04668 10.9948 9.87366C10.0336 10.6623 9.48679 11.8477 9.51019 13.0908C9.52017 13.4062 9.67895 13.6979 9.9385 13.8782L20.9657 21.4586L14.6505 24.4471L4.06101 21.7572C3.62709 21.6505 3.17538 21.8461 2.95545 22.2354L0.316029 26.9867C0.179082 27.2385 0.157557 27.5373 0.25707 27.8062C0.355959 28.0754 0.566214 28.2885 0.834181 28.3914L8.67384 31.6292L6.99024 32.4056ZM11.5519 12.5929C11.6106 12.1718 11.8236 11.7884 12.1499 11.517C12.718 11.1084 13.754 11.1683 15.1384 11.6861L29.7222 17.3742L23.0676 20.4822L11.5519 12.5929ZM2.58704 26.977L4.32024 23.899L14.5108 26.4289C14.7304 26.4845 14.9622 26.4636 15.1687 26.3697L48.2905 10.8994C49.6072 10.2499 51.0902 10.0134 52.5439 10.2218C53.5634 10.3157 54.4715 10.904 54.9747 11.7956C55.8107 13.589 54.1673 16.2088 51.3878 17.5037L39.9124 22.8833L40.6099 20.8207C40.7862 20.29 40.4982 19.7167 39.9676 19.5407C39.4364 19.3648 38.8633 19.6527 38.6874 20.1834L30.4889 44.5786C30.0007 45.9637 29.3931 46.7907 28.7158 46.9694C28.2962 47.0502 27.862 46.9679 27.5004 46.7408L29.4929 25.8213C29.545 25.2713 29.1416 24.7831 28.591 24.731C28.0411 24.6783 27.5529 25.0823 27.5004 25.6322L27.1919 28.8297L10.0976 36.7989L8.69381 33.8104L11.5023 32.4958C11.8639 32.3364 12.0969 31.9789 12.0969 31.5843C12.0969 31.1893 11.8639 30.8318 11.5023 30.6727L2.58704 26.977Z" fill="white"/>
</g>
<defs>
<clipPath id="clip0_3171_5389">
<rect width="57" height="57" fill="white" transform="translate(0.195312)"/>
</clipPath>
</defs>
</svg>
