<svg width="57" height="57" viewBox="0 0 57 57" fill="none" xmlns="http://www.w3.org/2000/svg">
<g id="car (5)">
<g id="Group">
<path id="Vector" d="M52.7406 25.9791L49.594 23.4083L45.8859 11.2909C45.7329 10.797 45.4559 10.3506 45.0812 9.99429C44.7065 9.638 44.2467 9.38375 43.7457 9.25582C38.7519 8.06871 33.6328 7.49094 28.5 7.53513C23.3673 7.49094 18.2481 8.06871 13.2543 9.25582C12.7532 9.38376 12.2933 9.63807 11.9185 9.99444C11.5438 10.3508 11.2667 10.7973 11.1137 11.2913L7.406 23.4083L4.25942 25.9791C3.65786 26.4691 3.17322 27.0871 2.8408 27.7882C2.50838 28.4892 2.33658 29.2556 2.3379 30.0314V39.0592C2.3392 39.8269 2.63398 40.565 3.16186 41.1224C3.68974 41.6797 4.41076 42.0141 5.17721 42.0571V46.9043C5.17804 47.5832 5.44807 48.234 5.92809 48.714C6.40811 49.194 7.05891 49.464 7.73776 49.4649H12.9724C13.6513 49.464 14.3021 49.194 14.7821 48.714C15.2621 48.234 15.5321 47.5832 15.533 46.9043V42.0651H41.4671V46.9043C41.4679 47.5832 41.7379 48.234 42.2179 48.714C42.698 49.194 43.3488 49.464 44.0276 49.4649H49.2623C49.9411 49.464 50.5919 49.194 51.0719 48.714C51.5519 48.234 51.822 47.5832 51.8228 46.9043V42.0571C52.5893 42.0141 53.3103 41.6797 53.8382 41.1224C54.366 40.565 54.6608 39.8269 54.6621 39.0592V30.0314C54.6634 29.2556 54.4916 28.4892 54.1592 27.7882C53.8268 27.0871 53.3421 26.4691 52.7406 25.9791ZM13.9744 46.9043C13.974 47.1699 13.8683 47.4246 13.6805 47.6124C13.4927 47.8002 13.238 47.9059 12.9724 47.9063H7.73776C7.47213 47.9059 7.21749 47.8002 7.02966 47.6124C6.84183 47.4246 6.73616 47.1699 6.7358 46.9043V42.0651H13.9744V46.9043ZM49.2623 47.9063H44.0276C43.762 47.9059 43.5073 47.8002 43.3195 47.6124C43.1317 47.4246 43.026 47.1699 43.0257 46.9043V42.0651H50.2642V46.9043C50.2639 47.1699 50.1582 47.4246 49.9704 47.6124C49.7825 47.8002 49.5279 47.9059 49.2623 47.9063ZM53.1035 39.0592C53.1031 39.4429 52.9504 39.8108 52.6791 40.0821C52.4078 40.3534 52.04 40.506 51.6563 40.5065H5.34376C4.96006 40.506 4.59222 40.3534 4.32091 40.0821C4.04959 39.8108 3.89696 39.4429 3.89649 39.0592V30.0314C3.89549 29.4866 4.0161 28.9484 4.24953 28.4562C4.48295 27.9639 4.82332 27.5299 5.24579 27.1859L8.57539 24.4655C8.69457 24.3681 8.78226 24.2376 8.82744 24.0905L12.6024 11.7478C12.6745 11.5091 12.8075 11.2933 12.9882 11.1216C13.1689 10.9498 13.3912 10.828 13.6332 10.7681C18.503 9.61144 23.495 9.04921 28.5 9.09373C33.5044 9.04906 38.4958 9.61099 43.365 10.7672C43.607 10.8271 43.8292 10.9489 44.0099 11.1207C44.1905 11.2924 44.3234 11.5082 44.3954 11.7469L48.1726 24.0914C48.2178 24.2385 48.3054 24.369 48.4246 24.4664L51.7542 27.1868C52.1766 27.5309 52.5169 27.9648 52.7504 28.4571C52.9838 28.9494 53.1044 29.4875 53.1035 30.0323V39.0592Z" fill="white"/>
<path id="Vector_2" d="M11.0228 25.2684C14.14 25.772 19.7042 26.3723 28.5 26.3723C37.2958 26.3723 42.8587 25.772 45.9772 25.2684C46.0871 25.2505 46.1918 25.2094 46.2845 25.1477C46.3771 25.086 46.4555 25.0052 46.5144 24.9107C46.5732 24.8162 46.6111 24.7103 46.6256 24.5999C46.6401 24.4895 46.6308 24.3774 46.5984 24.2709L43.0546 12.6914C43.0147 12.5613 42.9414 12.4438 42.842 12.3508C42.7427 12.2577 42.6207 12.1923 42.4882 12.1611C37.8976 11.1303 33.2048 10.6242 28.5 10.6523C23.7952 10.6187 19.1019 11.1236 14.5118 12.157C14.3797 12.1886 14.258 12.254 14.1589 12.347C14.0598 12.4399 13.9867 12.5571 13.9467 12.687L10.4016 24.2695C10.3692 24.376 10.3599 24.4882 10.3744 24.5986C10.3889 24.7089 10.4268 24.8149 10.4857 24.9094C10.5445 25.0039 10.6229 25.0847 10.7155 25.1464C10.8082 25.208 10.913 25.2492 11.0228 25.267V25.2684ZM15.3058 13.5718C19.6412 12.6389 24.0655 12.1826 28.5 12.2109C32.9349 12.1873 37.3594 12.6451 41.6955 13.5763L44.8439 23.863C41.6568 24.3239 36.411 24.8119 28.5009 24.8119C20.5908 24.8119 15.3441 24.3221 12.1579 23.863L15.3058 13.5718Z" fill="white"/>
<path id="Vector_3" d="M33.7649 31.3767H23.2351C22.955 31.3767 22.6784 31.4391 22.4254 31.5593C22.1724 31.6794 21.9492 31.8544 21.7722 32.0715C21.5952 32.2886 21.4687 32.5423 21.402 32.8144C21.3352 33.0864 21.3298 33.3699 21.3861 33.6443L22.059 36.9164C22.1476 37.3415 22.3796 37.7232 22.7162 37.9977C23.0527 38.2721 23.4733 38.4225 23.9075 38.4238H33.0921C33.5263 38.4225 33.947 38.272 34.2835 37.9976C34.6201 37.7232 34.8522 37.3415 34.941 36.9164L35.6139 33.6438C35.6702 33.3694 35.6648 33.086 35.5981 32.8139C35.5313 32.5419 35.4048 32.2881 35.2278 32.0711C35.0508 31.854 34.8277 31.679 34.5747 31.5588C34.3216 31.4387 34.045 31.3767 33.7649 31.3767ZM23.5855 36.6047L22.9127 33.3321C22.9029 33.2843 22.9039 33.2349 22.9156 33.1875C22.9272 33.1401 22.9493 33.0959 22.9802 33.0581C23.011 33.0203 23.0499 32.9898 23.094 32.9689C23.1381 32.948 23.1863 32.9371 23.2351 32.9371H27.7207V36.8674H23.9075C23.8319 36.8672 23.7586 36.8409 23.7 36.7931C23.6414 36.7453 23.601 36.6788 23.5855 36.6047ZM34.0873 33.3321L33.4145 36.6047C33.3991 36.6789 33.3587 36.7456 33.3 36.7935C33.2413 36.8414 33.1679 36.8677 33.0921 36.8679H29.2793V32.9353H33.7649C33.8137 32.9354 33.8619 32.9463 33.9059 32.9673C33.95 32.9882 33.9888 33.0187 34.0197 33.0565C34.0505 33.0943 34.0726 33.1384 34.0843 33.1858C34.096 33.2331 34.097 33.2825 34.0873 33.3303V33.3321Z" fill="white"/>
<path id="Vector_4" d="M50.5461 31.5366C50.15 31.2331 49.6887 31.026 49.1988 30.9318C48.7088 30.8375 48.2036 30.8588 47.7232 30.9937L43.344 32.2072C42.805 32.3578 42.3299 32.6803 41.9911 33.1257C41.6523 33.5711 41.4683 34.115 41.467 34.6747V35.8637C41.4677 36.5426 41.7377 37.1934 42.2178 37.6735C42.6978 38.1535 43.3487 38.4235 44.0276 38.4242H49.2622C49.9411 38.4235 50.592 38.1535 51.072 37.6735C51.5521 37.1934 51.8221 36.5426 51.8228 35.8637V34.1109C51.8244 33.6122 51.7099 33.1199 51.4883 32.673C51.2667 32.2262 50.9441 31.8371 50.5461 31.5366ZM50.2642 35.8637C50.2638 36.1293 50.1582 36.3839 49.9703 36.5718C49.7825 36.7596 49.5279 36.8653 49.2622 36.8656H44.0276C43.762 36.8653 43.5073 36.7596 43.3195 36.5718C43.1317 36.3839 43.026 36.1293 43.0256 35.8637V34.6747C43.0263 34.4559 43.0984 34.2433 43.2309 34.0692C43.3635 33.8951 43.5492 33.769 43.76 33.7101L48.1392 32.4967C48.2863 32.4557 48.4384 32.4349 48.5911 32.4348C49.0353 32.4364 49.4607 32.6139 49.7742 32.9285C50.0878 33.2431 50.264 33.669 50.2642 34.1132V35.8637Z" fill="white"/>
<path id="Vector_5" d="M13.6559 32.2072L9.27673 30.9937C8.79629 30.8606 8.29159 30.8403 7.80201 30.9345C7.31244 31.0286 6.85123 31.2345 6.45438 31.5363C6.05754 31.838 5.73578 32.2274 5.51424 32.674C5.29269 33.1206 5.17734 33.6124 5.17719 34.1109V35.8623C5.17789 36.5412 5.44789 37.1921 5.92793 37.6721C6.40798 38.1522 7.05885 38.4222 7.73773 38.4229H12.9724C13.6513 38.4222 14.3021 38.1522 14.7822 37.6721C15.2622 37.1921 15.5322 36.5412 15.5329 35.8623V34.6734C15.5314 34.114 15.3472 33.5704 15.0084 33.1252C14.6696 32.6801 14.1947 32.3578 13.6559 32.2072ZM13.9743 35.8637C13.974 36.1293 13.8683 36.384 13.6805 36.5718C13.4927 36.7596 13.238 36.8653 12.9724 36.8656H7.73773C7.47211 36.8653 7.21746 36.7596 7.02963 36.5718C6.84181 36.384 6.73613 36.1293 6.73578 35.8637V34.1109C6.73601 33.6668 6.91218 33.2408 7.22573 32.9263C7.53929 32.6117 7.96468 32.4342 8.40882 32.4326C8.56158 32.4327 8.71362 32.4536 8.86081 32.4944L13.24 33.7101C13.4509 33.7691 13.6368 33.8953 13.7693 34.0695C13.9019 34.2438 13.9739 34.4566 13.9743 34.6756V35.8637Z" fill="white"/>
</g>
</g>
</svg>
