<svg width="46" height="46" viewBox="0 0 46 46" fill="none" xmlns="http://www.w3.org/2000/svg">
<path id="Vector" d="M39.0843 27.6463C36.3678 24.9763 33.0784 23.0746 29.4892 22.0488C32.8398 19.9988 35.075 16.3462 35.075 12.1896C35.075 5.79037 29.7781 0.584229 23.2671 0.584229C16.7563 0.584229 11.4595 5.79037 11.4595 12.1899C11.4595 16.3221 13.6685 19.9562 16.9865 22.0127C13.3478 23.0296 10.013 24.945 7.26432 27.6463C3.01466 31.8232 0.674316 37.3768 0.674316 43.2836V45.5842H45.6743V43.2836C45.6743 37.3768 43.334 31.8232 39.0843 27.6463ZM35.1529 36.1731C35.1529 36.8165 34.6202 37.34 33.9652 37.34C33.3106 37.34 32.7776 36.8165 32.7776 36.1731C32.7776 35.5293 33.3106 35.0058 33.9652 35.0058C34.6202 35.0058 35.1529 35.5293 35.1529 36.1731ZM23.1745 29.4566L19.3388 24.1599C20.5889 23.9202 21.8719 23.797 23.1745 23.797C24.4767 23.797 25.7597 23.9202 27.0102 24.1599L23.1745 29.4566ZM14.1331 12.1899C14.1331 7.23954 18.2308 3.21202 23.2671 3.21202C28.3037 3.21202 32.4014 7.23954 32.4014 12.1899C32.4014 17.1399 28.3037 21.1675 23.2671 21.1675C18.2308 21.1675 14.1331 17.1399 14.1331 12.1899ZM9.15511 29.5044C9.99728 28.677 10.902 27.9337 11.8584 27.2776V32.2255C8.79602 32.7841 6.4693 35.4277 6.4693 38.5969V41.0486H9.14288V38.5969C9.14288 36.4718 10.902 34.7428 13.0645 34.7428C15.2267 34.7428 16.9858 36.4718 16.9858 38.5969V40.9089H19.6594V38.5969C19.6594 35.5187 17.4644 32.9366 14.532 32.2788V25.7361C15.2009 25.4171 15.8869 25.1359 16.5883 24.8939L21.8373 32.1421V42.9561H3.3507C3.43558 37.8739 5.48915 33.1079 9.15511 29.5044ZM24.5113 42.9564V32.1425L29.7603 24.8939C30.7677 25.2417 31.7444 25.6701 32.6826 26.1752V32.5939C31.1823 33.1151 30.104 34.5224 30.104 36.1731C30.104 38.2656 31.8362 39.9682 33.9652 39.9682C36.0946 39.9682 37.8268 38.2656 37.8268 36.1731C37.8268 34.5622 36.7999 33.1834 35.3562 32.6334V27.9052C35.9965 28.3971 36.6102 28.9307 37.1939 29.5044C40.8598 33.1079 42.9134 37.8735 42.9983 42.9564H24.5113Z" fill="black"/>
</svg>
