<svg width="34" height="42" viewBox="0 0 34 42" fill="none" xmlns="http://www.w3.org/2000/svg">
<path id="Vector" d="M4.64549 34.3626H33.0479C33.2312 34.362 33.4068 34.289 33.5364 34.1594C33.666 34.0298 33.739 33.8541 33.7396 33.6709V2.71601C33.7392 2.11438 33.5001 1.53749 33.0747 1.11207C32.6492 0.686647 32.0724 0.447494 31.4707 0.447144L5.94594 0.447144C4.41274 0.448813 2.94282 1.05861 1.85869 2.14275C0.774555 3.22688 0.164756 4.6968 0.163086 6.22999V37.4685C0.165163 38.6566 0.638082 39.7955 1.47825 40.6357C2.31841 41.4759 3.45732 41.9488 4.64549 41.9509H33.0479C33.2313 41.9509 33.4073 41.878 33.537 41.7482C33.6667 41.6185 33.7396 41.4426 33.7396 41.2591C33.7396 41.0757 33.6667 40.8997 33.537 40.77C33.4073 40.6403 33.2313 40.5674 33.0479 40.5674H4.64549C3.82268 40.5674 3.03357 40.2405 2.45176 39.6587C1.86994 39.0769 1.54308 38.2878 1.54308 37.465C1.54308 36.6422 1.86994 35.8531 2.45176 35.2713C3.03357 34.6894 3.82268 34.3626 4.64549 34.3626ZM1.54654 6.22999C1.54714 5.06339 2.01084 3.94473 2.83576 3.11981C3.66067 2.2949 4.77933 1.8312 5.94594 1.8306H31.4707C31.7054 1.83105 31.9303 1.92448 32.0963 2.09043C32.2622 2.25638 32.3557 2.48133 32.3561 2.71601V32.9791H4.64549C3.48903 32.9778 2.37751 33.4269 1.54654 34.2312V6.22999ZM17.2665 22.7834H16.6362C16.1714 22.7829 15.7257 22.598 15.3971 22.2693C15.0684 21.9406 14.8835 21.4949 14.8829 21.0301V18.3902H12.243C11.7782 18.3896 11.3325 18.2047 11.0038 17.8761C10.6752 17.5474 10.4903 17.1017 10.4897 16.6369V16.009C10.4899 15.5439 10.6747 15.0978 11.0033 14.7687C11.332 14.4395 11.7778 14.2542 12.243 14.2534H14.8829V11.6158C14.8835 11.151 15.0684 10.7053 15.3971 10.3766C15.7257 10.048 16.1714 9.86305 16.6362 9.86249H17.2665C17.7313 9.86305 18.1769 10.048 18.5056 10.3766C18.8343 10.7053 19.0192 11.151 19.0198 11.6158V14.2534H21.6597C22.1248 14.2542 22.5706 14.4395 22.8993 14.7687C23.228 15.0978 23.4127 15.5439 23.413 16.009V16.6369C23.4124 17.1017 23.2275 17.5474 22.8988 17.8761C22.5701 18.2048 22.1245 18.3897 21.6597 18.3902H19.0198V21.0301C19.0192 21.495 18.8343 21.9406 18.5056 22.2693C18.1769 22.598 17.7313 22.7829 17.2665 22.7834ZM12.243 15.6368C12.1446 15.6372 12.0504 15.6766 11.9811 15.7464C11.9117 15.8162 11.8729 15.9106 11.8731 16.009V16.6369C11.8732 16.735 11.9122 16.829 11.9816 16.8983C12.0509 16.9677 12.1449 17.0067 12.243 17.0068H15.5746C15.7581 17.0068 15.934 17.0796 16.0638 17.2094C16.1935 17.3391 16.2664 17.515 16.2664 17.6985V21.0301C16.2665 21.1282 16.3054 21.2222 16.3748 21.2916C16.4441 21.3609 16.5381 21.3999 16.6362 21.4H17.2665C17.3645 21.3999 17.4585 21.3609 17.5279 21.2916C17.5972 21.2222 17.6362 21.1282 17.6363 21.0301V17.6985C17.6363 17.515 17.7092 17.3391 17.8389 17.2094C17.9686 17.0796 18.1446 17.0068 18.328 17.0067H21.6597C21.7577 17.0067 21.8518 16.9677 21.9211 16.8983C21.9904 16.829 22.0294 16.735 22.0295 16.6369V16.009C22.0298 15.9106 21.9909 15.8162 21.9216 15.7464C21.8523 15.6766 21.7581 15.6372 21.6597 15.6368H18.328C18.1446 15.6368 17.9686 15.5639 17.8389 15.4342C17.7092 15.3045 17.6363 15.1285 17.6363 14.9451V11.6158C17.6362 11.5177 17.5972 11.4237 17.5279 11.3544C17.4586 11.285 17.3645 11.246 17.2665 11.2459H16.6362C16.5381 11.246 16.4441 11.285 16.3748 11.3544C16.3054 11.4237 16.2665 11.5177 16.2664 11.6158V14.9451C16.2664 15.1285 16.1935 15.3045 16.0638 15.4342C15.934 15.5639 15.7581 15.6368 15.5746 15.6368H12.243ZM16.9513 26.4319C14.952 26.4319 12.9975 25.8391 11.3351 24.7283C9.67263 23.6175 8.37692 22.0387 7.61178 20.1916C6.84664 18.3444 6.64644 16.3118 7.03649 14.3508C7.42654 12.3899 8.38932 10.5886 9.80309 9.17488C11.2169 7.76111 13.0181 6.79832 14.9791 6.40827C16.94 6.01823 18.9726 6.21843 20.8198 6.98357C22.6669 7.74871 24.2457 9.04442 25.3565 10.7068C26.4673 12.3693 27.0601 14.3238 27.0601 16.3231C27.0571 19.0032 25.9911 21.5727 24.096 23.4678C22.2009 25.3629 19.6314 26.4289 16.9513 26.4319ZM16.9513 7.5975C15.2256 7.59747 13.5386 8.10918 12.1037 9.06792C10.6688 10.0267 9.5504 11.3894 8.88996 12.9837C8.22952 14.5781 8.0567 16.3325 8.39334 18.0251C8.72998 19.7176 9.56098 21.2724 10.7812 22.4927C12.0015 23.713 13.5562 24.544 15.2488 24.8807C16.9413 25.2174 18.6957 25.0447 20.2901 24.3843C21.8845 23.7239 23.2473 22.6056 24.206 21.1707C25.1648 19.7358 25.6766 18.0489 25.6766 16.3231C25.6741 14.0098 24.754 11.7919 23.1182 10.1561C21.4825 8.52033 19.2647 7.60018 16.9513 7.5975ZM30.108 38.1575H4.71267C4.52922 38.1575 4.35327 38.0846 4.22355 37.9549C4.09382 37.8252 4.02095 37.6492 4.02095 37.4658C4.02095 37.2823 4.09382 37.1064 4.22355 36.9767C4.35327 36.8469 4.52922 36.7741 4.71267 36.7741H30.108C30.2915 36.7741 30.4674 36.8469 30.5971 36.9767C30.7269 37.1064 30.7997 37.2823 30.7997 37.4658C30.7997 37.6492 30.7269 37.8252 30.5971 37.9549C30.4674 38.0846 30.2915 38.1575 30.108 38.1575ZM29.5598 31.4074C29.3764 31.4074 29.2004 31.3345 29.0707 31.2048C28.941 31.0751 28.8681 30.8991 28.8681 30.7157V21.4071C28.8681 21.2236 28.941 21.0477 29.0707 20.918C29.2004 20.7882 29.3764 20.7154 29.5598 20.7154C29.7433 20.7154 29.9192 20.7882 30.049 20.918C30.1787 21.0477 30.2516 21.2236 30.2516 21.4071V30.7157C30.2516 30.8991 30.1787 31.0751 30.049 31.2048C29.9192 31.3345 29.7433 31.4074 29.5598 31.4074Z" fill="black"/>
</svg>
