<svg width="47" height="47" viewBox="0 0 47 47" fill="none" xmlns="http://www.w3.org/2000/svg">
<g id="stethoscope-medical-tool 2" clip-path="url(#clip0_3384_1009)">
<g id="Group">
<g id="Group_2">
<path id="Vector" d="M44.0504 22.0954C44.0504 18.5402 41.1467 15.6449 37.5896 15.6449C34.0325 15.6449 31.1269 18.5392 31.1269 22.0954C31.1269 25.2974 33.4536 27.9373 36.5045 28.4463V35.2203C36.5045 40.5001 32.2194 44.7852 26.9396 44.7852C21.6599 44.7852 17.3738 40.4991 17.3738 35.2203L17.3505 27.46C19.8543 27.1263 22.3012 25.6619 24.4778 23.1609C24.7975 22.7936 24.8945 22.3201 24.8395 21.868C27.6844 18.1067 29.449 12.9845 29.449 9.04703C29.449 2.9684 26.7252 2.33732 22.221 1.30635L22.2145 1.29517C21.9376 0.737733 21.3783 0.334106 20.7007 0.334106C19.7489 0.334106 18.9771 1.10501 18.9771 2.04556C18.9771 2.9973 19.748 3.76819 20.7007 3.76819C21.0773 3.76819 21.4305 3.61159 21.7111 3.3888L21.7512 3.40372C26.124 4.40766 27.3041 4.67985 27.3041 9.04703C27.3041 12.51 25.6654 17.1475 23.1606 20.4959C22.7458 20.5201 22.3357 20.7028 22.029 21.044C20.7491 22.5252 18.704 24.2981 16.2878 24.2981C13.8735 24.2981 11.8302 22.542 10.5503 21.0645C10.2427 20.7233 9.83351 20.5406 9.42149 20.5173C6.91025 17.1568 5.26778 12.5137 5.26778 9.0461C5.26778 4.67612 6.42832 4.40486 10.8281 3.40092L10.843 3.38694C11.1451 3.60973 11.4741 3.76726 11.8749 3.76726C12.8267 3.76726 13.5976 2.99543 13.5976 2.04463C13.5967 1.10501 12.8267 0.334106 11.874 0.334106C11.1945 0.334106 10.6361 0.737733 10.3397 1.2933L10.3359 1.29423C5.82707 2.33453 3.09863 2.95442 3.09863 9.04703C3.09863 12.9882 4.86974 18.1291 7.73987 21.8894C7.68487 22.3415 7.78275 22.816 8.10248 23.1823C10.2772 25.6666 12.7008 27.1254 15.2018 27.46L15.2046 35.2194C15.2056 41.6839 20.476 46.9422 26.9396 46.9422C33.4032 46.9422 38.6513 41.6839 38.6513 35.2194V28.4453C41.7014 27.9364 44.0504 25.2965 44.0504 22.0954ZM37.5896 26.4114C35.2191 26.4114 33.2737 24.4781 33.2737 22.0973C33.2737 19.7259 35.2191 17.7935 37.5896 17.7935C39.9601 17.7935 41.8831 19.7259 41.8831 22.0973C41.8841 24.4771 39.9601 26.4114 37.5896 26.4114Z" fill="#2B292D"/>
<path id="Vector_2" d="M37.5893 18.8757C35.8088 18.8757 34.3584 20.3159 34.3584 22.0964C34.3584 23.887 35.8088 25.3254 37.5893 25.3254C39.3688 25.3254 40.8201 23.887 40.8201 22.0964C40.8201 20.3159 39.3688 18.8757 37.5893 18.8757Z" fill="#2B292D"/>
</g>
</g>
</g>
<defs>
<clipPath id="clip0_3384_1009">
<rect width="46.6081" height="46.6081" fill="white" transform="translate(0.270508 0.334106)"/>
</clipPath>
</defs>
</svg>
