<svg width="63" height="63" viewBox="0 0 63 63" fill="none" xmlns="http://www.w3.org/2000/svg">
<g id="train (1)">
<g id="Group">
<path id="Vector" d="M41.2832 8.49023H21.7168C19.7312 8.49245 17.8276 9.28219 16.4236 10.6862C15.0196 12.0902 14.2299 13.9938 14.2277 15.9794V41.927C14.2291 43.267 14.7621 44.5518 15.7096 45.4993C16.6572 46.4469 17.9419 46.9798 19.2819 46.9813H20.3972L17.0361 53.2409C16.928 53.4422 16.9043 53.6782 16.9702 53.8969C17.0361 54.1157 17.1862 54.2993 17.3875 54.4074C17.5888 54.5155 17.8248 54.5392 18.0435 54.4733C18.2623 54.4073 18.4459 54.2572 18.554 54.056L20.0232 51.3204H42.9768L44.446 54.056C44.5541 54.2572 44.7377 54.4073 44.9565 54.4733C45.1752 54.5392 45.4112 54.5155 45.6125 54.4074C45.8138 54.2993 45.9639 54.1157 46.0298 53.8969C46.0957 53.6782 46.072 53.4422 45.9639 53.2409L42.6028 46.9813H43.7181C45.0581 46.9798 46.3428 46.4469 47.2904 45.4993C48.2379 44.5518 48.7709 43.267 48.7723 41.927V15.9794C48.7701 13.9938 47.9804 12.0902 46.5764 10.6862C45.1724 9.28219 43.2688 8.49245 41.2832 8.49023ZM21.7168 10.2129H41.2832C42.812 10.2147 44.2777 10.8228 45.3587 11.9039C46.4397 12.9849 47.0479 14.4506 47.0497 15.9794V16.7427H15.9503V15.9794C15.9521 14.4506 16.5603 12.9849 17.6413 11.9039C18.7223 10.8228 20.188 10.2147 21.7168 10.2129ZM47.0497 32.9101H15.9503V18.4654H47.0497V32.9101ZM42.052 49.5977H20.948L22.3527 46.9813H40.6473L42.052 49.5977ZM43.7181 45.2586H19.2819C18.3986 45.2577 17.5517 44.9064 16.9271 44.2818C16.3025 43.6572 15.9512 42.8103 15.9503 41.927V34.6328H47.0497V41.927C47.0488 42.8103 46.6975 43.6572 46.0729 44.2818C45.4483 44.9064 44.6014 45.2577 43.7181 45.2586Z" fill="white"/>
<path id="Vector_2" d="M21.8374 36.6572C21.2423 36.6571 20.6605 36.8334 20.1657 37.164C19.6709 37.4945 19.2852 37.9643 19.0573 38.5141C18.8295 39.0638 18.7698 39.6687 18.8858 40.2524C19.0018 40.8361 19.2883 41.3722 19.709 41.7931C20.1297 42.2139 20.6658 42.5006 21.2494 42.6167C21.833 42.7329 22.438 42.6734 22.9878 42.4458C23.5376 42.2182 24.0076 41.8326 24.3383 41.3379C24.669 40.8432 24.8455 40.2615 24.8456 39.6664C24.8448 38.8687 24.5277 38.1039 23.9637 37.5398C23.3998 36.9756 22.635 36.6582 21.8374 36.6572ZM21.8374 40.952C21.583 40.9521 21.3342 40.8767 21.1227 40.7355C20.9111 40.5942 20.7462 40.3933 20.6488 40.1583C20.5514 39.9233 20.5259 39.6646 20.5755 39.4151C20.6251 39.1656 20.7476 38.9364 20.9275 38.7565C21.1074 38.5766 21.3366 38.4541 21.5861 38.4045C21.8356 38.3549 22.0942 38.3804 22.3293 38.4778C22.5643 38.5752 22.7651 38.7401 22.9064 38.9517C23.0477 39.1633 23.1231 39.412 23.123 39.6664C23.1219 40.0069 22.9861 40.333 22.7451 40.5736C22.5042 40.8142 22.1778 40.9495 21.8374 40.95V40.952Z" fill="white"/>
<path id="Vector_3" d="M41.1626 36.6572C40.5676 36.6572 39.9859 36.8336 39.4911 37.1642C38.9963 37.4948 38.6107 37.9647 38.3829 38.5144C38.1552 39.0641 38.0956 39.6691 38.2116 40.2527C38.3277 40.8363 38.6142 41.3724 39.0349 41.7932C39.4557 42.214 39.9917 42.5006 40.5753 42.6168C41.1589 42.7329 41.7639 42.6734 42.3137 42.4458C42.8635 42.2181 43.3334 41.8326 43.6641 41.3378C43.9947 40.8431 44.1713 40.2615 44.1714 39.6664C44.1704 38.8687 43.8532 38.1039 43.2891 37.5397C42.7251 36.9756 41.9603 36.6582 41.1626 36.6572ZM41.1626 40.952C40.9082 40.952 40.6596 40.8766 40.4481 40.7352C40.2365 40.5939 40.0717 40.393 39.9744 40.158C39.8771 39.9229 39.8516 39.6643 39.9013 39.4148C39.9509 39.1653 40.0735 38.9362 40.2534 38.7563C40.4333 38.5765 40.6625 38.454 40.912 38.4045C41.1615 38.3549 41.4201 38.3804 41.6551 38.4779C41.8901 38.5753 42.0909 38.7402 42.2322 38.9518C42.3735 39.1633 42.4488 39.412 42.4487 39.6664C42.4477 40.0069 42.3117 40.3332 42.0707 40.5738C41.8297 40.8144 41.5032 40.9496 41.1626 40.95V40.952Z" fill="white"/>
<path id="Vector_4" d="M24.6793 14.5077H38.3207C38.5492 14.5077 38.7683 14.4169 38.9298 14.2554C39.0913 14.0939 39.1821 13.8748 39.1821 13.6464C39.1821 13.4179 39.0913 13.1988 38.9298 13.0373C38.7683 12.8758 38.5492 12.785 38.3207 12.785H24.6793C24.4508 12.785 24.2317 12.8758 24.0702 13.0373C23.9087 13.1988 23.8179 13.4179 23.8179 13.6464C23.8179 13.8748 23.9087 14.0939 24.0702 14.2554C24.2317 14.4169 24.4508 14.5077 24.6793 14.5077Z" fill="white"/>
</g>
</g>
</svg>
