<svg width="126" height="56" viewBox="0 0 126 56" fill="none" xmlns="http://www.w3.org/2000/svg">
<path d="M4.49161 53.6187C4.49197 53.618 4.48982 53.618 4.49018 53.6176C4.6109 53.5846 4.73269 53.5556 4.84839 53.5026L4.92433 53.4783L4.49161 53.6187ZM5.42332 53.8078C5.4552 53.6885 5.47921 53.5768 5.49712 53.4679L5.50106 53.5152L5.42332 53.8078ZM5.86787 50.7784C5.40685 50.3285 4.79179 49.9882 4.18355 49.7947C3.40981 49.5487 2.69875 49.6282 1.91856 49.8746C1.45754 50.0229 1.05276 50.624 0.996164 51.094C0.977537 51.2487 0.989715 51.4096 1.01694 51.5701C1.00655 51.5973 0.991867 51.622 0.984345 51.6507C0.842492 52.1486 0.773715 52.4624 0.823149 52.971C0.853239 53.2777 0.96715 53.5804 1.09575 53.8487C1.6259 54.9348 2.89541 55.6136 4.03704 55.6433C5.1629 55.6648 6.34751 55.1819 6.83433 54.1918C7.43362 53.0086 6.80675 51.6979 5.86787 50.7784Z" fill="#E74B1E"/>
<path d="M8.08844 46.6941C8.0888 46.6937 8.08665 46.6933 8.08701 46.693C8.21202 46.6779 8.3374 46.6668 8.46063 46.6317L8.53943 46.6185L8.08844 46.6941ZM9.10684 46.7378L8.98541 47.0147C9.0352 46.9025 9.07604 46.7969 9.11007 46.6926L9.10684 46.7378ZM9.85802 44.0755C9.46577 43.5665 8.90374 43.1445 8.32773 42.868C7.59447 42.5159 6.87696 42.4926 6.06776 42.6226C5.57951 42.6957 5.11276 43.242 4.99634 43.7015C4.95515 43.8513 4.94333 44.0114 4.94655 44.174C4.93222 44.1984 4.91431 44.2202 4.90213 44.2464C4.68756 44.7146 4.57293 45.0126 4.54643 45.5198C4.52923 45.8247 4.59765 46.1395 4.69652 46.4297C5.07802 47.5878 6.2157 48.4368 7.34981 48.6377C7.91578 48.7391 8.48964 48.6965 9.00941 48.5238C9.53992 48.3565 10.0056 48.0528 10.3291 47.5982C11.0824 46.4985 10.655 45.1133 9.85802 44.0755Z" fill="#E74B1E"/>
<path d="M13.6275 40.4558L13.6178 40.5002L13.4584 40.7577C13.5236 40.6535 13.5791 40.5543 13.6275 40.4558ZM12.6102 40.3204C12.6109 40.32 12.6087 40.3193 12.6091 40.3189C12.7355 40.3211 12.8616 40.3268 12.9892 40.3085L13.0694 40.3064L12.6102 40.3204ZM14.7114 37.9536C14.3891 37.3991 13.8858 36.9091 13.3492 36.5605C12.6664 36.1164 11.9561 35.9985 11.1354 36.0186C10.6439 36.0279 10.1324 36.5254 9.9447 36.9517C9.88345 37.0936 9.85049 37.2497 9.83186 37.4099C9.81395 37.4317 9.79354 37.4511 9.77777 37.4751C9.50302 37.9081 9.34434 38.1815 9.25514 38.683C9.20678 38.9896 9.23938 39.3152 9.29383 39.6118C9.51162 40.8039 10.5211 41.7998 11.6208 42.154C12.7205 42.5058 13.9298 42.3131 14.7154 41.5139C15.1814 41.0257 15.3272 40.4103 15.2907 39.7809C15.2627 39.1594 15.0356 38.5114 14.7114 37.9536Z" fill="#E74B1E"/>
<path d="M17.9117 34.5635C17.9121 34.5635 17.9103 34.5624 17.911 34.5624C18.0364 34.58 18.161 34.6015 18.2907 34.5997L18.3713 34.6072L17.9117 34.5635ZM18.9083 34.8254L18.8929 34.868L18.7009 35.103C18.779 35.0081 18.847 34.9167 18.9083 34.8254ZM19.1028 30.923C18.4816 30.405 17.7749 30.184 16.9761 30.1242C16.4968 30.0844 15.919 30.5007 15.6818 30.9004C15.6038 31.0326 15.5515 31.1823 15.5128 31.3378C15.4924 31.3575 15.4694 31.3736 15.4512 31.3955C15.1187 31.7823 14.9386 32.0446 14.7963 32.5378C14.7093 32.8337 14.7 33.1586 14.7165 33.4581C14.7809 34.6617 15.6553 35.7761 16.7045 36.2668C17.7595 36.7604 18.9839 36.7142 19.8579 36.0078C20.9075 35.1596 20.7814 33.644 20.2881 32.468C20.0356 31.8801 19.5943 31.3339 19.1028 30.923Z" fill="#E74B1E"/>
<path d="M24.5845 30.1095C24.6737 30.0203 24.7518 29.9354 24.8242 29.8501L24.803 29.8924C24.7078 29.9841 24.6139 30.078 24.5218 30.1736L24.5845 30.1095ZM23.8728 29.4812C23.8735 29.4808 23.8717 29.4797 23.872 29.4794C23.9935 29.5095 24.1135 29.5435 24.2403 29.5539L24.3184 29.5693L23.8728 29.4812ZM25.4654 25.9907C24.9012 25.3968 24.2467 25.13 23.4526 24.967C22.9797 24.8703 22.3561 25.212 22.0735 25.5788C21.9792 25.6974 21.9101 25.8396 21.8549 25.99C21.8324 26.0072 21.8073 26.0205 21.7858 26.0402C21.4247 26.4023 21.2152 26.6409 21.0131 27.1084C20.8917 27.3899 20.8437 27.7102 20.8247 28.0078C20.7456 29.205 21.4813 30.4132 22.4682 31.0258C23.4533 31.6333 24.7038 31.7616 25.6323 31.1293C26.7811 30.4129 26.8413 28.9073 26.468 27.66C26.2839 27.0475 25.9078 26.4557 25.4654 25.9907Z" fill="#E74B1E"/>
<path d="M30.375 25.1056C30.3758 25.1056 30.374 25.1042 30.3743 25.1038C30.4918 25.1479 30.6079 25.1955 30.7333 25.2206L30.8092 25.2449L30.375 25.1056ZM31.2828 25.5691L31.2566 25.6118L31.0205 25.8038C31.1169 25.7246 31.2036 25.6476 31.2828 25.5691ZM32.3413 21.8115C31.8484 21.1663 31.2229 20.8214 30.4521 20.5692C29.9928 20.4198 29.3337 20.682 29.0146 21.0166C28.911 21.1298 28.8283 21.2663 28.7577 21.4113C28.7337 21.4267 28.7079 21.4382 28.6857 21.4565C28.2849 21.7728 28.0488 21.9841 27.7948 22.4226C27.6415 22.6873 27.5573 22.9982 27.5043 23.2909C27.2894 24.4662 27.9002 25.7744 28.8018 26.4768C29.7045 27.1789 30.945 27.4641 31.9412 26.9414C33.1491 26.3285 33.3977 24.8674 33.1587 23.5825C33.0398 22.9491 32.7292 22.3187 32.3413 21.8115Z" fill="#E74B1E"/>
<path d="M37.3151 21.4432C37.3158 21.4432 37.314 21.4418 37.3147 21.4418C37.4272 21.498 37.5383 21.5575 37.6611 21.5955L37.7346 21.6281L37.3151 21.4432ZM38.1719 22.0035L38.144 22.0393L37.8882 22.2044C37.9921 22.1378 38.0853 22.0719 38.1719 22.0035ZM39.6005 18.3644C39.1721 17.6734 38.5832 17.2665 37.841 16.9358C37.3982 16.7374 36.7187 16.9312 36.3748 17.2453C36.2573 17.3492 36.1599 17.4803 36.0735 17.6214C36.0513 17.6325 36.0252 17.6318 36.004 17.6451C35.5742 17.9148 35.3188 18.0986 35.0215 18.5055C34.8431 18.753 34.7249 19.0453 34.6457 19.3391C34.3219 20.5054 34.7797 21.8498 35.6078 22.6522C36.4292 23.4392 37.6318 23.8368 38.6906 23.4306C39.9523 22.9212 40.3542 21.5084 40.241 20.2056C40.1855 19.5651 39.9372 18.9078 39.6005 18.3644Z" fill="#E74B1E"/>
<path d="M45.3881 19.1016L45.357 19.1349L45.0851 19.275C45.1954 19.2184 45.295 19.1614 45.3881 19.1016ZM44.5843 18.4625C44.585 18.4629 44.5832 18.4611 44.584 18.4611C44.6914 18.5277 44.7964 18.5976 44.9157 18.6474L44.9859 18.6868L44.5843 18.4625ZM47.1391 15.6051C46.7734 14.8783 46.2228 14.4183 45.5142 14.02C45.0898 13.7742 44.4066 13.9344 44.033 14.2019C43.9102 14.2911 43.8034 14.4076 43.7067 14.5347C43.6805 14.5444 43.6533 14.5501 43.6279 14.5627C43.1758 14.7887 42.905 14.9456 42.5719 15.321C42.3734 15.5538 42.2334 15.8472 42.1263 16.127C41.6942 17.2521 42.0206 18.633 42.7707 19.5121C43.5197 20.3858 44.6717 20.8654 45.7732 20.5699C47.0872 20.1891 47.6055 18.7864 47.6144 17.495C47.6159 16.8531 47.4267 16.1764 47.1391 15.6051Z" fill="#E74B1E"/>
<path d="M52.0946 16.1227C52.1963 16.1983 52.2956 16.2774 52.4102 16.3369L52.095 16.1245C52.0957 16.1245 52.0942 16.1227 52.0946 16.1227ZM52.8107 16.8602L52.5273 16.9759C52.6423 16.9294 52.7469 16.8814 52.8447 16.8302L52.8107 16.8602ZM54.8736 13.4855C54.567 12.734 54.0533 12.2214 53.3831 11.7768C52.9837 11.5132 52.2891 11.6002 51.8965 11.837C51.7672 11.9151 51.6515 12.0215 51.5451 12.1397C51.5182 12.1469 51.4907 12.1501 51.4645 12.1605C50.996 12.3442 50.714 12.4768 50.3551 12.8364C50.1384 13.0506 49.974 13.329 49.8436 13.5976C49.3192 14.6769 49.5244 16.0801 50.1979 17.0218C50.8731 17.9668 51.98 18.5281 53.1073 18.3243C54.4588 18.0685 55.0843 16.6847 55.1975 15.4066C55.2505 14.7676 55.1151 14.0787 54.8736 13.4855Z" fill="#E74B1E"/>
<path d="M60.1336 15.2655C60.2558 15.2268 60.3661 15.1852 60.4707 15.1405L60.4335 15.1688L60.048 15.2948L60.1336 15.2655ZM59.7754 14.3853C59.7765 14.3853 59.7751 14.3832 59.7754 14.3832C59.8711 14.4645 59.9638 14.549 60.0738 14.6153L60.1376 14.6655L59.7754 14.3853ZM62.7375 11.9502C62.4842 11.1725 62.011 10.6402 61.3756 10.1484C60.9969 9.8543 60.2998 9.88726 59.8922 10.0925C59.7575 10.1591 59.6346 10.2562 59.52 10.3662C59.4932 10.3716 59.4656 10.3726 59.4391 10.3809C58.9605 10.5331 58.6718 10.656 58.2871 10.9794C58.0553 11.1754 57.8708 11.4394 57.7207 11.6962C57.1171 12.7279 57.2128 14.1421 57.8131 15.1344C58.4131 16.123 59.4842 16.7933 60.6222 16.6493C61.9963 16.5017 62.7228 15.1666 62.9245 13.8889C63.023 13.2559 62.9363 12.5592 62.7375 11.9502Z" fill="#E74B1E"/>
<path d="M67.8771 14.092C67.9982 14.059 68.1093 14.0242 68.2142 13.9856L68.1748 14.0121L67.8771 14.092ZM67.5676 13.19C67.6554 13.2752 67.7403 13.363 67.8424 13.4353L67.5676 13.1918C67.5684 13.1918 67.5673 13.19 67.5676 13.19ZM70.6805 10.9504C70.4774 10.1634 70.0393 9.60068 69.4379 9.06551C69.0797 8.74634 68.384 8.73093 67.9649 8.90753C67.827 8.96771 67.6987 9.05798 67.578 9.1615C67.5504 9.1658 67.5229 9.16544 67.4956 9.17261C67.0095 9.29762 66.714 9.39363 66.3096 9.69023C66.0657 9.86898 65.8643 10.1187 65.6974 10.364C65.0261 11.3455 65.0258 12.7802 65.5559 13.7996C66.0864 14.8231 67.1149 15.5764 68.2637 15.5047C69.6471 15.4338 70.4638 14.1693 70.7446 12.8991C70.8829 12.2701 70.8403 11.5687 70.6805 10.9504Z" fill="#E74B1E"/>
<path d="M76.029 13.3189L75.9892 13.3422L75.6866 13.4031C75.8094 13.3788 75.9219 13.3512 76.029 13.3189ZM75.4279 12.4832C75.5082 12.5713 75.5863 12.6609 75.6812 12.7376L75.4276 12.485C75.4283 12.4854 75.4276 12.4832 75.4279 12.4832ZM78.6519 10.4113C78.4856 9.61466 78.0769 9.02826 77.5102 8.46013C77.1739 8.11732 76.4847 8.07793 76.0605 8.23483C75.9205 8.28713 75.7883 8.36986 75.6629 8.46587C75.6353 8.46802 75.6085 8.46622 75.5809 8.47124C75.0926 8.56509 74.7942 8.64211 74.3759 8.9122C74.1237 9.07519 73.9095 9.31089 73.7289 9.54588C73.0014 10.5016 72.9115 11.9194 73.3793 12.9754C73.8439 14.0189 74.8322 14.8345 75.9953 14.8367C77.3909 14.8324 78.2854 13.6069 78.6257 12.36C78.7941 11.7399 78.783 11.0375 78.6519 10.4113Z" fill="#E74B1E"/>
<path d="M83.9248 12.9561L83.8843 12.9786L83.5784 13.0324C83.7027 13.0109 83.8162 12.9858 83.9248 12.9561ZM83.3416 12.1071C83.4193 12.1967 83.4953 12.2876 83.5884 12.3661L83.3412 12.1089C83.3419 12.1093 83.3409 12.1067 83.3416 12.1071ZM86.6024 10.0939C86.4451 9.29549 86.0457 8.70515 85.4934 8.13093C85.1638 7.78884 84.4918 7.72616 84.0705 7.87446C83.9316 7.92354 83.7994 8.00305 83.6729 8.09583C83.6461 8.09762 83.6192 8.09511 83.592 8.09941C83.107 8.1818 82.8107 8.25201 82.3894 8.51207C82.1355 8.66861 81.9163 8.90002 81.7303 9.12999C80.9835 10.0531 80.8348 11.4655 81.2682 12.5398C81.6999 13.6091 82.6753 14.4452 83.8542 14.4727C85.2756 14.5068 86.2023 13.2874 86.5548 12.0423C86.7306 11.4236 86.726 10.7215 86.6024 10.0939Z" fill="#E74B1E"/>
<path d="M91.885 12.6387L91.8445 12.662L91.5357 12.7204C91.6611 12.6971 91.7757 12.6702 91.885 12.6387ZM91.29 11.7969C91.3616 11.8779 91.4329 11.9592 91.5174 12.0301L91.2896 11.7991C91.2903 11.7994 91.2893 11.7969 91.29 11.7969ZM94.5193 9.73432C94.3445 8.93873 93.9347 8.35484 93.3776 7.78958C93.0452 7.4525 92.3807 7.40055 91.9681 7.55494C91.8323 7.6058 91.703 7.68712 91.5801 7.78169C91.5536 7.78384 91.5271 7.7817 91.5006 7.78636C91.026 7.87735 90.7308 7.94361 90.316 8.20618C90.0656 8.36379 89.8492 8.59557 89.6655 8.8259C88.9276 9.75116 88.7742 11.1643 89.2098 12.2375C89.6436 13.3032 90.6298 14.1425 91.8294 14.1565C93.277 14.1679 94.1883 12.9321 94.515 11.6823C94.678 11.0611 94.6565 10.3594 94.5193 9.73432Z" fill="#E74B1E"/>
<path d="M99.8946 12.0881L99.8549 12.1128L99.5479 12.1841C99.6725 12.1558 99.7864 12.124 99.8946 12.0881ZM99.2592 11.2735C99.3347 11.3509 99.41 11.4286 99.4981 11.496L99.2592 11.2753C99.2599 11.2757 99.2588 11.2735 99.2592 11.2735ZM102.379 9.04977C102.157 8.26492 101.722 7.72078 101.143 7.18311C100.797 6.86036 100.139 6.83601 99.7399 7.00723C99.6084 7.06347 99.4848 7.15016 99.3677 7.24975C99.3415 7.25297 99.3154 7.25189 99.2896 7.25798C98.8239 7.36616 98.5406 7.45248 98.143 7.73547C97.9033 7.90669 97.6963 8.13954 97.5229 8.37632C96.8251 9.322 96.7137 10.7391 97.1873 11.7987C97.6569 12.8554 98.6874 13.6593 99.9072 13.6066C101.375 13.5572 102.235 12.2808 102.488 10.9966C102.616 10.3637 102.551 9.66446 102.379 9.04977Z" fill="#E74B1E"/>
<path d="M107.214 10.2591C107.215 10.2591 107.214 10.2569 107.214 10.2569C107.297 10.3289 107.379 10.402 107.474 10.4629L107.214 10.2591ZM107.881 11.05L107.578 11.1432C107.701 11.1052 107.814 11.0651 107.92 11.0214L107.881 11.05ZM110.121 7.76162C109.824 7.00364 109.336 6.49068 108.72 6.01641C108.352 5.73235 107.719 5.79074 107.336 5.97737C107.212 6.04221 107.098 6.13641 106.991 6.24351C106.965 6.24853 106.939 6.24924 106.914 6.25712C106.465 6.39682 106.193 6.50215 105.823 6.81128C105.6 6.99791 105.417 7.2544 105.264 7.50586C104.652 8.52176 104.627 9.91878 105.178 10.954C105.72 11.9692 106.825 12.6652 108.057 12.533C108.796 12.4632 109.36 12.0713 109.749 11.5297C110.138 10.9959 110.354 10.3311 110.421 9.68701C110.487 9.04689 110.353 8.35768 110.121 7.76162Z" fill="#E74B1E"/>
<path d="M115.861 9.10672L115.828 9.13861C115.753 9.17586 115.676 9.21168 115.6 9.24857C115.692 9.20201 115.78 9.15544 115.861 9.10672ZM115.065 8.4469C115.065 8.4469 115.064 8.4451 115.064 8.44474C115.116 8.48021 115.17 8.51209 115.224 8.54254C115.171 8.5103 115.118 8.47985 115.065 8.4469ZM117.615 5.58799C117.214 4.87658 116.658 4.42738 115.987 4.02905C115.586 3.79155 114.969 3.91119 114.633 4.16659C114.524 4.25221 114.427 4.36362 114.339 4.48577C114.314 4.49472 114.289 4.49938 114.265 4.5112C113.852 4.71861 113.589 4.83 113.265 5.17783C113.068 5.38416 112.918 5.65604 112.796 5.92041C112.31 6.98036 112.442 8.4014 113.105 9.35067C113.758 10.2892 114.96 10.8888 116.187 10.5929C117.659 10.1846 118.236 8.73095 118.184 7.44855C118.161 6.80986 117.93 6.14752 117.615 5.58799Z" fill="#E74B1E"/>
<path d="M122.587 5.46079C122.68 5.50198 122.774 5.54282 122.875 5.57112L122.587 5.46294C122.588 5.46294 122.586 5.46115 122.587 5.46079ZM123.487 5.97806L123.458 6.01602L123.193 6.1998C123.301 6.12565 123.397 6.05257 123.487 5.97806ZM125.496 3.93266C125.355 3.30006 125.005 2.69072 124.596 2.20176C124.075 1.5799 123.459 1.2525 122.748 0.998529C122.313 0.829453 121.724 1.02969 121.437 1.32773C121.34 1.42803 121.262 1.55591 121.195 1.69346C121.176 1.70457 121.152 1.70385 121.133 1.71674C120.762 1.98003 120.543 2.15914 120.292 2.56428C120.144 2.81503 120.036 3.09479 119.957 3.36954C119.645 4.47069 119.989 5.85161 120.797 6.69341C121.199 7.11252 121.72 7.42345 122.296 7.57318C122.86 7.69784 123.474 7.64375 124.059 7.38512C124.762 7.07168 125.207 6.53186 125.432 5.92003C125.646 5.28277 125.638 4.5667 125.496 3.93266Z" fill="#E74B1E"/>
</svg>
