<svg width="27" height="23" viewBox="0 0 27 23" fill="none" xmlns="http://www.w3.org/2000/svg">
<path d="M21.6964 5.85938C21.6491 6.14953 21.6083 6.44076 21.5732 6.7327C21.4679 6.52637 21.3217 6.33293 21.1294 6.15956C20.9746 6.01985 20.8081 5.90773 20.634 5.81782C20.9882 5.83466 21.3425 5.84827 21.6964 5.85938ZM25.2793 17.9588C25.295 17.9186 25.3097 17.8774 25.3223 17.8352C26.2336 14.7728 26.6645 11.5851 26.8529 8.40163C26.8995 7.61392 26.9303 6.82549 26.9489 6.0367C26.9672 5.25365 27.0245 4.45017 26.9145 3.67249C26.8511 3.22544 26.7282 2.77444 26.4675 2.39832C26.379 2.27115 26.2619 2.11497 26.139 2.00428C26.0595 1.93264 25.952 1.87926 25.8718 1.80655C25.9531 1.87282 26.1318 1.99283 25.8578 1.789C25.6694 1.64894 25.4845 1.51855 25.2725 1.41681C24.5306 1.06111 23.7089 0.847258 22.9032 0.695734C21.335 0.400566 19.7352 0.33931 18.1476 0.219667C16.5579 0.0996647 14.9685 0.0316048 13.3741 0.0763817C12.567 0.0989494 11.7603 0.147303 10.9565 0.223602C10.4317 0.273752 9.89508 0.322832 9.4337 0.604746C8.88922 0.937168 8.5106 1.573 8.55573 2.22029C8.62737 3.25804 9.4878 3.89207 10.3937 4.21231C11.1105 4.46593 11.8717 4.6343 12.6121 4.8023C14.5261 5.23645 16.4744 5.5094 18.432 5.67525C18.0326 5.78415 17.6472 5.95396 17.2739 6.12912C15.7709 6.85056 14.3975 7.80913 13.0796 8.8236C11.6779 9.90253 10.311 11.028 8.93544 12.1399C7.48503 13.3124 6.0751 14.5353 4.71783 15.8141C4.04474 16.4489 3.3842 17.0973 2.7387 17.76C2.40377 18.1035 2.071 18.4495 1.74574 18.8027C1.4606 19.1126 1.16508 19.4532 0.994208 19.8415C0.729488 20.4426 0.671458 21.086 0.985253 21.6845C1.22991 22.1509 1.72567 22.4912 2.24222 22.5751C3.24199 22.737 4.14004 22.3161 4.99366 21.8461C6.54436 20.9925 8.05028 20.059 9.51574 19.0664C12.5742 16.9944 15.4628 14.6743 18.2465 12.2492C18.9242 11.6589 19.5994 11.0646 20.2629 10.4585C20.673 10.0838 21.0728 9.64247 21.3572 9.15279C21.302 9.89071 21.2501 10.629 21.2064 11.3669C21.1373 12.5365 21.1136 13.7089 21.1437 14.8803C21.1588 15.4656 21.187 16.0509 21.23 16.6352C21.282 17.3469 21.2891 18.1096 21.5983 18.7644C22.0339 19.6875 23.2249 20.0909 24.1104 19.5503C24.7022 19.1889 25.0586 18.5975 25.2793 17.9588Z" fill="#FBCA07"/>
</svg>
